<?xml version="1.0" encoding="UTF-8" standalone="no"?>
<!-- Created with Inkscape (http://www.inkscape.org/) -->

<svg
   xmlns:dc="http://purl.org/dc/elements/1.1/"
   xmlns:cc="http://creativecommons.org/ns#"
   xmlns:rdf="http://www.w3.org/1999/02/22-rdf-syntax-ns#"
   xmlns:svg="http://www.w3.org/2000/svg"
   xmlns="http://www.w3.org/2000/svg"
   xmlns:sodipodi="http://sodipodi.sourceforge.net/DTD/sodipodi-0.dtd"
   xmlns:inkscape="http://www.inkscape.org/namespaces/inkscape"
   id="svg2987"
   sodipodi:docname="bkgd.svg"
   viewBox="0 0 610.83048 431.90679"
   version="1.1"
   inkscape:version="0.92.4 (5da689c313, 2019-01-14)"
   width="610.83051"
   height="431.9068">
  <defs
     id="defs40" />
  <sodipodi:namedview
     id="base"
     fit-margin-left="0"
     inkscape:zoom="1.2671137"
     borderopacity="1.0"
     inkscape:current-layer="layer1"
     inkscape:cx="211.2108"
     inkscape:cy="230.91198"
     fit-margin-right="0"
     inkscape:window-maximized="1"
     inkscape:snap-bbox="true"
     showgrid="false"
     width="1052.36px"
     inkscape:document-units="px"
     bordercolor="#666666"
     inkscape:window-x="-8"
     inkscape:window-y="-8"
     fit-margin-bottom="0"
     inkscape:window-width="1920"
     inkscape:pageopacity="0.0"
     inkscape:pageshadow="2"
     pagecolor="#ffffff"
     inkscape:window-height="1017"
     fit-margin-top="0" />
  <g
     id="layer1"
     inkscape:label="Livello 1"
     inkscape:groupmode="layer"
     transform="translate(-312.73352,-351.94125)">
    <rect
       x="314.10907"
       y="353.3168"
       width="608.07941"
       height="429.1557"
       style="fill:#000820;stroke:#000820;stroke-width:2.75110102"
       id="rect2989" />
    <path
       sodipodi:sides="5"
       sodipodi:r2="13.029993"
       inkscape:rounded="0"
       sodipodi:cx="364.98672"
       sodipodi:cy="726.38794"
       inkscape:randomized="0"
       sodipodi:arg1="0.7551044"
       sodipodi:arg2="1.3834229"
       inkscape:flatsided="false"
       sodipodi:r1="6.7755966"
       d="m 369.92071,731.03169 -2.50677,8.15818 -5.319,-6.67443 -8.53352,0.13693 4.70409,-7.12118 -2.76723,-8.07355 8.22629,2.2733 6.82328,-5.12666 0.38003,8.52616 6.98425,4.9051 z"
       sodipodi:type="star"
       style="fill:#ffff00;stroke:#000820;stroke-width:0.32625932"
       id="path3002" />
    <path
       d="m 823.63885,411.62158 -2.70854,8.8148 -5.74711,-7.21163 -9.22035,0.14795 5.08271,-7.69434 -2.98996,-8.72336 8.8884,2.45626 7.37246,-5.53928 0.41062,9.2124 7.54639,5.29989 z"
       inkscape:flatsided="false"
       inkscape:rounded="0"
       sodipodi:cx="818.30774"
       sodipodi:cy="406.60406"
       inkscape:randomized="0"
       sodipodi:arg2="1.3834229"
       sodipodi:arg1="0.7551044"
       sodipodi:r2="14.078735"
       sodipodi:r1="7.3209424"
       sodipodi:sides="5"
       sodipodi:type="star"
       style="fill:#ffff00;stroke:#000820;stroke-width:0.35251889"
       id="path3004" />
    <path
       sodipodi:sides="5"
       sodipodi:r2="13.029993"
       inkscape:rounded="0"
       sodipodi:cx="448.97202"
       sodipodi:cy="475.15759"
       inkscape:randomized="0"
       sodipodi:arg1="0.7551044"
       sodipodi:arg2="1.3834229"
       inkscape:flatsided="false"
       sodipodi:r1="6.7755966"
       d="m 453.906,479.80135 -2.50677,8.15817 -5.319,-6.67443 -8.53352,0.13693 4.70409,-7.12118 -2.76723,-8.07354 8.22629,2.27329 6.82328,-5.12665 0.38004,8.52615 6.98424,4.9051 z"
       sodipodi:type="star"
       style="fill:#ffff00;stroke:#000820;stroke-width:0.32625932"
       id="path3006" />
    <path
       d="m 842.16904,745.92604 -2.50678,8.15818 -5.319,-6.67443 -8.53352,0.13693 4.70409,-7.12118 -2.76722,-8.07355 8.22629,2.27329 6.82327,-5.12665 0.38004,8.52615 6.98424,4.9051 z"
       inkscape:flatsided="false"
       inkscape:rounded="0"
       sodipodi:cx="837.23505"
       sodipodi:cy="741.28229"
       inkscape:randomized="0"
       sodipodi:arg2="1.3834229"
       sodipodi:arg1="0.7551044"
       sodipodi:r2="13.029993"
       sodipodi:r1="6.7755966"
       sodipodi:sides="5"
       sodipodi:type="star"
       style="fill:#ffff00;stroke:#000820;stroke-width:0.32625932"
       id="path3009" />
    <path
       sodipodi:sides="5"
       sodipodi:r2="8.8350258"
       inkscape:rounded="0"
       sodipodi:cx="657.95825"
       sodipodi:cy="448.59399"
       inkscape:randomized="0"
       sodipodi:arg1="0.7551044"
       sodipodi:arg2="1.3834229"
       inkscape:flatsided="false"
       sodipodi:r1="4.594214"
       d="m 661.30376,451.74271 -1.69973,5.53167 -3.60656,-4.52561 -5.78618,0.0928 3.18962,-4.82854 -1.87632,-5.47429 5.57786,1.54141 4.62654,-3.47614 0.25768,5.78118 4.73569,3.32592 z"
       sodipodi:type="star"
       style="fill:#ffff00;stroke:#000820;stroke-width:0.22122112"
       id="path3011" />
    <path
       d="m 622.71829,723.08534 -2.50677,8.15818 -5.319,-6.67443 -8.53352,0.13693 4.70409,-7.12118 -2.76723,-8.07355 8.22629,2.2733 6.82328,-5.12666 0.38003,8.52616 6.98425,4.9051 z"
       inkscape:flatsided="false"
       inkscape:rounded="0"
       sodipodi:cx="617.7843"
       sodipodi:cy="718.44159"
       inkscape:randomized="0"
       sodipodi:arg2="1.3834229"
       sodipodi:arg1="0.7551044"
       sodipodi:r2="13.029993"
       sodipodi:r1="6.7755966"
       sodipodi:sides="5"
       sodipodi:type="star"
       style="fill:#ffff00;stroke:#000820;stroke-width:0.32625932"
       id="path3013" />
    <path
       d="m 365.15959,387.11026 -1.09449,3.56197 -2.32235,-2.91414 -3.72586,0.0598 2.05388,-3.10921 -1.20822,-3.52502 3.59172,0.99255 2.97914,-2.23837 0.16592,3.72264 3.04942,2.14164 z"
       inkscape:flatsided="false"
       inkscape:rounded="0"
       sodipodi:cx="363.00534"
       sodipodi:cy="385.08273"
       inkscape:randomized="0"
       sodipodi:arg2="1.3834229"
       sodipodi:arg1="0.7551044"
       sodipodi:r2="5.6890779"
       sodipodi:r1="2.9583206"
       sodipodi:sides="5"
       sodipodi:type="star"
       style="fill:#ffff00;stroke:#000820;stroke-width:0.14244939"
       id="path3015" />
    <path
       d="m 380.42685,593.99904 -2.50678,8.15817 -5.319,-6.67442 -8.53352,0.13693 4.7041,-7.12118 -2.76723,-8.07355 8.22629,2.27329 6.82328,-5.12665 0.38003,8.52615 6.98425,4.9051 z"
       inkscape:flatsided="false"
       inkscape:rounded="0"
       sodipodi:cx="375.49286"
       sodipodi:cy="589.35529"
       inkscape:randomized="0"
       sodipodi:arg2="1.3834229"
       sodipodi:arg1="0.7551044"
       sodipodi:r2="13.029993"
       sodipodi:r1="6.7755966"
       sodipodi:sides="5"
       sodipodi:type="star"
       style="fill:#ffff00;stroke:#000820;stroke-width:0.32625932"
       id="path3017" />
    <path
       sodipodi:sides="5"
       sodipodi:r2="5.6890779"
       inkscape:rounded="0"
       sodipodi:cx="527.84149"
       sodipodi:cy="639.29077"
       inkscape:randomized="0"
       sodipodi:arg1="0.7551044"
       sodipodi:arg2="1.3834229"
       inkscape:flatsided="false"
       sodipodi:r1="2.9583206"
       d="m 529.99574,641.3183 -1.09449,3.56197 -2.32235,-2.91415 -3.72586,0.0598 2.05388,-3.10921 -1.20821,-3.52502 3.59171,0.99255 2.97914,-2.23837 0.16593,3.72264 3.04942,2.14164 z"
       sodipodi:type="star"
       style="fill:#ffff00;stroke:#000820;stroke-width:0.14244939"
       id="path3019" />
    <path
       inkscape:connector-curvature="0"
       style="fill:#ffdc18;stroke:#f1dd0d;stroke-width:6.59739494"
       d="m 390.21826,372.69802 c -5.29313,-0.73647 -10.49918,-0.70594 -15.53517,-0.004 22.0989,9.7237 36.02505,33.01774 32.57312,57.82791 -3.45182,24.80844 -23.20407,43.36252 -47.11513,46.68618 4.65474,2.0516 9.65056,3.50052 14.94601,4.23728 30.41325,4.23171 58.47453,-16.65601 62.64796,-46.68269 4.17785,-30.0261 -17.10586,-57.83372 -47.51911,-62.06752 z"
       id="path3021" />
    <path
       d="m 649.66416,381.79683 -1.17184,3.8137 -2.48648,-3.12009 -3.98917,0.064 2.19903,-3.32895 -1.2936,-3.77415 3.84555,1.0627 3.18968,-2.39656 0.17766,3.98573 3.26493,2.29299 z"
       inkscape:flatsided="false"
       inkscape:rounded="0"
       sodipodi:cx="647.35767"
       sodipodi:cy="379.62601"
       inkscape:randomized="0"
       sodipodi:arg2="1.3834229"
       sodipodi:arg1="0.7551044"
       sodipodi:r2="6.0911417"
       sodipodi:r1="3.1673939"
       sodipodi:sides="5"
       sodipodi:type="star"
       style="fill:#ffff00;stroke:#000820;stroke-width:0.15251672"
       id="path3959" />
    <path
       sodipodi:sides="5"
       sodipodi:r2="3.6288698"
       inkscape:rounded="0"
       sodipodi:cx="547.8266"
       sodipodi:cy="439.17764"
       inkscape:randomized="0"
       sodipodi:arg1="0.7551044"
       sodipodi:arg2="1.3834229"
       inkscape:flatsided="false"
       sodipodi:r1="1.8870124"
       d="m 549.20072,440.47093 -0.69814,2.27207 -1.48135,-1.85884 -2.37659,0.0381 1.31009,-1.98325 -0.77067,-2.2485 2.29103,0.63312 1.90029,-1.42778 0.10584,2.37454 1.94512,1.36608 z"
       sodipodi:type="star"
       style="fill:#ffff00;stroke:#000820;stroke-width:0.09086364"
       id="path3961" />
    <path
       d="m 851.08154,505.90689 -2.70854,8.8148 -5.74711,-7.21163 -9.22036,0.14795 5.08272,-7.69434 -2.98996,-8.72336 8.8884,2.45626 7.37246,-5.53928 0.41062,9.21239 7.54639,5.2999 z"
       inkscape:flatsided="false"
       inkscape:rounded="0"
       sodipodi:cx="845.75043"
       sodipodi:cy="500.88937"
       inkscape:randomized="0"
       sodipodi:arg2="1.3834229"
       sodipodi:arg1="0.7551044"
       sodipodi:r2="14.078735"
       sodipodi:r1="7.3209424"
       sodipodi:sides="5"
       sodipodi:type="star"
       style="fill:#ffff00;stroke:#000820;stroke-width:0.35251889"
       id="path3004-6" />
    <path
       d="m 605.30673,567.92159 -2.50677,8.15817 -5.319,-6.67443 -8.53352,0.13693 4.70409,-7.12118 -2.76723,-8.07354 8.22629,2.27329 6.82328,-5.12666 0.38003,8.52616 6.98425,4.9051 z"
       inkscape:flatsided="false"
       inkscape:rounded="0"
       sodipodi:cx="600.37274"
       sodipodi:cy="563.27783"
       inkscape:randomized="0"
       sodipodi:arg2="1.3834229"
       sodipodi:arg1="0.7551044"
       sodipodi:r2="13.029993"
       sodipodi:r1="6.7755966"
       sodipodi:sides="5"
       sodipodi:type="star"
       style="fill:#ffff00;stroke:#000820;stroke-width:0.32625932"
       id="path3013-6" />
    <path
       sodipodi:sides="5"
       sodipodi:r2="5.6890779"
       inkscape:rounded="0"
       sodipodi:cx="749.17529"
       sodipodi:cy="668.53534"
       inkscape:randomized="0"
       sodipodi:arg1="0.7551044"
       sodipodi:arg2="1.3834229"
       inkscape:flatsided="false"
       sodipodi:r1="2.9583206"
       d="m 751.32954,670.56287 -1.09449,3.56197 -2.32235,-2.91415 -3.72586,0.0598 2.05388,-3.10921 -1.20821,-3.52502 3.59171,0.99255 2.97914,-2.23837 0.16593,3.72264 3.04942,2.14163 z"
       sodipodi:type="star"
       style="fill:#ffff00;stroke:#000820;stroke-width:0.14244939"
       id="path3019-0" />
    <path
       d="m 728.42111,550.55934 -2.50678,8.15818 -5.319,-6.67443 -8.53352,0.13693 4.7041,-7.12118 -2.76723,-8.07355 8.22629,2.2733 6.82328,-5.12666 0.38003,8.52615 6.98425,4.9051 z"
       inkscape:flatsided="false"
       inkscape:rounded="0"
       sodipodi:cx="723.48712"
       sodipodi:cy="545.91559"
       inkscape:randomized="0"
       sodipodi:arg2="1.3834229"
       sodipodi:arg1="0.7551044"
       sodipodi:r2="13.029993"
       sodipodi:r1="6.7755966"
       sodipodi:sides="5"
       sodipodi:type="star"
       style="fill:#ffff00;stroke:#000820;stroke-width:0.32625932"
       id="path3017-2" />
    <path
       sodipodi:sides="5"
       sodipodi:r2="3.6288698"
       inkscape:rounded="0"
       sodipodi:cx="855.83838"
       sodipodi:cy="620.47711"
       inkscape:randomized="0"
       sodipodi:arg1="0.7551044"
       sodipodi:arg2="1.3834229"
       inkscape:flatsided="false"
       sodipodi:r1="1.8870124"
       d="m 857.2125,621.7704 -0.69814,2.27207 -1.48135,-1.85884 -2.37659,0.0381 1.31009,-1.98325 -0.77067,-2.2485 2.29103,0.63312 1.90029,-1.42778 0.10584,2.37454 1.94512,1.36608 z"
       sodipodi:type="star"
       style="fill:#ffff00;stroke:#000820;stroke-width:0.09086364"
       id="path3961-5" />
  </g>
  <metadata
     id="metadata37">
    <rdf:RDF>
      <cc:Work>
        <dc:format>image/svg+xml</dc:format>
        <dc:type
           rdf:resource="http://purl.org/dc/dcmitype/StillImage" />
        <cc:license
           rdf:resource="http://creativecommons.org/publicdomain/zero/1.0/" />
        <dc:publisher>
          <cc:Agent
             rdf:about="http://openclipart.org/">
            <dc:title>Openclipart</dc:title>
          </cc:Agent>
        </dc:publisher>
        <dc:title></dc:title>
      </cc:Work>
      <cc:License
         rdf:about="http://creativecommons.org/publicdomain/zero/1.0/">
        <cc:permits
           rdf:resource="http://creativecommons.org/ns#Reproduction" />
        <cc:permits
           rdf:resource="http://creativecommons.org/ns#Distribution" />
        <cc:permits
           rdf:resource="http://creativecommons.org/ns#DerivativeWorks" />
      </cc:License>
    </rdf:RDF>
  </metadata>
</svg>
