<?xml version="1.0" encoding="UTF-8" standalone="no"?>
<!-- Created with Inkscape (http://www.inkscape.org/) -->

<!-- ClipArt by Arvin61r58 (http://openclipart.org/user-detail/Arvin61r58) -->

<svg
   xmlns:dc="http://purl.org/dc/elements/1.1/"
   xmlns:cc="http://creativecommons.org/ns#"
   xmlns:rdf="http://www.w3.org/1999/02/22-rdf-syntax-ns#"
   xmlns:svg="http://www.w3.org/2000/svg"
   xmlns="http://www.w3.org/2000/svg"
   xmlns:sodipodi="http://sodipodi.sourceforge.net/DTD/sodipodi-0.dtd"
   xmlns:inkscape="http://www.inkscape.org/namespaces/inkscape"
   id="svg4443"
   viewBox="0 0 123.664 293.3768"
   version="1.1"
   sodipodi:docname="holdit.svg"
   width="123.664"
   height="293.3768"
   inkscape:version="0.92.4 (5da689c313, 2019-01-14)">
  <defs
     id="defs52" />
  <sodipodi:namedview
     pagecolor="#ffffff"
     bordercolor="#666666"
     borderopacity="1"
     objecttolerance="10"
     gridtolerance="10"
     guidetolerance="10"
     inkscape:pageopacity="0"
     inkscape:pageshadow="2"
     inkscape:window-width="1920"
     inkscape:window-height="1017"
     id="namedview50"
     showgrid="false"
     fit-margin-top="0"
     fit-margin-left="0"
     fit-margin-right="0"
     fit-margin-bottom="0"
     inkscape:zoom="0.52248223"
     inkscape:cx="-42.577239"
     inkscape:cy="137.87071"
     inkscape:window-x="-8"
     inkscape:window-y="-8"
     inkscape:window-maximized="1"
     inkscape:current-layer="svg4443" />
  <title
     id="title3030">Restrooms</title>
  <g
     id="g3455"
     transform="translate(-266.066,-639.23719)">
    <path
       id="path3080-4"
       style="fill:#000000"
       d="m 330.47,798.42 v 131.82 h 27.802 V 798.42 Z"
       inkscape:connector-curvature="0" />
    <path
       id="path3375"
       style="fill:#000000;stroke:#ffffff;stroke-width:2"
       d="m 288.39,799.79 19.387,65.912 -19.387,65.912 h 30.028 l 19.387,-65.912 -19.387,-65.912 z"
       inkscape:connector-curvature="0" />
    <path
       id="path3448"
       style="fill:#000000"
       d="m 287.16,724.79 h -21.094 v 58.188 h 21.094 v -56.719 -1.4688 z"
       inkscape:connector-curvature="0" />
    <path
       id="path3453"
       style="fill:#000000"
       d="m 289.88,725.75 v 76.125 h 68.812 V 725.75 Z"
       inkscape:connector-curvature="0" />
    <path
       id="path3443"
       style="fill:#000000;stroke:#ffffff;stroke-width:2"
       d="m 383.86,724.09 4.8036,28.644 -26.548,29.274 -10.258,0.0438 -10.258,0.0438 26.593,-29.659 -4.8204,-28.556 10.244,0.1048 z"
       inkscape:connector-curvature="0" />
    <path
       id="path3078-7"
       style="fill:#000000"
       d="m 289.68,725.95 h 68.812 v -0.3125 h 0.3125 v -0.0937 h 3.0938 v 0.0312 h 21.094 v -0.0312 -1.5 l -0.5625,-8.375 c -0.56038,-3.0028 -1.5904,-5.504 -3.0938,-7.5 -2.4355,-2.8013 -5.0682,-4.5206 -7.875,-5.125 l -9.5625,-0.90625 -37.344,0.3125 h -32.906 -1.9688 l -10.375,0.90625 c -3.1843,0.60442 -5.9403,2.24 -8.2812,4.9375 -2.341,2.698 -3.75,5.3931 -4.2188,8.0938 -0.40079,2.3087 -0.56352,5.6744 -0.625,9.375 h 20.562 v -0.125 h 2.9375 v 0.3125 z"
       inkscape:connector-curvature="0" />
    <g
       id="g3030"
       transform="matrix(0.54,0,0,0.49554,122.47,511.6)">
      <path
         id="path3761"
         style="fill:#000000;fill-rule:evenodd"
         d="m 431.14,318.87 a 57.165,61.298072 0 1 1 -114.33,0 57.165,61.298072 0 1 1 114.33,0 z"
         inkscape:connector-curvature="0" />
      <g
         id="g3026"
         transform="translate(-3.0981e-6,-6)">
        <path
           id="path3777"
           style="fill:#ffffff;fill-rule:evenodd;stroke:#ffffff;stroke-width:1.93309999"
           d="m 133.61,424.93 a 7.576,7.576 0 1 1 -15.152,0 7.576,7.576 0 1 1 15.152,0 z"
           transform="translate(231.41,-123.97)"
           inkscape:connector-curvature="0" />
        <path
           id="path3779"
           style="fill:#ffffff;fill-rule:evenodd;stroke:#ffffff;stroke-width:1.93309999"
           d="m 133.61,424.93 a 7.576,7.576 0 1 1 -15.152,0 7.576,7.576 0 1 1 15.152,0 z"
           transform="translate(264.47,-123.97)"
           inkscape:connector-curvature="0" />
      </g>
      <path
         id="path3805"
         style="fill:none;stroke:#ffffff;stroke-width:5.79939985"
         d="m 348.5,342.84 c 5.312,-3.9588 11.452,-6.8018 17.907,-8.2917 0.9101,-0.21006 1.831,-0.39417 2.7642,-0.43312 0.93322,-0.0389 1.8842,0.0719 2.7456,0.43312 1.3243,0.55531 2.3443,1.6581 3.1635,2.8376 0.81923,1.1794 1.4816,2.465 2.3463,3.6116 1.3786,1.828 3.2654,3.2685 5.392,4.1166 2.1266,0.84813 4.4869,1.1014 6.7451,0.72383 2.2582,-0.37759 4.4077,-1.385 6.1427,-2.8788 1.735,-1.4938 3.0506,-3.4698 3.7594,-5.6468"
         inkscape:connector-curvature="0" />
    </g>
  </g>
  <metadata
     id="metadata47">
    <rdf:RDF>
      <cc:Work>
        <dc:format>image/svg+xml</dc:format>
        <dc:type
           rdf:resource="http://purl.org/dc/dcmitype/StillImage" />
        <cc:license
           rdf:resource="http://creativecommons.org/publicdomain/zero/1.0/" />
        <dc:publisher>
          <cc:Agent
             rdf:about="http://openclipart.org/">
            <dc:title>Openclipart</dc:title>
          </cc:Agent>
        </dc:publisher>
        <dc:title>Restrooms</dc:title>
      </cc:Work>
      <cc:License
         rdf:about="http://creativecommons.org/publicdomain/zero/1.0/">
        <cc:permits
           rdf:resource="http://creativecommons.org/ns#Reproduction" />
        <cc:permits
           rdf:resource="http://creativecommons.org/ns#Distribution" />
        <cc:permits
           rdf:resource="http://creativecommons.org/ns#DerivativeWorks" />
      </cc:License>
    </rdf:RDF>
  </metadata>
</svg>
