<?xml version="1.0" encoding="UTF-8" standalone="no"?>
<!-- Created with Inkscape (http://www.inkscape.org/) -->

<svg
   xmlns:dc="http://purl.org/dc/elements/1.1/"
   xmlns:cc="http://creativecommons.org/ns#"
   xmlns:rdf="http://www.w3.org/1999/02/22-rdf-syntax-ns#"
   xmlns:svg="http://www.w3.org/2000/svg"
   xmlns="http://www.w3.org/2000/svg"
   xmlns:sodipodi="http://sodipodi.sourceforge.net/DTD/sodipodi-0.dtd"
   xmlns:inkscape="http://www.inkscape.org/namespaces/inkscape"
   version="1.1"
   id="svg2"
   xml:space="preserve"
   width="420.04962"
   height="635.31738"
   viewBox="0 0 420.04962 635.31738"
   sodipodi:docname="plant.svg"
   inkscape:version="0.92.4 (5da689c313, 2019-01-14)"><metadata
     id="metadata8"><rdf:RDF><cc:Work
         rdf:about=""><dc:format>image/svg+xml</dc:format><dc:type
           rdf:resource="http://purl.org/dc/dcmitype/StillImage" /><dc:title></dc:title></cc:Work></rdf:RDF></metadata><defs
     id="defs6" /><sodipodi:namedview
     pagecolor="#ffffff"
     bordercolor="#666666"
     borderopacity="1"
     objecttolerance="10"
     gridtolerance="10"
     guidetolerance="10"
     inkscape:pageopacity="0"
     inkscape:pageshadow="2"
     inkscape:window-width="1920"
     inkscape:window-height="1017"
     id="namedview4"
     showgrid="false"
     fit-margin-top="0"
     fit-margin-left="0"
     fit-margin-right="0"
     fit-margin-bottom="0"
     inkscape:zoom="1.0074671"
     inkscape:cx="210.02691"
     inkscape:cy="254.04933"
     inkscape:window-x="-8"
     inkscape:window-y="-8"
     inkscape:window-maximized="1"
     inkscape:current-layer="g10" /><g
     id="g10"
     inkscape:groupmode="layer"
     inkscape:label="ink_ext_XXXXXX"
     transform="matrix(1.3333333,0,0,-1.3333333,2.417897e-4,762.54139)"><path
       inkscape:connector-curvature="0"
       id="path66"
       style="fill:#99a4b1;fill-opacity:1;fill-rule:evenodd;stroke:none;stroke-width:0.1"
       d="m 210.282,118.856 c 0,-12.944 -21.126,-23.438 -47.186,-23.438 -26.061,0 -47.185,10.494 -47.185,23.438 l -8.939,91.821 h 112.247 l -8.937,-91.821" /><path
       inkscape:connector-curvature="0"
       id="path68"
       style="fill:#8492a0;fill-opacity:1;fill-rule:evenodd;stroke:none;stroke-width:0.1"
       d="m 210.282,118.856 c 0,-12.944 -21.126,-23.438 -47.186,-23.438 -4.464,0 -8.782,0.3082 -12.873,0.8832 9.652,-0.5774 16.877,1.6097 22.808,5.2738 -14.744,-0.138 -29.493,-0.341 -44.111,8.255 l 82.933,25.179 -1.571,-16.153" /><path
       inkscape:connector-curvature="0"
       id="path70"
       style="fill:#d2dce9;fill-opacity:1;fill-rule:evenodd;stroke:none;stroke-width:0.1"
       d="m 219.375,132.041 c 0,-15.438 -25.197,-27.954 -56.279,-27.954 -31.082,0 -56.282,12.516 -56.282,27.954 L 96.1527,241.563 H 230.036 L 219.375,132.041" /><path
       inkscape:connector-curvature="0"
       id="path72"
       style="fill:#c2cedd;fill-opacity:1;fill-rule:evenodd;stroke:none;stroke-width:0.1"
       d="m 219.375,132.041 c 0,-15.438 -25.197,-27.954 -56.279,-27.954 -13.425,0 -25.746,2.333 -35.418,6.23 2.909,-0.527 5.743,-0.92 8.504,-1.18 15.101,-1.426 28.645,3.158 39.777,13.459 11.13,10.303 16.748,23.453 16.494,38.619 -0.035,2.044 -0.071,4.087 -0.104,6.132 -0.307,18.327 -14.143,33.335 -32.383,35.126 -17.309,1.704 -33.174,7.943 -47.529,18.926 l 31.925,20.164 h 85.674 L 219.375,132.041" /><path
       inkscape:connector-curvature="0"
       id="path74"
       style="fill:#eef4f9;fill-opacity:1;fill-rule:evenodd;stroke:none;stroke-width:0.1"
       d="m 163.096,209.906 c 36.913,0 67.021,14.956 67.021,33.291 0,18.336 -30.108,33.291 -67.021,33.291 -36.916,0 -67.0214,-14.955 -67.0214,-33.291 0,-18.335 30.1054,-33.291 67.0214,-33.291" /><path
       inkscape:connector-curvature="0"
       id="path76"
       style="fill:#c3cedd;fill-opacity:1;fill-rule:evenodd;stroke:none;stroke-width:0.1"
       d="m 163.096,216.323 c 31.243,0 56.728,12.072 56.728,26.874 0,14.803 -25.485,26.876 -56.728,26.876 -31.246,0 -56.729,-12.073 -56.729,-26.876 0,-14.802 25.483,-26.874 56.729,-26.874" /><path
       inkscape:connector-curvature="0"
       id="path78"
       style="fill:#472816;fill-opacity:1;fill-rule:evenodd;stroke:none;stroke-width:0.1"
       d="m 219.343,239.691 c -3.626,-13.186 -27.426,-23.37 -56.247,-23.37 -28.824,0 -52.624,10.184 -56.25,23.37 3.626,13.188 27.426,23.371 56.25,23.371 28.821,0 52.621,-10.183 56.247,-23.371" /><path
       inkscape:connector-curvature="0"
       id="path80"
       style="fill:#603516;fill-opacity:1;fill-rule:evenodd;stroke:none;stroke-width:0.1"
       d="m 219.343,239.691 c -3.626,-13.186 -27.426,-23.37 -56.247,-23.37 -15.516,0 -29.577,2.952 -39.817,7.735 -1.679,2.538 -2.585,5.241 -2.585,8.042 0,14.844 25.398,26.876 56.729,26.876 7.703,0 15.048,-0.729 21.747,-2.047 10.816,-4.228 18.271,-10.319 20.173,-17.236" /><path
       inkscape:connector-curvature="0"
       id="path82"
       style="fill:#549d34;fill-opacity:1;fill-rule:evenodd;stroke:none;stroke-width:0.1"
       d="m 249.41,445.02 c 11.158,12.892 22.198,15.572 31.953,10.535 -0.488,-1.364 -1.019,-2.669 -1.585,-3.92 l -0.013,0.006 c -1.945,-4.278 -4.339,-7.971 -6.985,-11.333 -2.855,-3.631 -2.226,-8.887 1.406,-11.741 3.63,-2.854 8.887,-2.224 11.74,1.406 3.144,3.994 6.016,8.355 8.422,13.336 5.16,-7.419 9.595,-17.397 13.02,-29.329 -0.177,-0.282 -0.37,-0.547 -0.583,-0.795 -1.03,-1.196 -2.641,-2.165 -4.876,-2.883 -4.388,-1.409 -6.804,-6.11 -5.397,-10.5 1.409,-4.387 6.111,-6.803 10.498,-5.395 1.582,0.509 3.062,1.104 4.441,1.787 1.319,-7.392 2.298,-15.281 2.898,-23.564 -1.1,0.088 -2.26,0.249 -3.463,0.456 -4.552,0.776 -8.872,-2.285 -9.647,-6.837 -0.777,-4.552 2.283,-8.872 6.835,-9.649 2.346,-0.404 4.668,-0.676 6.952,-0.747 0.228,-25.603 -3.065,-54.058 -11.03,-82.96 -4.12,12.991 -11.211,26.57 -19.252,40.339 2.719,1.83 5.16,4.184 7.286,7.125 2.71,3.739 1.874,8.967 -1.864,11.676 -3.738,2.71 -8.967,1.874 -11.676,-1.864 -0.725,-1.004 -1.521,-1.848 -2.381,-2.541 -4.964,8.129 -10.017,16.278 -14.747,24.362 0.271,0.132 0.544,0.268 0.813,0.407 6.308,3.239 12.167,7.884 17.55,14.007 3.053,3.469 2.716,8.755 -0.752,11.807 -3.468,3.052 -8.754,2.716 -11.806,-0.752 -4.045,-4.601 -8.244,-7.986 -12.579,-10.213 -0.456,-0.234 -0.911,-0.455 -1.372,-0.665 -2.089,3.977 -4.034,7.926 -5.792,11.837 1.741,0.747 3.434,1.583 5.072,2.526 7.223,4.161 13.074,10.189 16.822,19.058 1.788,4.244 -0.205,9.137 -4.448,10.925 -4.245,1.788 -9.138,-0.205 -10.925,-4.448 -2.184,-5.168 -5.574,-8.67 -9.757,-11.078 -0.862,-0.498 -1.768,-0.956 -2.712,-1.376 -5.646,18.644 -5.011,36.04 7.934,50.995 z M 114.8,410.044 c 16.892,-11.048 14.762,-24.345 5.216,-38.519 -0.508,1.851 -0.841,3.829 -0.978,5.952 -0.29,4.607 -4.26,8.107 -8.865,7.817 -4.604,-0.289 -8.104,-4.257 -7.815,-8.863 0.361,-5.602 1.636,-10.639 3.64,-15.218 0.662,-1.513 1.396,-2.966 2.197,-4.363 -2.344,-2.589 -4.796,-5.189 -7.293,-7.796 -2.1262,3.218 -3.7989,6.789 -4.8704,10.828 -1.1738,4.461 -5.7429,7.126 -10.2039,5.952 -4.4621,-1.174 -7.1261,-5.743 -5.9523,-10.205 1.8594,-7.019 4.9492,-13.041 8.9043,-18.353 l 0.3351,-0.445 c -9.3066,-9.774 -17.8253,-19.454 -22.1367,-28.637 -9.5324,17.913 -13.9211,35.537 -14.3761,51.233 0.339,0.057 0.6777,0.124 1.0168,0.194 4.2253,0.885 8.2675,2.778 12.2,5.248 3.8996,2.457 5.0714,7.61 2.6164,11.513 -2.4582,3.9 -7.6114,5.071 -11.5129,2.616 -1.036,-0.653 -2.0547,-1.229 -3.0418,-1.709 2.1121,11.698 6.666,21.565 12.955,28.617 2.1055,-3.338 4.9942,-6.116 8.825,-8.217 4.0461,-2.222 9.1262,-0.743 11.3489,3.302 2.2215,4.046 0.7429,9.128 -3.3028,11.35 -1.505,0.826 -2.5402,1.933 -3.2023,3.263 9.9707,3.84 21.8367,2.588 34.2957,-5.56 z m -47.1988,116.11 c -13.6797,16.196 -27.511,16.278 -39.0696,5.179 2.0118,-0.778 4.3106,-1.253 7.0071,-1.309 4.6062,-0.09 8.2683,-3.898 8.1785,-8.503 -0.0906,-4.606 -3.8992,-8.267 -8.5039,-8.176 -6.7012,0.142 -12.159,1.779 -16.8426,4.343 -3.0285,-5.408 -5.7734,-11.714 -8.1621,-18.792 1.0312,0.058 2.1141,0.173 3.2488,0.343 4.5703,0.687 8.8301,-2.46 9.5176,-7.031 0.6867,-4.569 -2.4617,-8.83 -7.032,-9.517 -3.6457,-0.549 -7.09886,-0.696 -10.3512,-0.431 -1.75586,-7.771 -3.13867,-16.151 -4.09063,-25.013 1.28594,0.068 2.60391,0.187 3.9586,0.363 4.56913,0.576 8.74293,-2.659 9.31993,-7.229 0.5781,-4.57 -2.657,-8.744 -7.22736,-9.321 -2.52265,-0.324 -4.95078,-0.504 -7.299996,-0.557 -1.13086,-26.5 1.468746,-56.244 9.169136,-86.477 3.62192,10.716 9.27232,21.831 15.81332,33.122 -1.1551,1.678 -2.2293,3.441 -3.1973,5.32 -2.9441,5.712 -4.7852,12.268 -4.7469,20.258 0.0184,4.606 3.7664,8.325 8.3711,8.307 4.6063,-0.018 8.325,-3.767 8.3074,-8.373 -0.0144,-3.329 0.4864,-6.245 1.3594,-8.861 6.4649,10.329 13.2031,20.712 19.377,30.984 -1.0028,0.426 -1.9942,0.86 -2.9727,1.304 -6.9043,3.123 -13.3242,6.711 -19.3926,10.631 -3.8836,2.492 -5.0117,7.662 -2.5175,11.544 2.4914,3.884 7.6621,5.012 11.5441,2.519 5.4168,-3.497 11.1238,-6.69 17.2344,-9.455 1.4695,-0.665 2.9597,-1.305 4.4707,-1.92 4.2265,7.874 7.8691,15.631 10.532,23.196 -2.7508,0.407 -5.493,1.093 -8.2215,2.064 -5.6867,2.024 -11.2765,5.305 -16.7617,9.923 -3.5227,2.961 -3.9746,8.219 -1.0129,11.74 2.9621,3.523 8.2199,3.976 11.7402,1.014 3.8633,-3.252 7.7305,-5.538 11.593,-6.914 2.2449,-0.797 4.5047,-1.282 6.7801,-1.465 1.8574,13.429 -0.6641,25.995 -10.1199,37.19 z M 206.68,564.258 c 16.766,11.519 33.364,9.27 45.723,-1.699 -1.714,0.052 -3.454,0.217 -5.216,0.48 -4.57,0.668 -8.815,-2.495 -9.483,-7.064 -0.67,-4.57 2.493,-8.817 7.063,-9.485 6.581,-0.985 13.078,-0.965 19.455,0.437 l 0.019,0.005 c 4.038,-7.839 6.825,-17.169 7.929,-27.488 -1.571,0.842 -3.072,1.811 -4.517,2.84 -3.756,2.674 -8.971,1.794 -11.643,-1.963 -2.674,-3.757 -1.795,-8.97 1.961,-11.644 3.978,-2.83 8.379,-5.39 13.483,-7.055 0.304,-0.1 0.611,-0.196 0.921,-0.289 -0.978,-12.36 -4.247,-25.561 -10.375,-38.924 -6.364,11.716 -19.63,24.242 -32.653,36.739 0.711,0.717 1.392,1.457 2.037,2.222 3.118,3.692 5.439,7.92 6.525,12.968 0.956,4.516 -1.929,8.952 -6.446,9.909 -4.513,0.957 -8.951,-1.927 -9.909,-6.443 -0.449,-2.095 -1.495,-3.948 -2.924,-5.641 -0.38,-0.451 -0.786,-0.89 -1.212,-1.322 -3.358,3.421 -6.527,6.82 -9.357,10.178 0.739,0.472 1.458,0.969 2.158,1.492 4.595,3.435 8.287,7.927 11.051,13.494 2.042,4.136 0.343,9.145 -3.793,11.186 -4.136,2.041 -9.145,0.343 -11.185,-3.795 -1.548,-3.117 -3.579,-5.606 -6.08,-7.476 -0.519,-0.387 -1.059,-0.75 -1.622,-1.089 -5.313,10.748 -4.499,20.778 8.09,29.427 v 0" /><path
       inkscape:connector-curvature="0"
       id="path84"
       style="fill:#3d742e;fill-opacity:1;fill-rule:evenodd;stroke:none;stroke-width:0.1"
       d="m 189.46,242.149 c -0.036,-4.569 8.805,-4.219 8.745,0 0.704,58.557 4.034,88.34 13.787,139.736 3.703,19.512 8.317,35.813 14.045,46.84 4.998,9.622 10.955,16.525 17.278,15.563 10.426,-1.585 24.703,-15.593 30.183,-23.742 9.859,-14.666 20.312,-41.737 24.283,-77.67 -2.755,35.502 -6.517,60.302 -20.421,80.982 -6.625,9.853 -20.03,25.433 -32.981,27.402 -10.685,1.626 -19.268,-5.369 -26.118,-18.558 -6.121,-11.781 -10.996,-28.909 -14.861,-49.274 -9.865,-51.993 -13.233,-82.332 -13.94,-141.279 z m -27.667,-17.652 c -0.248,81.687 0.618,141.993 6.982,221.734 6.691,83.815 21.035,138.21 47.403,121.809 24.532,-15.258 35.187,-44.747 37.644,-68.162 -5.799,25.016 -20.968,50.703 -43.051,64.438 -17.112,10.644 -27.225,-43.095 -33.258,-118.668 -6.358,-79.646 -7.221,-139.635 -6.973,-221.05 0.143,-3.713 -8.814,-4.056 -8.747,-0.101 z m -27.661,17.446 c -2.757,73.424 -8.904,113.45 -19.328,178.084 -2.499,-1.73 -5.168,-4.152 -8.026,-7.335 -25.7698,-21.957 -34.2444,-58.7 -37.9893,-72.913 2.2918,31.186 8.9832,53.615 31.5023,78.707 4.611,5.14 8.872,9 12.81,11.705 -1.688,9.706 -3.479,18.925 -5.38,27.549 -4.988,22.644 -10.6921,41.093 -17.1589,53.341 -5.6777,10.754 -11.6183,16.308 -17.75,14.975 -1.3742,-0.299 -2.8262,-0.931 -4.3547,-1.91 C 53.0035,514.225 39.1383,501.482 30.9438,480.479 19.398,450.885 14.6676,421.567 11.0191,389.946 c 1.8282,39.563 5.9832,70.061 14.6895,92.381 8.9305,22.886 20.9773,38.203 38.0957,49.191 2.4305,1.56 4.8484,2.588 7.2461,3.111 10.6094,2.306 19.6336,-4.938 27.2695,-19.398 6.8461,-12.965 12.8081,-32.152 17.9591,-55.536 1.76,-7.983 3.425,-16.47 5.004,-25.374 19.356,5.862 29.137,-21.95 33.567,-64.475 5.258,-50.462 2.721,-79.791 0.4,-136.749 -0.201,-2.978 -8.92,-3.132 -8.744,0.24 2.312,56.627 4.833,85.524 -0.376,135.514 -3.413,32.776 -10.232,55.273 -22.983,54.508 10.67,-65.314 16.939,-106.593 19.733,-181.004 0.083,-2.112 -8.588,-2.633 -8.748,-0.412 v 0" /></g></svg>