<?xml version="1.0" encoding="UTF-8" standalone="no"?>
<svg
   xmlns:dc="http://purl.org/dc/elements/1.1/"
   xmlns:cc="http://creativecommons.org/ns#"
   xmlns:rdf="http://www.w3.org/1999/02/22-rdf-syntax-ns#"
   xmlns:svg="http://www.w3.org/2000/svg"
   xmlns="http://www.w3.org/2000/svg"
   xmlns:sodipodi="http://sodipodi.sourceforge.net/DTD/sodipodi-0.dtd"
   xmlns:inkscape="http://www.inkscape.org/namespaces/inkscape"
   width="601.85938pt"
   height="559.13672pt"
   viewBox="0 0 601.85939 559.13671"
   version="1.2"
   id="svg126"
   sodipodi:docname="stationarybike.svg"
   inkscape:version="0.92.4 (5da689c313, 2019-01-14)">
  <metadata
     id="metadata130">
    <rdf:RDF>
      <cc:Work
         rdf:about="">
        <dc:format>image/svg+xml</dc:format>
        <dc:type
           rdf:resource="http://purl.org/dc/dcmitype/StillImage" />
        <dc:title></dc:title>
      </cc:Work>
    </rdf:RDF>
  </metadata>
  <sodipodi:namedview
     pagecolor="#ffffff"
     bordercolor="#666666"
     borderopacity="1"
     objecttolerance="10"
     gridtolerance="10"
     guidetolerance="10"
     inkscape:pageopacity="0"
     inkscape:pageshadow="2"
     inkscape:window-width="1920"
     inkscape:window-height="1017"
     id="namedview128"
     showgrid="false"
     fit-margin-top="0"
     fit-margin-left="0"
     fit-margin-right="0"
     fit-margin-bottom="0"
     inkscape:zoom="0.91"
     inkscape:cx="401.23999"
     inkscape:cy="328.59563"
     inkscape:window-x="-8"
     inkscape:window-y="-8"
     inkscape:window-maximized="1"
     inkscape:current-layer="svg126" />
  <defs
     id="defs11">
    <clipPath
       id="clip1">
      <path
         d="m 201,611 h 10 v 14.37891 h -10 z m 0,0"
         id="path2"
         inkscape:connector-curvature="0" />
    </clipPath>
    <clipPath
       id="clip2">
      <path
         d="m 405,611 h 10 v 14.37891 h -10 z m 0,0"
         id="path5"
         inkscape:connector-curvature="0" />
    </clipPath>
    <clipPath
       id="clip3">
      <path
         d="m 0,549 h 601.85937 v 11 H 0 Z m 0,0"
         id="path8"
         inkscape:connector-curvature="0" />
    </clipPath>
  </defs>
  <g
     style="clip-rule:nonzero"
     id="g69"
     clip-path="url(#clip3)">
    <path
       inkscape:connector-curvature="0"
       id="path67"
       d="m 300.92969,549.46875 c 166.19922,0 300.92968,2.16797 300.92968,4.83594 0,2.66797 -134.73046,4.83203 -300.92968,4.83203 C 134.73047,559.13672 0,556.97266 0,554.30469 c 0,-2.66797 134.73047,-4.83594 300.92969,-4.83594"
       style="fill:#2e2623;fill-opacity:1;fill-rule:evenodd;stroke:none" />
  </g>
  <path
     inkscape:connector-curvature="0"
     id="path71"
     d="m 170.47266,0 c 3.57031,0 6.46484,2.890625 6.46484,6.460938 0,3.570312 -2.89453,6.460937 -6.46484,6.460937 h -31.54297 c -2.96485,0 -5.66016,1.214844 -7.61328,3.167969 -1.95313,1.949219 -3.16407,4.644531 -3.16407,7.605469 v 21.5625 c 0,9.660156 1.79688,18.601562 5.34766,26.710937 3.55469,8.117188 8.89453,15.5 15.97656,22.035156 L 189.625,131.07422 h 35.10547 c 3.5664,0 6.46094,2.89453 6.46094,6.46094 0,3.57031 -2.89454,6.46484 -6.46094,6.46484 h -40.125 L 140.73828,103.49609 C 132.34375,95.742188 125.97266,86.90625 121.6875,77.117188 117.40234,67.324219 115.23047,56.660156 115.23047,45.257813 v -21.5625 c 0,-6.527344 2.66016,-12.453125 6.94922,-16.746094 C 126.47266,2.660156 132.39844,0 138.92969,0 h 31.54297"
     style="fill:#2e2623;fill-opacity:1;fill-rule:evenodd;stroke:none" />
  <path
     inkscape:connector-curvature="0"
     id="path73"
     d="m 152.10156,64.636719 97.9961,-3.625 42.6875,42.687501 -4.29297,8.25781 -140.6836,-39.062499 4.29297,-8.257812"
     style="fill:#eb3f1c;fill-opacity:1;fill-rule:evenodd;stroke:none" />
  <path
     inkscape:connector-curvature="0"
     id="path75"
     d="m 147.80859,72.894531 97.9961,-3.625 42.6875,42.687499 -96.78907,0.94141 -43.89453,-40.003909"
     style="fill:#cc2b21;fill-opacity:1;fill-rule:evenodd;stroke:none" />
  <path
     inkscape:connector-curvature="0"
     id="path77"
     d="m 371.21875,356.48047 25.48047,-43.4336 c 3.99609,-6.80859 6.98047,-13.53515 9.04687,-20.49609 2.07813,-6.98828 3.25782,-14.28516 3.63282,-22.22656 l 4.99218,-105.53125 42.50782,2 -4.99219,105.53515 c -0.53906,11.42188 -2.25391,22.00391 -5.29688,32.23047 -3.04687,10.25 -7.40625,20.08594 -13.21484,29.99219 l -25.48047,43.4375 -36.67578,-21.50781"
     style="fill:#d7c7c2;fill-opacity:1;fill-rule:evenodd;stroke:none" />
  <path
     inkscape:connector-curvature="0"
     id="path79"
     d="m 412.83984,197.14453 1.53125,-32.35156 42.50782,2 -2.70704,57.17187 c -1.42578,-27.19531 -36.41406,-39.89453 -41.33203,-26.82031"
     style="fill:#b0a19c;fill-opacity:1;fill-rule:evenodd;stroke:none" />
  <path
     inkscape:connector-curvature="0"
     id="path81"
     d="m 336.29297,554.30469 c -26.58203,0 -24.09766,-64.97266 2.53515,-64.97266 h 76.34375 v 64.97266 c -43.16796,0 -36.08593,0 -78.8789,0"
     style="fill:#2e2623;fill-opacity:1;fill-rule:evenodd;stroke:none" />
  <path
     inkscape:connector-curvature="0"
     id="path83"
     d="m 417.70703,489.33203 c 11.19531,0 19.70313,14.54297 19.00391,32.48438 -0.70313,17.9414 -10.34375,32.48828 -21.53907,32.48828 -11.19531,0 -19.70312,-14.54688 -19.0039,-32.48828 0.69922,-17.94141 10.34375,-32.48438 21.53906,-32.48438"
     style="fill:#453a3a;fill-opacity:1;fill-rule:evenodd;stroke:none" />
  <path
     inkscape:connector-curvature="0"
     id="path85"
     d="m 418.85156,541.6875 c -16.25781,0 -14.74219,-39.73828 1.55078,-39.73828 h 46.69532 v 39.73828 c -26.40625,0 -22.07422,0 -48.2461,0"
     style="fill:#d7c7c2;fill-opacity:1;fill-rule:evenodd;stroke:none" />
  <path
     inkscape:connector-curvature="0"
     id="path87"
     d="m 470.53125,554.30469 c -26.58203,0 -24.09766,-64.97266 2.53906,-64.97266 h 76.33985 v 64.97266 c -43.16797,0 -36.08204,0 -78.87891,0"
     style="fill:#2e2623;fill-opacity:1;fill-rule:evenodd;stroke:none" />
  <path
     inkscape:connector-curvature="0"
     id="path89"
     d="m 551.94922,489.33203 c 11.19531,0 19.70312,14.54297 19,32.48438 -0.69922,17.9414 -10.34375,32.48828 -21.53906,32.48828 -11.19141,0 -19.70313,-14.54688 -19,-32.48828 0.69921,-17.94141 10.34375,-32.48438 21.53906,-32.48438"
     style="fill:#453a3a;fill-opacity:1;fill-rule:evenodd;stroke:none" />
  <path
     inkscape:connector-curvature="0"
     id="path91"
     d="m 159.33984,374.24609 156.41797,-42.09765 c 7.66016,-2.0625 12.54688,-1.30078 20.19922,-0.85157 l 101.21484,-0.36718 -47.58203,46.48828 c 23.12891,58.71094 0.45703,152.1875 -68.07422,152.1875 H 163.875 c -72.515625,0 -77.308594,-135.77735 -4.53516,-155.35938"
     style="fill:#4aa3cc;fill-opacity:1;fill-rule:evenodd;stroke:none" />
  <path
     inkscape:connector-curvature="0"
     id="path93"
     d="m 267.80859,374.24609 156.41797,-42.09765 c 106.0625,-28.54688 110.1211,197.45703 5.75781,197.45703 H 272.33984 c -72.51562,0 -77.30468,-135.77344 -4.53125,-155.35938"
     style="fill:#5cbae1;fill-opacity:1;fill-rule:evenodd;stroke:none" />
  <path
     inkscape:connector-curvature="0"
     id="path95"
     d="m 279.89453,393.80469 c -50.69531,9.05859 -46.79297,115.93359 1.03516,115.93359 h 157.64843 c 9.53907,0 18.3125,-2.46094 26.1836,-7.91406 20.86328,-14.44531 29.46484,-44.9336 30.625,-68.9961 1.74219,-36.22265 -13.40235,-93.41406 -59.07422,-81.12109 l -156.41797,42.09766"
     style="fill:#6ecff0;fill-opacity:1;fill-rule:evenodd;stroke:none" />
  <path
     inkscape:connector-curvature="0"
     id="path97"
     d="m 450.5625,364.21875 c 22.39062,0 39.40625,29.08984 38.00391,64.97266 -1.39844,35.88281 -20.6836,64.97265 -43.07422,64.97265 -22.39063,0 -39.40625,-29.08984 -38.00391,-64.97265 1.39844,-35.88282 20.68359,-64.97266 43.07422,-64.97266"
     style="fill:#cceefa;fill-opacity:1;fill-rule:evenodd;stroke:none" />
  <path
     inkscape:connector-curvature="0"
     id="path99"
     d="m 53.90625,554.30469 c -26.585937,0 -24.101562,-64.97266 2.535156,-64.97266 h 76.343754 v 64.97266 c -43.171879,0 -36.085941,0 -78.87891,0"
     style="fill:#2e2623;fill-opacity:1;fill-rule:evenodd;stroke:none" />
  <path
     inkscape:connector-curvature="0"
     id="path101"
     d="m 135.32031,489.33203 c 11.19141,0 19.69922,14.54297 19,32.48438 -0.69922,17.9414 -10.34375,32.48828 -21.53515,32.48828 -11.19532,0 -19.70313,-14.54688 -19.00391,-32.48828 0.69922,-17.94141 10.34375,-32.48438 21.53906,-32.48438"
     style="fill:#453a3a;fill-opacity:1;fill-rule:evenodd;stroke:none" />
  <path
     inkscape:connector-curvature="0"
     id="path103"
     d="m 136.46094,541.6875 c -16.25781,0 -14.73828,-39.73828 1.55078,-39.73828 h 46.69922 v 39.73828 c -26.40625,0 -22.07422,0 -48.25,0"
     style="fill:#d7c7c2;fill-opacity:1;fill-rule:evenodd;stroke:none" />
  <path
     inkscape:connector-curvature="0"
     id="path105"
     d="m 448.02734,435.53516 c -3.5039,0 -6.34375,-2.83985 -6.34375,-6.34375 0,-3.50391 2.83985,-6.33985 6.34375,-6.33985 h 20.94532 c 1.3125,0 2.53515,0.39844 3.55078,1.08203 l 46.11718,26.62891 h 33.20704 c 3.5,0 6.33984,2.83984 6.33984,6.33984 0,3.50391 -2.83984,6.34375 -6.33984,6.34375 h -34.875 v -0.0156 c -1.07813,0.004 -2.17188,-0.27344 -3.17188,-0.85156 l -46.5,-26.84375 h -19.27344"
     style="fill:#f5fafd;fill-opacity:1;fill-rule:evenodd;stroke:none" />
  <path
     inkscape:connector-curvature="0"
     id="path107"
     d="m 530.85547,447.64453 h 29.80469 c 5.09375,0 9.25781,4.16406 9.25781,9.25781 0,5.09766 -4.16406,9.26563 -9.25781,9.26563 h -29.80469 c -5.09375,0 -9.26172,-4.16797 -9.26172,-9.26563 0,-5.09375 4.16797,-9.25781 9.26172,-9.25781"
     style="fill:#5cbae1;fill-opacity:1;fill-rule:evenodd;stroke:none" />
  <path
     inkscape:connector-curvature="0"
     id="path109"
     d="m 558.50781,447.64453 h 29.80469 c 5.09375,0 9.26172,4.16406 9.26172,9.25781 0,5.09766 -4.16797,9.26563 -9.26172,9.26563 h -29.80469 c -5.09375,0 -9.25781,-4.16797 -9.25781,-9.26563 0,-5.09375 4.16406,-9.25781 9.25781,-9.25781"
     style="fill:#cceefa;fill-opacity:1;fill-rule:evenodd;stroke:none" />
  <path
     inkscape:connector-curvature="0"
     id="path111"
     d="M 378.21484,153.63672 H 481.3125 c 6.05078,0 11.00781,4.95312 11.00781,11.00781 0,6.05469 -4.95703,11.00781 -11.00781,11.00781 H 378.21484 c -6.05468,0 -11.00781,-4.95312 -11.00781,-11.00781 0,-6.05469 4.95313,-11.00781 11.00781,-11.00781"
     style="fill:#453a3a;fill-opacity:1;fill-rule:evenodd;stroke:none" />
  <path
     inkscape:connector-curvature="0"
     id="path113"
     d="m 153.44531,102.82813 h 128.06641 v 7.51953 H 153.44531 v -7.51953"
     style="fill:#2e2623;fill-opacity:1;fill-rule:evenodd;stroke:none" />
  <path
     inkscape:connector-curvature="0"
     id="path115"
     d="M 133.87109,508.37891 129.60547,402.375 c -0.94531,-23.57031 -0.30078,-45.41406 2.09765,-66.98828 2.42188,-21.77344 6.58594,-43.24219 12.64844,-65.8711 l 48.94141,-182.660151 24.92969,0.179687 14.23437,10.285157 -48.94531,182.664057 c -5.5625,20.75391 -9.35938,40.26563 -11.53516,59.84375 -2.19922,19.76954 -2.79687,39.64844 -1.9414,60.96094 l 4.26562,106.00391 -40.42969,1.58594"
     style="fill:#d7c7c2;fill-opacity:1;fill-rule:evenodd;stroke:none" />
  <path
     inkscape:connector-curvature="0"
     id="path117"
     d="m 188.14453,554.30469 c -26.58203,0 -24.10156,-64.97266 2.53516,-64.97266 h 76.34375 v 64.97266 c -43.17188,0 -36.08594,0 -78.87891,0"
     style="fill:#2e2623;fill-opacity:1;fill-rule:evenodd;stroke:none" />
  <path
     inkscape:connector-curvature="0"
     id="path119"
     d="m 269.55859,489.33203 c 11.19532,0 19.70313,14.54297 19.00391,32.48438 -0.69922,17.9414 -10.34375,32.48828 -21.53906,32.48828 -11.19532,0 -19.70313,-14.54688 -19,-32.48828 0.69922,-17.94141 10.33984,-32.48438 21.53515,-32.48438"
     style="fill:#453a3a;fill-opacity:1;fill-rule:evenodd;stroke:none" />
  <path
     inkscape:connector-curvature="0"
     id="path121"
     d="m 188.80078,103.62891 20.75391,10.54297 9.64062,32.64843 13.26172,-49.499997 -14.23437,-10.285157 -24.92969,-0.179687 -4.49219,16.773441"
     style="fill:#b0a19c;fill-opacity:1;fill-rule:evenodd;stroke:none" />
  <path
     inkscape:connector-curvature="0"
     id="path123"
     d="m 202.32422,12.921875 c -3.56641,0 -6.46094,-2.890625 -6.46094,-6.460937 C 195.86328,2.890625 198.75781,0 202.32422,0 h 31.08984 c 6.53125,0 12.45703,2.660156 16.75,6.949219 4.28906,4.292969 6.94922,10.21875 6.94922,16.746094 v 21.5625 c 0,9.660156 1.79688,18.601562 5.34766,26.710937 3.55468,8.117188 8.89453,15.5 15.97656,22.035156 l 31.47656,29.066404 c 1.84375,1.69922 3.0625,3.84375 3.59766,6.16016 0.53125,2.30859 0.37109,4.76172 -0.53906,7.08984 -0.91407,2.33203 -2.46094,4.24219 -4.42188,5.58203 C 306.57812,143.25 304.23437,144 301.74609,144 h -31.48828 c -3.57031,0 -6.46484,-2.89453 -6.46484,-6.46484 0,-3.56641 2.89453,-6.46094 6.46484,-6.46094 h 29.31641 l -29.875,-27.57813 c -8.39844,-7.753902 -14.76563,-16.58984 -19.05078,-26.378902 -4.28516,-9.792969 -6.45703,-20.457032 -6.45703,-31.859375 v -21.5625 c 0,-2.960938 -1.21485,-5.65625 -3.16407,-7.605469 -1.95312,-1.953125 -4.64843,-3.167969 -7.61328,-3.167969 h -31.08984"
     style="fill:#2e2623;fill-opacity:1;fill-rule:evenodd;stroke:none" />
</svg>
