<svg xmlns="http://www.w3.org/2000/svg" viewBox="0 0 512.002 512.002"><path fill="#aaebf2" d="M54 64H502V448H54z"/><path d="M502.002,54.001h-448c-5.523,0-10,4.477-10,10v49.987c0,5.523,4.477,10,10,10s10-4.477,10-10V74.001h61v33	c0,5.523,4.477,10,10,10s10-4.477,10-10v-33h41v33c0,5.523,4.477,10,10,10s10-4.477,10-10v-33h41V405.26c0,5.523,4.477,10,10,10	c5.523,0,10-4.477,10-10V74.001h41v288.741c0,5.523,4.477,10,10,10s10-4.477,10-10V74.001h41V405.26c0,5.523,4.477,10,10,10	s10-4.477,10-10V74.001h42v288.741c0,5.523,4.477,10,10,10s10-4.477,10-10V74.001h41v364h-286v-33.259c0-5.523-4.477-10-10-10	s-10,4.477-10,10v33.259h-41v-33.259c0-5.523-4.477-10-10-10s-10,4.477-10,10v33.259h-61v-40.012c0-5.523-4.477-10-10-10	s-10,4.477-10,10v50.012c0,5.523,4.477,10,10,10h448c5.523,0,10-4.477,10-10v-384C512.002,58.478,507.525,54.001,502.002,54.001z"/><path d="M185.241 283.17c1.953 1.953 4.512 2.929 7.071 2.929s5.119-.976 7.071-2.929l20.105-20.105c3.905-3.905 3.905-10.237 0-14.142l-20.105-20.106c-3.905-3.905-10.237-3.905-14.142 0s-3.906 10.237 0 14.142l3.036 3.037h-3.504c-.047 0-.094 0-.142 0-10.22 0-20.418 2.45-29.499 7.089-12.771 6.525-28.023 6.525-40.794 0-18.47-9.435-40.522-9.435-58.992 0-12.771 6.524-28.022 6.524-40.794 0-4.92-2.513-10.942-.563-13.455 4.356-2.513 4.918-.562 10.942 4.356 13.455 18.47 9.435 40.522 9.434 58.992 0 12.771-6.524 28.023-6.524 40.795 0 9.235 4.717 19.365 7.076 29.496 7.076 10.13 0 20.261-2.359 29.496-7.076 6.306-3.221 13.387-4.898 20.52-4.899h3.523l-3.033 3.033C181.336 272.933 181.336 279.265 185.241 283.17zM105.24 351.187c9.235 4.717 19.365 7.076 29.496 7.076 10.13 0 20.261-2.359 29.496-7.076 6.306-3.221 13.387-4.885 20.52-4.899h3.523l-3.124 3.124c-3.905 3.905-3.905 10.237 0 14.143 1.953 1.953 4.512 2.929 7.071 2.929s5.119-.976 7.071-2.929l20.197-20.197c3.905-3.905 3.905-10.237 0-14.142l-20.197-20.197c-3.905-3.906-10.237-3.905-14.142 0s-3.906 10.237 0 14.142l3.128 3.128h-3.504c-.047 0-.094 0-.142 0-10.22 0-20.418 2.45-29.499 7.089-12.771 6.525-28.023 6.524-40.794 0-18.47-9.435-40.522-9.435-58.992 0-12.771 6.524-28.022 6.524-40.794 0-4.92-2.514-10.942-.563-13.455 4.356-2.513 4.918-.562 10.942 4.356 13.455 18.47 9.435 40.522 9.434 58.992 0C77.216 344.662 92.468 344.662 105.24 351.187zM5.453 190.193c18.469 9.435 40.521 9.436 58.992 0 12.772-6.524 28.023-6.524 40.795 0 9.236 4.718 19.364 7.077 29.496 7.077 10.129-.001 20.262-2.359 29.496-7.077 6.276-3.206 13.327-4.899 20.421-4.899.033 0 .066 0 .099 0h3.523l-2.536 2.536c-3.905 3.905-3.905 10.237 0 14.142 1.953 1.953 4.512 2.929 7.071 2.929s5.119-.977 7.071-2.929l19.608-19.608c3.905-3.905 3.905-10.237 0-14.142l-19.608-19.608c-3.905-3.905-10.237-3.905-14.143 0s-3.905 10.237 0 14.143l2.539 2.539h-3.504c-.047 0-.094 0-.141 0-10.221 0-20.419 2.45-29.5 7.088-12.772 6.525-28.023 6.524-40.794 0-18.469-9.435-40.522-9.435-58.992 0-12.772 6.524-28.021 6.525-40.794 0-4.92-2.513-10.942-.563-13.455 4.356S.534 187.68 5.453 190.193zM448.072 412.331c1.86-1.86 2.93-4.44 2.93-7.07s-1.07-5.21-2.93-7.07-4.44-2.93-7.07-2.93-5.21 1.07-7.07 2.93c-1.86 1.86-2.93 4.44-2.93 7.07s1.07 5.21 2.93 7.07c1.86 1.86 4.44 2.93 7.07 2.93S446.212 414.191 448.072 412.331zM325.072 412.331c1.86-1.86 2.93-4.44 2.93-7.07s-1.07-5.21-2.93-7.07-4.44-2.93-7.07-2.93-5.21 1.07-7.07 2.93c-1.86 1.86-2.93 4.44-2.93 7.07s1.07 5.21 2.93 7.07c1.86 1.86 4.44 2.93 7.07 2.93S323.212 414.191 325.072 412.331z"/></svg>