<svg xmlns="http://www.w3.org/2000/svg" viewBox="0 0 313.48 355.803"><g><g fill-rule="evenodd"><path d="m 345.656,344.187 53.778,34.954 c 13.435,8.733 29.942,8.152 42.254,-1.487 l 46.118,-36.108 c 12.782,-10.007 17.051,-26.77 10.728,-42.111 l -11.779,-28.574 c -3.722,-9.029 -3.869,-17.991 -0.445,-26.954 l 9.059,-23.703 c 5.072,-13.271 2.266,-27.597 -7.643,-38.207 l -47.817,-51.203 c -8.277,-8.864 -19.153,-13.53 -30.979,-11.914 l -104.154,14.238 c -10.569,1.443 -19.249,6.014 -25.383,14.62 -6.135,8.606 -8.062,18.446 -5.666,28.935 l 2.931,12.835 c 1.076,4.716 1.235,8.9 0.517,13.636 l -5.65,37.227 c -2.261,14.897 4.381,29.134 17.37,37.228 l 20.888,13.016 c 7.673,4.782 12.836,11.259 15.765,19.778 l 4.952,14.403 c 2.848,8.281 7.787,14.601 15.156,19.391" fill="#ebe8f6" transform="matrix(1.33333 0 0 -1.33333 -355.084 513.888)"/><path d="m 340.881,346.218 53.776,33.549 c 13.436,8.381 29.945,7.369 42.255,-2.591 l 46.117,-37.314 c 12.782,-10.341 17.052,-27.214 10.729,-42.39 L 481.98,269.205 c -3.722,-8.933 -3.871,-17.892 -0.446,-26.941 l 9.06,-23.943 c 5.072,-13.403 2.216,-27.605 -7.645,-38.006 L 438.942,133.89 c -8.235,-8.688 -19.099,-12.582 -30.979,-11.105 L 300,136.217 c -10.616,1.321 -19.249,6.518 -25.383,15.284 -6.135,8.766 -8.061,18.657 -5.666,29.084 l 2.931,12.758 c 1.076,4.687 1.235,8.868 0.517,13.622 l -5.65,37.374 c -2.261,14.957 4.381,29.02 17.37,36.775 l 20.889,12.471 c 7.673,4.581 12.836,10.922 15.764,19.365 l 4.953,14.274 c 2.847,8.207 7.786,14.397 15.156,18.994" fill="#b1adc6" transform="matrix(1.33333 0 0 -1.33333 -355.084 513.888)"/><path d="m 340.881,346.218 53.776,33.549 c 13.436,8.381 29.945,7.369 42.255,-2.591 l 37.298,-30.178 -34.653,11.246 c -9.841,3.194 -19.516,2.232 -28.536,-2.837 l -23.796,-13.375 c -10.956,-6.158 -17.47,-16.614 -18.167,-29.164 L 367.93,292.562 C 366.918,274.36 352.604,259.977 334.408,258.88 l -31.514,-1.902 c -17.101,-1.033 -30.769,-13.614 -33.211,-30.569 l -0.109,-0.758 -2.825,18.688 c -2.261,14.957 4.381,29.02 17.37,36.775 l 20.889,12.471 c 7.673,4.581 12.836,10.922 15.764,19.365 l 4.953,14.274 c 2.847,8.207 7.786,14.397 15.156,18.994" fill="#c4c1d6" transform="matrix(1.33333 0 0 -1.33333 -355.084 513.888)"/><path d="M 493.758,297.472 481.98,269.205 c -3.722,-8.933 -3.871,-17.892 -0.446,-26.941 l 9.06,-23.943 c 5.072,-13.403 2.216,-27.605 -7.645,-38.006 L 438.942,133.89 c -8.235,-8.688 -19.099,-12.582 -30.979,-11.105 L 300,136.217 c -10.616,1.321 -19.249,6.518 -25.383,15.284 -6.135,8.766 -8.061,18.657 -5.666,29.084 l 2.931,12.758 5.305,-6.677 c 6.994,-8.807 18.739,-11.598 28.948,-6.879 l 20.846,9.639 c 2.884,1.331 5.566,2.002 8.738,2.18 l 52.585,2.983 c 11.717,0.666 21.077,9.417 22.523,21.063 l 4.869,39.159 c 1.139,9.16 6.897,16.418 15.559,19.613 l 62.503,23.048" fill="#8785a8" transform="matrix(1.33333 0 0 -1.33333 -355.084 513.888)"/><path d="m 445.762,241.296 c 9.671,0 17.511,-6.592 17.511,-14.725 0,-8.133 -7.84,-14.724 -17.511,-14.724 -9.671,0 -17.511,6.591 -17.511,14.724 0,8.133 7.84,14.725 17.511,14.725 z m -59.896,-64.87 c 13.077,0 23.68,-7.661 23.68,-17.114 0,-9.452 -10.603,-17.113 -23.68,-17.113 -13.077,0 -23.679,7.661 -23.679,17.113 0,9.453 10.602,17.114 23.679,17.114 v 0" fill="#6f6e90" transform="matrix(1.33333 0 0 -1.33333 -355.084 513.888)"/><path d="m 370.346,246.47 c 9.779,0 17.709,-7.216 17.709,-16.118 0,-8.902 -7.93,-16.118 -17.709,-16.118 -9.782,0 -17.711,7.216 -17.711,16.118 0,8.902 7.929,16.118 17.711,16.118 z m 73.425,87.555 c 8.133,0 14.726,-6.147 14.726,-13.73 0,-7.584 -6.593,-13.73 -14.726,-13.73 -8.13,0 -14.724,6.146 -14.724,13.73 0,7.583 6.594,13.73 14.724,13.73 z M 296.52,227.366 c 7.034,0 12.735,-4.811 12.735,-10.744 0,-5.936 -5.701,-10.745 -12.735,-10.745 -7.034,0 -12.735,4.809 -12.735,10.745 0,5.933 5.701,10.744 12.735,10.744 v 0" fill="#8785a8" transform="matrix(1.33333 0 0 -1.33333 -355.084 513.888)"/><path d="m 348.058,318.106 c 5.605,0 10.149,-3.208 10.149,-7.164 0,-3.957 -4.544,-7.163 -10.149,-7.163 -5.605,0 -10.148,3.206 -10.148,7.163 0,3.956 4.543,7.164 10.148,7.164 z m 42.185,50.941 c 4.945,0 8.954,-2.672 8.954,-5.97 0,-3.297 -4.009,-5.969 -8.954,-5.969 -4.944,0 -8.953,2.672 -8.953,5.969 0,3.298 4.009,5.97 8.953,5.97 z m -67.655,-81.984 c -4.067,0 -7.362,-2.227 -7.362,-4.974 0,-2.747 3.295,-4.976 7.362,-4.976 4.065,0 7.363,2.229 7.363,4.976 0,2.747 -3.298,4.974 -7.363,4.974 v 0" fill="#b1adc6" transform="matrix(1.33333 0 0 -1.33333 -355.084 513.888)"/></g></g></svg>