<svg xmlns="http://www.w3.org/2000/svg" viewBox="0 0 529 583" version="1.0"><defs><linearGradient id="a" gradientUnits="userSpaceOnUse" gradientTransform="matrix(95.248 78.09 78.09 -95.248 393.99 212.78)"><stop offset="0" stop-color="#231f20"/><stop offset=".264" stop-color="#6d6a6b"/><stop offset=".528" stop-color="#231f20"/><stop offset=".781" stop-color="#6d6a6b"/><stop offset="1" stop-color="#231f20"/></linearGradient><linearGradient id="b" gradientUnits="userSpaceOnUse" gradientTransform="matrix(96.214 78.883 78.883 -96.214 250.38 388.38)"><stop offset="0" stop-color="#834908"/><stop offset=".084" stop-color="#a35d0a"/><stop offset=".247" stop-color="#ecb986"/><stop offset=".494" stop-color="#a35d0a"/><stop offset=".775" stop-color="#ecb986"/><stop offset=".938" stop-color="#a35d0a"/><stop offset=".972" stop-color="#834908"/><stop offset="1" stop-color="#834908"/></linearGradient><linearGradient id="c" gradientUnits="userSpaceOnUse" gradientTransform="matrix(96.345 78.989 78.989 -96.345 311.2 314.2)"><stop offset="0" stop-color="#231f20"/><stop offset=".236" stop-color="#6d6a6b"/><stop offset=".5" stop-color="#231f20"/><stop offset=".764" stop-color="#6d6a6b"/><stop offset=".983" stop-color="#231f20"/><stop offset="1" stop-color="#231f20"/></linearGradient><linearGradient id="d" gradientUnits="userSpaceOnUse" gradientTransform="matrix(101.3 70.933 70.933 -101.3 96.456 576.92)"><stop offset="0" stop-color="#905109"/><stop offset=".247" stop-color="#ecb986"/><stop offset=".494" stop-color="#7a4407"/><stop offset=".775" stop-color="#ecb986"/><stop offset=".921" stop-color="#905109"/><stop offset="1" stop-color="#905109"/></linearGradient><linearGradient id="f" gradientUnits="userSpaceOnUse" gradientTransform="matrix(47.743 39.143 39.143 -47.743 122.26 594.75)"><stop offset="0" stop-color="#504c4d"/><stop offset=".202" stop-color="#fff"/><stop offset=".506" stop-color="#747272"/><stop offset=".764" stop-color="#fff"/><stop offset="1" stop-color="#504c4d"/></linearGradient><linearGradient id="g" gradientUnits="userSpaceOnUse" gradientTransform="scale(59.8 -59.8) rotate(-39.347 -12.982 -7.814)"><stop offset="0" stop-color="#504c4d"/><stop offset=".315" stop-color="#fff"/><stop offset="1" stop-color="#504c4d"/></linearGradient><linearGradient id="h" gradientUnits="userSpaceOnUse" gradientTransform="matrix(13.008 10.665 10.665 -13.008 128.8 622.17)"><stop offset="0" stop-color="#504c4d"/><stop offset=".236" stop-color="#fff"/><stop offset=".494" stop-color="#504c4d"/><stop offset=".753" stop-color="#fff"/><stop offset="1" stop-color="#504c4d"/></linearGradient><linearGradient id="j" gradientUnits="userSpaceOnUse" gradientTransform="matrix(28.336 23.231 23.231 -28.336 124.67 609.8)"><stop offset="0" stop-color="#504c4d"/><stop offset=".388" stop-color="#fff"/><stop offset="1" stop-color="#504c4d"/></linearGradient><linearGradient id="k" gradientUnits="userSpaceOnUse" gradientTransform="matrix(95.34 80 80 -95.34 222.13 422.68)"><stop offset="0" stop-color="#155375"/><stop offset=".185" stop-color="#28a4dc"/><stop offset=".781" stop-color="#28a4dc"/><stop offset=".927" stop-color="#155375"/><stop offset="1" stop-color="#155375"/></linearGradient><filter id="e"><feGaussianBlur stdDeviation=".591"/></filter><filter id="i"><feGaussianBlur stdDeviation=".301"/></filter><filter id="m"><feGaussianBlur stdDeviation="2.097"/></filter><filter id="n"><feGaussianBlur stdDeviation="1.299"/></filter><filter id="o"><feGaussianBlur stdDeviation="2.424"/></filter><clipPath id="l" clipPathUnits="userSpaceOnUse"><path d="m429 221h85v86h-85v-86z"/></clipPath></defs><g><g><g><g><g><g><path d="m489.24 290.87c8.46-10.32-6-36.17-32.3-57.73-26.31-21.57-54.49-30.68-62.95-20.36s6 36.17 32.3 57.73c26.3 21.57 54.48 30.68 62.95 20.36" fill="url(#a)" transform="matrix(1.25 0 0 -1.25 -104.37 827.12)"/></g></g></g></g><g><g><g><g><path d="m482.97 298.69c4.2-5.13-1.67-16.89-1.67-16.89s-22.61-48.92-76.56-62.77c0 0-12.68-3.45-16.89 1.67l-288.77 352.48s95.21 78.93 95.81 78.99c0.6 0.05 288.08-353.48 288.08-353.48" fill="url(#b)" transform="matrix(1.25 0 0 -1.25 -104.37 827.12)"/></g></g></g></g><g><g><g><g><path d="m489.85 290.3c1.26-5.88-4.67-13.23-4.67-13.23s-28.48-41.76-76.56-62.77c0 0-11.34-5.09-13.89-1.99l-175.68 214.29 95.5 78.04c2.71 1.43 175.3-214.34 175.3-214.34" fill="url(#c)" transform="matrix(1.25 0 0 -1.25 -104.37 827.12)"/></g></g></g></g><g><g><g><g><path d="m195.08 651.67c4.08-4.98-13.96-26.52-40.3-48.12-26.33-21.59-51.61-35.35-55.7-30.37-4.085 4.99 14.57 26.82 40.91 48.42 26.34 21.59 51 35.06 55.09 30.07" fill="url(#d)" transform="matrix(1.25 0 0 -1.25 -104.37 827.12)"/></g></g></g></g><path d="m173.21 276.65c-2.73 9.16 3.1 11.9 8.93 11.43 21.49-10.9 41.01-27.86 54.29-44.47 0.95-7.26-2.92-10.24-10.54-9.46-16.66 15.59-32.97 31.37-52.68 42.5z" transform="matrix(.97634 0 0 .986 -121.664 -198.918)" filter="url(#e)" fill-rule="evenodd" fill="#575757" fill-opacity=".647"/><g><g><g><g><path d="m170.62 633.13c2.03-2.21-7.19-13-20.36-23.8-13.16-10.8-25.08-17.77-27.33-15.3-9.14 9.32 6.95 11.51 20.36 23.81 13.17 10.79 19.28 24.85 27.33 15.29" fill="url(#f)" transform="matrix(1.25 0 0 -1.25 -104.37 827.12)"/></g></g></g></g><g><g><g><g><path d="m166.52 636.02c1.87-2.27-6.96-12.61-19.74-23.08-12.76-10.47-24.63-17.11-26.5-14.83s6.97 12.61 19.74 23.08 24.64 17.11 26.5 14.83" fill="url(#g)" transform="matrix(1.25 0 0 -1.25 -104.37 827.12)"/></g></g></g></g><g><g><g><g><path d="m141.8 632.84c0.53-0.64-1.96-3.55-5.55-6.49-3.59-2.95-6.93-4.82-7.45-4.17-0.53 0.64 1.96 3.54 5.55 6.49 3.59 2.94 6.93 4.81 7.45 4.17" fill="url(#h)" transform="matrix(1.25 0 0 -1.25 -104.37 827.12)"/></g></g></g></g><path d="m184.95 259.12c8.27-4.26 13.64-9.34 19.29-16.96 5.65-1.61 10.06-0.36 12.68 2.68-7.74 9.46-17.27 18.21-29.65 24.64-2.91-1.49-2.79-6.91-2.32-10.36z" transform="matrix(1.1763 0 0 1.1712 -163.741 -244.923)" filter="url(#i)" fill-rule="evenodd" fill="#575757" fill-opacity=".647"/><g><g><g><g><path d="m128.58 622.37c-2.93-3.26-3.91-8.37-1.64-15.35 4.95-2.62 29 17.74 28.71 22.78-5.49 5.95-14.82 3.7-14.18 3.14 1.53-1.34-11.93-12.8-12.89-10.57" fill="url(#j)" transform="matrix(1.25 0 0 -1.25 -104.37 827.12)"/></g></g></g></g><g><g><g><g><path d="m208 440.33c2.48-3.38 20.52-25.69 21.57-26.23 18.05-2.16 93.94 57.51 95.62 79.09 0.01-0.01-18.29 21.89-20.63 24.88-0.59-18.05-75.07-80.84-96.56-77.74" fill="url(#k)" transform="matrix(1.25 0 0 -1.25 -104.37 827.12)"/></g></g></g></g><path d="m411.01 402.83c1.39-3.07 8.08 0.93 6.06 4.04-29.97 37.04-61.58 70.29-111.12 88.39-3.03 0.93-6.56-3.83-3.03-5.55 39.57-18.86 84.69-47.82 108.09-86.88z" filter="url(#m)" fill-rule="evenodd" fill="#fff" fill-opacity=".597" transform="translate(-127.26 -200.68)"/><path d="m315.29 465.22l19.28-1.43 25.72-17.14-9.29 26.43 17.14 10.71-27.14 2.14-7.14 26.43-7.15-20-20.71-0.71 7.86-12.86 1.43-13.57z" filter="url(#n)" fill-rule="evenodd" fill="#fff" fill-opacity=".823" transform="translate(-127.26 -200.68)"/><path transform="rotate(49.874 152.169 -237.188)" d="m631.14 9.3898v21.367h12.66c4.25 0 7.38-0.872 9.41-2.617 2.06-1.771 3.09-4.466 3.09-8.086 0-3.646-1.03-6.328-3.09-8.047-2.03-1.745-5.16-2.6172-9.41-2.6172h-12.66m0-23.985v17.578l11.68 0.0005c3.86 0.0001 6.72-0.7161 8.6-2.1484 1.9-1.4583 2.85-3.6718 2.85-6.6406 0-2.9427-0.95-5.1435-2.85-6.6015-1.88-1.458-4.74-2.188-8.6-2.188h-11.68m-7.89-6.484h20.16c6.02 0 10.65 1.25 13.91 3.75 3.25 2.5 4.88 6.055 4.88 10.664 0 3.5679-0.83 6.4064-2.5 8.5157-1.67 2.1094-4.12 3.4245-7.34 3.9453 3.88 0.8334 6.88 2.5782 9.02 5.234 2.16 2.631 3.24 5.925 3.24 9.883 0 5.209-1.77 9.232-5.31 12.071-3.54 2.838-8.58 4.257-15.12 4.257h-20.94v-58.32m74.42 36.328c-5.81 0-9.83 0.664-12.07 1.992s-3.36 3.594-3.36 6.797c0 2.552 0.83 4.584 2.5 6.094 1.69 1.484 3.98 2.227 6.87 2.227 3.99 0 7.18-1.407 9.57-4.219 2.43-2.839 3.64-6.602 3.64-11.289v-1.602h-7.15m14.33-2.969v24.961h-7.18v-6.64c-1.64 2.656-3.69 4.622-6.14 5.898-2.44 1.25-5.44 1.875-8.98 1.875-4.48 0-8.05-1.25-10.7-3.75-2.63-2.526-3.95-5.898-3.95-10.117 0-4.922 1.64-8.633 4.92-11.133 3.31-2.5 8.23-3.7498 14.77-3.7498h10.08v-0.7032c0-3.3072-1.1-5.8593-3.28-7.6562-2.17-1.8229-5.21-2.7343-9.15-2.7344-2.5 0.0001-4.93 0.2995-7.3 0.89845-2.37 0.599-4.65 1.4974-6.84 2.6954v-6.6407c2.63-1.0155 5.19-1.7708 7.66-2.2656 2.47-0.5208 4.88-0.7812 7.23-0.7812 6.32 0 11.05 1.6406 14.18 4.9218 3.12 3.2813 4.68 8.2553 4.68 14.922m21.96-31.211v12.422l14.8 0.0004v5.5859l-14.8-0.00001v23.75c0 3.568 0.48 5.86 1.44 6.875 0.99 1.016 2.98 1.524 5.98 1.524h7.38v6.015h-7.38c-5.55 0-9.38-1.028-11.49-3.086-2.1-2.083-3.16-5.859-3.16-11.328v-23.75l-5.27 0.00029v-5.5859h5.27v-12.422h7.23m31.4 0v12.422l14.81 0.0004v5.5859l-14.81-0.00001v23.75c0 3.568 0.49 5.86 1.45 6.875 0.99 1.016 2.98 1.524 5.98 1.524h7.38v6.015h-7.38c-5.55 0-9.38-1.028-11.49-3.086-2.11-2.083-3.16-5.859-3.16-11.328v-23.75l-5.28 0.00029v-5.5859h5.28v-12.422h7.22m61.72 32.5v3.516h-33.04c0.31 4.948 1.79 8.724 4.45 11.328 2.68 2.578 6.4 3.867 11.17 3.867 2.76 0 5.43-0.338 8.01-1.015 2.6-0.677 5.18-1.693 7.73-3.047v6.797c-2.58 1.094-5.22 1.927-7.93 2.5s-5.45 0.859-8.24 0.859c-6.98 0-12.51-2.031-16.6-6.094-4.06-4.062-6.09-9.557-6.09-16.484 0-7.1614 1.92-12.838 5.78-17.031 3.88-4.2189 9.1-6.3283 15.66-6.3283 5.89 0 10.53 1.901 13.95 5.7031 3.43 3.7761 5.15 8.9193 5.15 15.429m-7.19-2.109c-0.05-3.9322-1.15-7.0702-3.32-9.414-2.13-2.3437-4.97-3.5155-8.51-3.5156-4.01 0.0001-7.23 1.1329-9.65 3.3985-2.4 2.2656-3.78 5.4557-4.14 9.5701l25.62-0.039m44.34-11.25c-0.81-0.46871-1.69-0.80725-2.66-1.0156-0.93-0.2344-1.97-0.3515-3.12-0.3516-4.06 0.0001-7.19 1.3282-9.38 3.9844-2.16 2.6302-3.24 6.4193-3.24 11.367v23.047h-7.22v-43.75l7.22 0.0004v6.7968c1.51-2.6562 3.48-4.6223 5.9-5.8984 2.42-1.302 5.37-1.9531 8.83-1.9531 0.49 0 1.04 0.0391 1.64 0.1172 0.6 0.0521 1.26 0.1432 1.99 0.2734l0.04 7.3828m25.82 41.094c-2.03 5.208-4.01 8.607-5.94 10.195-1.92 1.589-4.5 2.383-7.73 2.383h-5.74v-6.016h4.22c1.97 0 3.51-0.468 4.6-1.406 1.1-0.937 2.31-3.151 3.64-6.641l1.29-3.281-17.7-43.047 7.62 0.0004 13.67 34.219 13.67-34.219 7.62 0.0004-19.22 47.813" filter="url(#o)"/><path d="m395.58 486.64l-16.34 13.77 8.16 9.68c2.73 3.24 5.42 5.08 8.06 5.51 2.68 0.43 5.41-0.52 8.18-2.85 2.78-2.35 4.17-4.87 4.16-7.55 0.02-2.67-1.33-5.64-4.07-8.88l-8.15-9.68m18.34-15.46l-13.44 11.33 7.52 8.93c2.49 2.95 4.88 4.68 7.18 5.19 2.34 0.51 4.65-0.19 6.92-2.1 2.25-1.9 3.32-4.04 3.21-6.44-0.09-2.37-1.38-5.03-3.87-7.98l-7.52-8.93m-0.13-10.21l12.99 15.41c3.88 4.6 5.91 8.95 6.09 13.05 0.19 4.1-1.48 7.64-5 10.61-2.73 2.3-5.44 3.49-8.13 3.58-2.68 0.08-5.27-0.94-7.75-3.08 1.87 3.51 2.47 6.93 1.82 10.28-0.62 3.34-2.44 6.29-5.47 8.84-3.98 3.36-8.2 4.6-12.65 3.72-4.46-0.88-8.79-3.82-13-8.81l-13.49-16.01 44.59-37.59m20.18 80.31c-3.74-4.44-6.84-7.09-9.3-7.94-2.46-0.86-4.92-0.26-7.37 1.81-1.95 1.64-2.96 3.59-3.04 5.84-0.05 2.25 0.86 4.48 2.72 6.69 2.57 3.05 5.7 4.58 9.4 4.6 3.73 0.02 7.39-1.48 10.97-4.5l1.23-1.03-4.61-5.47m11.51 9.05l-19.09 16.09-4.63-5.5 5.08-4.28c-3.09 0.46-5.91 0.16-8.46-0.89-2.54-1.06-4.95-2.95-7.23-5.66-2.88-3.42-4.23-6.96-4.03-10.6 0.24-3.64 1.97-6.82 5.19-9.53 3.77-3.18 7.66-4.31 11.69-3.42 4.04 0.92 8.17 3.88 12.38 8.88l6.5 7.7 0.54-0.45c2.52-2.13 3.77-4.61 3.73-7.44 0.01-2.83-1.26-5.75-3.8-8.75-1.61-1.92-3.41-3.58-5.39-5.01-1.99-1.43-4.14-2.59-6.47-3.49l5.08-4.28c2.47 1.36 4.69 2.82 6.67 4.39 1.99 1.56 3.74 3.23 5.25 5.03 4.08 4.83 5.87 9.51 5.38 14.01-0.5 4.5-3.29 8.9-8.39 13.2m38.01-3.33l-9.5 8.01 9.54 11.32-4.27 3.6-9.54-11.32-18.16 15.3c-2.73 2.3-4.17 4.15-4.32 5.54-0.14 1.41 0.75 3.26 2.68 5.55l4.76 5.65-4.6 3.87-4.76-5.64c-3.57-4.24-5.25-7.83-5.04-10.77 0.24-2.96 2.44-6.2 6.62-9.72l18.16-15.31-3.39-4.03 4.27-3.6 3.4 4.03 9.49-8 4.66 5.52m20.24 24.02l-9.5 8 9.55 11.32-4.28 3.6-9.54-11.32-18.16 15.31c-2.73 2.3-4.17 4.14-4.32 5.53-0.14 1.42 0.75 3.27 2.68 5.56l4.76 5.64-4.6 3.88-4.76-5.65c-3.57-4.24-5.25-7.83-5.04-10.77 0.24-2.95 2.44-6.19 6.63-9.72l18.16-15.3-3.4-4.04 4.27-3.6 3.4 4.04 9.49-8.01 4.66 5.53m14.93 68.13l-2.69 2.27-21.3-25.27c-3.58 3.43-5.51 7-5.79 10.71-0.24 3.71 1.17 7.39 4.24 11.03 1.78 2.11 3.76 3.93 5.94 5.47 2.2 1.55 4.63 2.87 7.31 3.95l-5.19 4.38c-2.5-1.27-4.84-2.75-7.02-4.45-2.19-1.7-4.18-3.62-5.97-5.75-4.5-5.34-6.51-10.88-6.04-16.62 0.48-5.73 3.38-10.82 8.67-15.28 5.48-4.62 11.06-6.81 16.75-6.56 5.73 0.25 10.71 2.88 14.94 7.9 3.79 4.5 5.33 9.28 4.62 14.34-0.67 5.06-3.49 9.69-8.47 13.88m-3.02-6.85c2.97-2.58 4.66-5.44 5.06-8.61 0.41-3.14-0.52-6.07-2.8-8.77-2.59-3.07-5.53-4.8-8.82-5.19-3.28-0.37-6.6 0.63-9.99 3l16.55 19.57m37.17 26.65c-0.16-0.92-0.47-1.82-0.93-2.69-0.43-0.87-1.01-1.74-1.75-2.61-2.61-3.11-5.64-4.64-9.09-4.6-3.4 0.04-6.99 1.65-10.78 4.84l-17.62 14.86-4.66-5.53 33.46-28.2 4.65 5.53-5.19 4.38c3-0.56 5.77-0.32 8.31 0.71 2.55 1.01 4.95 2.84 7.18 5.49 0.32 0.38 0.64 0.82 0.97 1.33 0.35 0.49 0.7 1.06 1.07 1.7l-5.62 4.79m-14.78 46.22c-5.29 1.81-9.16 2.49-11.62 2.04s-4.72-1.91-6.81-4.38l-3.7-4.39 4.6-3.88 2.72 3.23c1.28 1.51 2.63 2.38 4.05 2.61 1.42 0.24 3.89-0.26 7.42-1.5l3.34-1.13 21.51-41.27 4.91 5.82-17.36 32.51 34.98-11.6 4.91 5.83-48.95 16.11" fill="#fff" transform="translate(-127.26 -200.68)"/></g></g></svg>