<svg xmlns="http://www.w3.org/2000/svg" viewBox="0 0 610.83 431.907" width="610.83" height="431.907"><g><path fill="#000820" stroke="#000820" stroke-width="2.751" d="M314.109 353.317H922.1879999999999V782.473H314.109z" transform="translate(-312.734 -351.941)"/><path d="m 369.92071,731.03169 -2.50677,8.15818 -5.319,-6.67443 -8.53352,0.13693 4.70409,-7.12118 -2.76723,-8.07355 8.22629,2.2733 6.82328,-5.12666 0.38003,8.52616 6.98425,4.9051 z" fill="#ff0" stroke="#000820" stroke-width=".326" transform="translate(-312.734 -351.941)"/><path d="m 823.63885,411.62158 -2.70854,8.8148 -5.74711,-7.21163 -9.22035,0.14795 5.08271,-7.69434 -2.98996,-8.72336 8.8884,2.45626 7.37246,-5.53928 0.41062,9.2124 7.54639,5.29989 z" fill="#ff0" stroke="#000820" stroke-width=".353" transform="translate(-312.734 -351.941)"/><path d="M453.906 479.80135l-2.50677 8.15817-5.319-6.67443-8.53352.13693 4.70409-7.12118-2.76723-8.07354 8.22629 2.27329 6.82328-5.12665.38004 8.52615 6.98424 4.9051zM842.16904 745.92604l-2.50678 8.15818-5.319-6.67443-8.53352.13693 4.70409-7.12118-2.76722-8.07355 8.22629 2.27329 6.82327-5.12665.38004 8.52615 6.98424 4.9051z" fill="#ff0" stroke="#000820" stroke-width=".326" transform="translate(-312.734 -351.941)"/><path d="m 661.30376,451.74271 -1.69973,5.53167 -3.60656,-4.52561 -5.78618,0.0928 3.18962,-4.82854 -1.87632,-5.47429 5.57786,1.54141 4.62654,-3.47614 0.25768,5.78118 4.73569,3.32592 z" fill="#ff0" stroke="#000820" stroke-width=".221" transform="translate(-312.734 -351.941)"/><path d="m 622.71829,723.08534 -2.50677,8.15818 -5.319,-6.67443 -8.53352,0.13693 4.70409,-7.12118 -2.76723,-8.07355 8.22629,2.2733 6.82328,-5.12666 0.38003,8.52616 6.98425,4.9051 z" fill="#ff0" stroke="#000820" stroke-width=".326" transform="translate(-312.734 -351.941)"/><path d="m 365.15959,387.11026 -1.09449,3.56197 -2.32235,-2.91414 -3.72586,0.0598 2.05388,-3.10921 -1.20822,-3.52502 3.59172,0.99255 2.97914,-2.23837 0.16592,3.72264 3.04942,2.14164 z" fill="#ff0" stroke="#000820" stroke-width=".142" transform="translate(-312.734 -351.941)"/><path d="m 380.42685,593.99904 -2.50678,8.15817 -5.319,-6.67442 -8.53352,0.13693 4.7041,-7.12118 -2.76723,-8.07355 8.22629,2.27329 6.82328,-5.12665 0.38003,8.52615 6.98425,4.9051 z" fill="#ff0" stroke="#000820" stroke-width=".326" transform="translate(-312.734 -351.941)"/><path d="m 529.99574,641.3183 -1.09449,3.56197 -2.32235,-2.91415 -3.72586,0.0598 2.05388,-3.10921 -1.20821,-3.52502 3.59171,0.99255 2.97914,-2.23837 0.16593,3.72264 3.04942,2.14164 z" fill="#ff0" stroke="#000820" stroke-width=".142" transform="translate(-312.734 -351.941)"/><path d="m 390.21826,372.69802 c -5.29313,-0.73647 -10.49918,-0.70594 -15.53517,-0.004 22.0989,9.7237 36.02505,33.01774 32.57312,57.82791 -3.45182,24.80844 -23.20407,43.36252 -47.11513,46.68618 4.65474,2.0516 9.65056,3.50052 14.94601,4.23728 30.41325,4.23171 58.47453,-16.65601 62.64796,-46.68269 4.17785,-30.0261 -17.10586,-57.83372 -47.51911,-62.06752 z" fill="#ffdc18" stroke="#f1dd0d" stroke-width="6.597" transform="translate(-312.734 -351.941)"/><path d="m 649.66416,381.79683 -1.17184,3.8137 -2.48648,-3.12009 -3.98917,0.064 2.19903,-3.32895 -1.2936,-3.77415 3.84555,1.0627 3.18968,-2.39656 0.17766,3.98573 3.26493,2.29299 z" fill="#ff0" stroke="#000820" stroke-width=".153" transform="translate(-312.734 -351.941)"/><path d="m 549.20072,440.47093 -0.69814,2.27207 -1.48135,-1.85884 -2.37659,0.0381 1.31009,-1.98325 -0.77067,-2.2485 2.29103,0.63312 1.90029,-1.42778 0.10584,2.37454 1.94512,1.36608 z" fill="#ff0" stroke="#000820" stroke-width=".091" transform="translate(-312.734 -351.941)"/><path d="m 851.08154,505.90689 -2.70854,8.8148 -5.74711,-7.21163 -9.22036,0.14795 5.08272,-7.69434 -2.98996,-8.72336 8.8884,2.45626 7.37246,-5.53928 0.41062,9.21239 7.54639,5.2999 z" fill="#ff0" stroke="#000820" stroke-width=".353" transform="translate(-312.734 -351.941)"/><path d="m 605.30673,567.92159 -2.50677,8.15817 -5.319,-6.67443 -8.53352,0.13693 4.70409,-7.12118 -2.76723,-8.07354 8.22629,2.27329 6.82328,-5.12666 0.38003,8.52616 6.98425,4.9051 z" fill="#ff0" stroke="#000820" stroke-width=".326" transform="translate(-312.734 -351.941)"/><path d="m 751.32954,670.56287 -1.09449,3.56197 -2.32235,-2.91415 -3.72586,0.0598 2.05388,-3.10921 -1.20821,-3.52502 3.59171,0.99255 2.97914,-2.23837 0.16593,3.72264 3.04942,2.14163 z" fill="#ff0" stroke="#000820" stroke-width=".142" transform="translate(-312.734 -351.941)"/><path d="m 728.42111,550.55934 -2.50678,8.15818 -5.319,-6.67443 -8.53352,0.13693 4.7041,-7.12118 -2.76723,-8.07355 8.22629,2.2733 6.82328,-5.12666 0.38003,8.52615 6.98425,4.9051 z" fill="#ff0" stroke="#000820" stroke-width=".326" transform="translate(-312.734 -351.941)"/><path d="m 857.2125,621.7704 -0.69814,2.27207 -1.48135,-1.85884 -2.37659,0.0381 1.31009,-1.98325 -0.77067,-2.2485 2.29103,0.63312 1.90029,-1.42778 0.10584,2.37454 1.94512,1.36608 z" fill="#ff0" stroke="#000820" stroke-width=".091" transform="translate(-312.734 -351.941)"/></g></svg>