<svg xmlns="http://www.w3.org/2000/svg" viewBox="0 0 313.77 347.92" version="1.0"><g><g><path d="m548.27 703.58v-251.59h-286.1v251.59h286.1zm0.03-251.51l22.53-90.29 0.05 206.43-22.64 135.32m22.64-341.83h-270.04l-38.74 89.88 286.21 0.48" stroke-linejoin="round" fill-rule="evenodd" stroke="#ba925b" stroke-linecap="round" stroke-width="5" fill="#ae8858" transform="translate(-259.608 -358.17)"/><path d="m404.67 453.93l26.62-94.27" stroke="#9c7a4d" stroke-width="3" fill="none" transform="translate(-259.608 -358.17)"/><path d="m265.68 453.49l279.09 0.08" stroke-linejoin="bevel" stroke="#9c7a4d" stroke-linecap="square" stroke-width="2" fill="none" transform="translate(-259.608 -358.17)"/><path d="m381.36 452.57l-0.09 30.93 4.99-3.95 4.98 3.95 4.9-3.78 5.15 3.69 5.07-3.86 4.81 3.95 5.07-3.87 4.98 3.87 5.07-3.78 4.99 3.95-0.09-31.1 0.1-0.01 18.01-93.31-34.76-0.09-33.18 93.41z" opacity=".7" fill-rule="evenodd" fill="#bc956c" transform="translate(-259.608 -358.17)"/><path d="m545.54 613.4c0-83.86 0.13-74.94 0.13-158.81h-280.89v159.71c104.89-71.08 180.19-68.22 280.76-0.9zm5.16-160.93c7.51-30.1 10.18-39.79 17.68-69.89-8.61 79.53-10.04 190.21-17.54 235.01m-4.73-168.17c6.32-24.86 10.08-39.45 17.8-70.49-5.65 3.96-15.82 8.01-28.35 11.86-12.53 3.84-27.38 7.68-42.52 10.59-30.82 5.89-43.01 21.39-53.78 27.38-8.71 4.85-22.77 6.93-30.08 6.8-7.39 0.09-15.93-6.33-22.1-10.07-8.6-5.21-3.44-16.04-33.92-23.74-12.01-3.03-23.68-6.72-33.58-10.74-9.9-4.01-18.02-8.39-22.9-12.93-9.63 21.72-18.18 42.23-30.46 71.02" opacity=".05" fill-rule="evenodd" fill="#fff" transform="translate(-259.608 -358.17)"/></g></g></svg>