<svg xmlns="http://www.w3.org/2000/svg" viewBox="0 0 891.696 876.471"><g fill-rule="evenodd"><path d="M 84.6848,304.606 C -13.107,119.543 158.777,24.741 283.675,112.904 c 96.045,67.794 163.802,149.663 245.701,224.497 -28.801,3.966 -57.13,4.675 -84.522,-1.082 118.252,44.43 149.148,139.477 223.718,209.215 -33.421,-13.373 -73.487,-25.847 -107.914,-25.872 100.911,54.943 109.285,144.867 163.927,217.302 -38.416,-13.167 -56.233,-36.841 -93.135,-57.231 4.959,7.54 8.451,15.494 10.502,23.854 -70.078,-60.09 -153.284,-68.115 -224.774,-137.716 11.257,12.907 20.176,29.177 25.164,51.103 -82.3,-69.927 -182.901,-106.681 -246.9,-209.782 4.423,15.351 6.724,31.859 5.76,50.153 C 167.541,400.669 123.736,378.509 84.6848,304.606" fill="#e03a21" transform="matrix(1.33333 0 0 -1.33333 -74.417 982.619)"/><path d="m 556.457,458.722 c -20.561,-6.221 -42.07,-10.651 -62.124,-10.666 l -35.236,-0.026 30.946,16.85 c 25.172,13.705 45.649,31.206 62.901,54.074 24.356,32.286 38.825,70.569 59.079,105.362 -2.007,-1.314 -4.011,-2.682 -6.023,-4.1 -27.736,-19.578 -47.14,-32 -77.184,-48.601 l 10.716,16.292 c -15.191,-9.509 -31.136,-17.672 -47.707,-25.597 -20.155,-9.639 -40.543,-18.761 -60.041,-29.715 -42.044,-23.618 -45.35,-41.153 -89.359,-57.338 8.652,13.314 20.315,26.904 27.948,39.279 C 354.069,502.474 337.194,491.209 320.288,479.95 266.03,443.818 217.745,410.634 182.546,353.932 l -34.143,-55.002 17.928,62.206 c 0.913,3.172 1.697,6.349 2.355,9.54 -4.919,-6.173 -10.096,-12.172 -15.499,-18.154 -11.378,-12.6 -23.134,-24.76 -33.93,-37.893 C 106.408,299.005 95.4543,282.653 85.9973,264.756 70.6109,235.638 59.048,201.344 62.3484,167.988 64.7301,143.919 74.9566,122.078 93.2949,106.086 112.667,89.1949 138.09,81.2672 163.551,81.1391 c 29.922,-0.1512 59.074,10.3148 83.383,27.4739 53.419,37.708 98.781,82.491 144.829,128.536 18.059,18.057 36.127,36.107 54.695,53.639 -28.207,1.997 -63.322,-4.785 -93.306,-6.437 38.823,23.833 82.159,38.395 115.975,70.018 20.95,19.591 38.329,42.139 55.737,64.816 10.322,13.443 20.613,26.782 31.593,39.537" fill="#f5781e" transform="matrix(1.33333 0 0 -1.33333 -74.417 982.619)"/><path d="m 458.616,374.676 c -15.474,-4.681 -31.662,-8.014 -46.755,-8.025 l -26.52,-0.021 23.291,12.683 c 18.944,10.314 34.356,23.485 47.34,40.695 18.331,24.299 29.219,53.111 44.464,79.297 -1.511,-0.989 -3.02,-2.018 -4.534,-3.088 -20.873,-14.731 -35.478,-24.082 -58.09,-36.575 l 8.065,12.261 c -11.433,-7.156 -23.433,-13.3 -35.903,-19.264 -15.171,-7.255 -30.513,-14.121 -45.186,-22.363 -31.644,-17.776 -34.134,-30.974 -67.256,-43.156 6.515,10.021 15.289,20.25 21.033,29.564 -12.266,-9.077 -24.968,-17.556 -37.692,-26.031 -40.834,-27.192 -77.174,-52.167 -103.666,-94.843 l -25.695,-41.394 13.491,46.817 c 0.688,2.385 1.278,4.779 1.773,7.18 -3.701,-4.643 -7.6,-9.16 -11.665,-13.662 -8.564,-9.483 -17.409,-18.634 -25.537,-28.518 -9.666,-11.758 -17.913,-24.068 -25.03,-37.536 -11.5799,-21.914 -20.2827,-47.725 -17.7983,-72.829 1.7926,-18.114 9.4891,-34.553 23.2893,-46.588 14.58,-12.7128 33.714,-18.678 52.877,-18.7749 22.518,-0.1153 44.459,7.7629 62.755,20.6779 40.202,28.379 74.343,62.083 108.999,96.735 13.592,13.592 27.189,27.176 41.163,40.37 -21.228,1.503 -47.656,-3.599 -70.223,-4.843 29.219,17.936 61.834,28.896 87.284,52.694 15.768,14.745 28.847,31.716 41.95,48.782 7.766,10.119 15.511,20.154 23.776,29.755" fill="#f8a10e" transform="matrix(1.33333 0 0 -1.33333 -74.417 982.619)"/><path d="m 370.841,336.862 c -9.593,-2.903 -19.628,-4.971 -28.987,-4.977 l -16.441,-0.013 14.441,7.864 c 11.745,6.395 21.3,14.559 29.35,25.23 11.363,15.063 18.114,32.928 27.566,49.161 -0.938,-0.612 -1.872,-1.25 -2.812,-1.913 -12.941,-9.135 -21.994,-14.932 -36.013,-22.677 l 5.001,7.602 c -7.09,-4.438 -14.531,-8.245 -22.262,-11.943 -9.404,-4.498 -18.916,-8.753 -28.014,-13.866 -19.617,-11.019 -21.162,-19.202 -41.696,-26.753 4.038,6.213 9.48,12.554 13.04,18.328 -7.605,-5.628 -15.479,-10.884 -23.369,-16.138 -25.317,-16.86 -47.846,-32.342 -64.269,-58.799 l -15.93,-25.666 8.364,29.027 c 0.425,1.479 0.793,2.961 1.101,4.45 -2.298,-2.878 -4.712,-5.677 -7.234,-8.469 -5.309,-5.88 -10.794,-11.554 -15.832,-17.68 -5.993,-7.292 -11.106,-14.921 -15.519,-23.271 -7.179,-13.587 -12.573,-29.589 -11.034,-45.153 1.112,-11.23 5.884,-21.421 14.441,-28.884 9.038,-7.881 20.899,-11.58 32.78,-11.638 13.961,-0.072 27.562,4.811 38.906,12.818 24.926,17.595 46.09,38.49 67.575,59.974 8.429,8.427 16.859,16.848 25.524,25.028 -13.163,0.932 -29.547,-2.231 -43.538,-3.003 18.115,11.119 38.335,17.914 54.114,32.671 9.775,9.139 17.885,19.662 26.008,30.242 4.814,6.272 9.616,12.495 14.739,18.448" fill="#fbc907" transform="matrix(1.33333 0 0 -1.33333 -74.417 982.619)"/><path d="m 137.468,328.142 c 14.577,0.753 27.528,4.847 40.376,12.703 l 0.518,0.317 c 3.842,2.353 8.55,1.993 11.995,-0.911 l 0.003,-0.004 c 2.784,-2.343 6.289,-3.04 9.756,-1.931 l 8.115,2.589 c 9.425,3.01 19.02,0.878 26.284,-5.839 l 7.466,-6.906 c 9.308,-8.607 18.819,-14.303 30.804,-18.442 l 3.188,-1.103 c 7.729,-2.668 12.833,-9.291 13.448,-17.445 0.41,-5.446 2.561,-10.659 6.358,-15.131 l 9.642,-11.36 c 5.143,-6.06 7.217,-13.273 6.077,-21.138 -1.877,-12.947 -0.821,-25.117 3.263,-38.064 l 0.057,-0.182 c 2.69,-8.546 1.025,-17.407 -4.091,-24.124 -6.274,-8.239 -9.832,-16.685 -11.348,-26.931 -1.07,-7.251 -4.991,-13.495 -11.295,-17.825 l -21.818,-14.992 c -1.917,-1.318 -3.509,-2.502 -5.32,-3.963 L 232.798,94.793 c -9.137,-7.3578 -21.417,-8 -31.271,-1.6379 l -2.334,1.507 c -6.564,4.2418 -13.83,5.3869 -21.382,3.377 l -11.927,-3.1762 c -10.731,-2.859 -21.534,0.868 -28.221,9.7351 l -4.822,6.394 c -5.915,7.844 -13.266,12.875 -22.719,15.548 -9.482,2.684 -16.7935,10.405 -18.7935,20.526 l -0.6465,3.266 c -2.3691,11.99 -6.4703,21.835 -13.3074,31.964 l -9.6875,14.344 c -6.5547,9.709 -6.1777,21.975 0.9633,31.262 l 18.0953,23.527 c 4.2801,5.566 6.0801,11.802 5.4262,18.795 l -0.1453,1.551 c -0.7778,8.273 1.9375,15.713 7.8589,21.544 6.2815,6.181 11.2875,12.901 15.2805,20.526 4.509,8.61 12.597,13.796 22.302,14.297" fill="#935c29" transform="matrix(1.33333 0 0 -1.33333 -74.417 982.619)"/><path d="m 296.777,146.122 c -1.966,-3.799 -4.897,-7.099 -8.693,-9.707 l -21.818,-14.992 c -1.917,-1.318 -3.509,-2.502 -5.32,-3.963 L 232.798,94.793 c -9.137,-7.3578 -21.417,-8 -31.271,-1.6379 l -2.334,1.507 c -6.564,4.2418 -13.83,5.3869 -21.382,3.377 l -11.927,-3.1762 c -10.731,-2.859 -21.534,0.868 -28.221,9.7351 l -4.822,6.394 c -5.915,7.844 -13.266,12.875 -22.719,15.548 -9.482,2.684 -16.7935,10.405 -18.7935,20.526 l -0.6465,3.266 c -0.673,3.407 -1.4863,6.643 -2.4617,9.76 7.9258,-4.046 17.2877,-9.678 26.2117,-20.443 9.714,-11.725 19.011,5.174 34.175,-16.487 9.529,-13.613 36.112,-2.399 45.911,-8.596 18.732,-11.847 32.086,5.934 45.914,2.113 14.551,-4.022 24,15.144 29.698,20.699 6.935,6.761 17.444,7.727 26.647,8.744" fill="#7a491d" transform="matrix(1.33333 0 0 -1.33333 -74.417 982.619)"/><path d="m 137.468,328.142 c 14.577,0.753 27.528,4.847 40.376,12.703 l 0.518,0.317 c 3.842,2.353 8.55,1.993 11.995,-0.911 l 0.003,-0.004 c 2.784,-2.343 6.289,-3.04 9.756,-1.931 l 8.115,2.589 c 9.425,3.01 19.02,0.878 26.284,-5.839 l 7.466,-6.906 c 9.308,-8.607 18.819,-14.303 30.804,-18.442 l 3.188,-1.103 c 7.729,-2.668 12.833,-9.291 13.448,-17.445 0.41,-5.446 2.561,-10.659 6.358,-15.131 l 9.642,-11.36 c 2.193,-2.585 3.831,-5.381 4.895,-8.348 -2.223,-4.314 -3.7,-8.81 -4.45,-13.557 -1.159,-7.344 -5.126,-13.196 -11.514,-16.995 -3.205,-1.908 -5.82,-4.513 -7.928,-7.886 -10.894,-17.434 -31.527,-25.957 -51.872,-20.938 -8.054,1.986 -15.888,0.006 -22.031,-5.571 l -0.405,-0.367 c -6.759,-6.139 -15.705,-7.937 -24.312,-4.887 -11.241,3.982 -22.498,3.816 -33.184,-0.452 -9.503,-3.794 -19.829,-1.442 -26.753,6.088 -7.562,8.228 -17.45,13.234 -29.0857,14.652 l -2.8715,0.35 c -12.5293,1.528 -22.6153,8.756 -28.0442,20.06 0.2516,0.361 0.5121,0.718 0.7848,1.074 l 18.0953,23.527 c 4.2801,5.566 6.0801,11.802 5.4262,18.795 l -0.1453,1.551 c -0.7778,8.273 1.9375,15.713 7.8589,21.544 6.2815,6.181 11.2875,12.901 15.2805,20.526 4.509,8.61 12.597,13.796 22.302,14.297" fill="#ae763e" transform="matrix(1.33333 0 0 -1.33333 -74.417 982.619)"/><path d="m 268.588,155.382 c 0.767,-1.176 1.467,-5.91 5.405,-3.556 10.111,6.042 -1.953,5.531 -5.05,6.39 -1.641,0.456 -0.359,-2.83 -0.355,-2.834 z m 5.12,16.49 c 4.036,-1.319 1.221,-6.715 5.15,-2.747 1.726,1.741 0.85,10.485 -1.047,12.067 -3.498,2.919 -10.029,1.276 -14.901,2.215 -2.624,0.505 -4.883,-0.202 -1.019,-2.919 2.56,-1.799 -1.24,-4.346 11.817,-8.616 z M 198.831,157.85 c 3.119,-6.162 5.405,-4.458 9.642,-9.538 1.066,-1.283 4.458,-2.619 3.668,2.555 -1.394,9.142 -2.6,14.125 -12.679,15.149 -2.034,-2.395 -1.887,-5.678 -0.631,-8.166 z m 48.185,-21.465 c -5.907,-1.372 1.06,-10.013 5.203,-3.985 0.684,0.994 2.24,3.671 0.536,4.049 -4.15,0.925 -1.695,0.875 -5.739,-0.064 z m -47.369,-16.412 c 1.662,-7.027 7.052,-2.63 12.834,-2.916 2.207,-0.11 5.873,4.566 -1.161,5.225 -5.381,0.509 -8.307,3.537 -11.703,-1.627 -0.185,-0.278 -0.079,-0.223 0.03,-0.682 z m -39.028,6.643 c -0.025,0.123 -0.15,0.163 -0.093,0.331 1.066,3.261 3.596,0.711 4.562,-0.199 0.963,-0.907 2.033,-4.677 0.407,-4.852 -4.156,-0.449 -4.33,2.103 -4.876,4.72 z m 10.408,7.831 c 2.76,-2.333 16.974,-10.335 20.423,-4.463 2.102,3.585 -3.271,7.813 -7.193,8.313 -3.809,0.485 -18.422,0.538 -13.23,-3.85 z m -56.682,25.11 c 0.946,3.532 4.666,0.648 6.394,-1.063 1.392,-1.378 2.556,-3.849 1.706,-5.924 -2.027,-4.951 -2.326,-6.518 -5.786,-2.453 -1.79,2.104 -3.074,6.6 -2.314,9.44 z m 4.606,22.243 c -3.925,12.938 -35.1209,19.518 -33.1697,6.051 2.5148,-17.349 3.4808,-9.605 6.8027,-20.564 1.5465,-5.092 12.278,-5.728 15.611,-0.099 2.373,4.008 11.429,12.398 10.756,14.612 z m 54.259,-28.064 c -0.362,1.198 1.004,16.163 3.426,17.524 8.113,4.562 -10.037,9.54 -12.93,-0.335 -1.319,-4.501 -4.976,-13.99 -1.709,-18.551 2.367,-3.31 12.295,-2.21 11.213,1.362 z m 45.975,23.893 c 2.203,-15.202 4.39,-13.911 8.294,-26.737 0.732,-2.406 6.192,-13.021 10.7,-9.349 13.917,11.328 -24.53,74.285 -18.994,36.086 z m 80.008,7.063 c 3.046,0.33 -0.512,18.007 -3.104,21.585 -4.504,6.212 -4.74,12.357 -7.638,0.933 -4.377,-9.302 7.177,-22.904 10.742,-22.518 v 0" fill="#7a491d" transform="matrix(1.33333 0 0 -1.33333 -74.417 982.619)"/><path d="m 144.499,249.126 c -7.876,3.521 -11.516,3.477 -19.865,1.77 -4.454,-0.909 -2.119,-14.333 2.199,-18.967 5.848,-6.277 -4.396,-13.18 14.363,-9.485 4.137,0.812 9.892,23.737 3.303,26.682 z m -30.01,30.706 -1.38,4.171 c -2.511,7.581 -1.002,15.569 3.906,20.696 l 7.199,7.524 c 3.661,3.824 8.226,5.205 13.161,3.979 l 2.583,-0.64 c 6.19,-1.537 12.005,1.129 15.513,7.106 l 0.243,0.418 c 3.662,6.249 9.89,8.881 16.302,6.888 l 10.511,-3.271 c 3.421,-1.062 6.557,-0.845 9.737,0.677 l 9.567,4.583 c 4.778,2.287 9.845,1.679 14.398,-1.73 l 7.254,-5.432 c 2.554,-1.909 5.082,-2.858 8.025,-3.01 l 2.001,-0.103 c 6.462,-0.333 12.024,-4.975 14.634,-12.212 l 0.99,-2.749 c 3.089,-8.561 0.838,-17.995 -5.441,-22.809 l -0.172,-0.131 c -3.954,-3.032 -8.453,-3.684 -13.104,-1.902 l -7.117,2.728 c -5.923,2.271 -11.831,0.528 -15.902,-4.688 l -11.175,-14.322 c -4.001,-5.129 -4.695,-12.55 -1.778,-19.04 3.46,-7.706 2.348,-16.797 -2.841,-22.493 l -0.866,-0.952 c -4.338,-4.756 -10.246,-5.999 -15.986,-3.359 l -5.794,2.666 c -7.109,3.267 -11.093,12.538 -9.03,21.013 1.53,6.278 0.325,12.716 -3.358,17.93 l -0.991,1.405 c -4.766,6.754 -12.268,9.032 -18.745,5.693 l -0.454,-0.236 c -5.241,-2.701 -11.004,-1.822 -15.814,2.414 l -0.332,0.291 c -2.692,2.371 -4.523,5.207 -5.744,8.897 z m 119.449,-15.093 c -1.96,0.972 -17.309,8.281 -18.182,5.061 -2.575,-9.49 -8.297,-19.929 -1.29,-28.109 3.532,-4.126 4.785,-16.472 16.095,-19.877 6.504,-1.956 16.245,-9.576 20.54,-0.249 4.672,10.139 8.149,2.99 10.879,21.607 1.602,10.919 18.833,7.56 17.264,18.395 -1.146,7.908 -4.687,7.144 -5.188,8.939 -30.553,13.325 -27.619,-11.963 -40.118,-5.767 v 0" fill="#cf965a" transform="matrix(1.33333 0 0 -1.33333 -74.417 982.619)"/><path d="m 134.269,298.075 c -4.373,13.17 18.646,7.476 30.7,16.222 5.801,4.21 24.11,-3.583 26.443,-9.393 4.171,-10.385 -3.118,-11.646 -12.428,-18.784 -18.783,-14.399 -32.354,-3.878 -38.525,-4.876 -6.64,-1.074 -7.098,-2.085 -8.735,7.827 -0.599,3.638 3.278,6.789 2.545,9.004" fill="#e1b07a" transform="matrix(1.33333 0 0 -1.33333 -74.417 982.619)"/><path d="m 137.91,262.045 c 3.241,0.138 11.632,-10.552 9.752,2.422 -0.455,3.139 -1.558,1.927 -6.678,1.184 -2.2,-0.318 -5.294,-0.025 -3.397,-3.252 0.051,-0.083 0.199,-0.358 0.323,-0.354 z M 97.666,247.213 c -1.7207,-5.599 7.691,-8.251 8.281,-6.019 2.564,9.689 9.723,10.666 -6.2845,11.368 -5.5773,0.243 -2.5996,-4.676 -2.1953,-5.005 z m 18.254,-29.718 c -0.529,11.212 -16.0345,10.505 -24.4251,11.012 -6.6812,0.402 -2.7871,-1.921 -4.8554,-5.258 -5.0403,-8.124 4.85,-8.852 11.6031,-10.442 2.5474,-0.6 11.5084,-1.456 13.1984,1.464 1.127,1.945 4.549,1.763 4.479,3.224 z m 53.936,-17.058 c -1.381,9.54 -0.024,11.34 -12.414,14.454 -1.665,0.417 -8.165,2.062 -8.071,-1.033 0.242,-8.003 0.73,-5.869 -1.579,-12.036 -0.699,-1.868 -0.527,-6.293 2.362,-7.035 2.424,-0.62 19.286,-2.171 19.383,2.388 0.019,0.847 0.331,3.179 0.319,3.262 z m 47.208,3.749 c -1.603,6.256 -1.522,4.393 -5.453,9.192 -3.221,3.933 -1.389,5.088 -9.003,3.785 -2.456,-0.42 -10.578,-19.881 10.491,-17.467 0.454,0.052 3.982,4.421 3.965,4.49 z m 39.851,101.487 c 1.596,-6.27 3.579,-8.273 10.416,-7.159 2.335,0.38 -0.46,7.827 -7.308,8.948 -1.855,0.305 -1.758,-0.187 -2.966,-1.38 z m 9.691,-17.56 c -7.354,-2.74 -11.105,-8.909 -3.127,-8.412 1.244,0.078 14.008,-0.75 14.263,0.806 0.949,5.829 -2.036,7.449 -7.196,8.225 -0.531,0.079 -3.501,-0.454 -3.94,-0.619 z m 22.915,-38.662 c -3.176,0.178 -21.714,-4.278 -20.888,-9.006 0.742,-4.228 2.114,-3.202 2.961,-9.04 0.368,-2.548 11.936,-0.684 15.715,2.405 4.961,4.048 3.592,2.252 6.428,7.275 2.341,4.153 -0.389,3.523 -3.237,7.627 -0.026,0.036 -0.901,0.735 -0.979,0.739 v 0" fill="#935c29" transform="matrix(1.33333 0 0 -1.33333 -74.417 982.619)"/></g></svg>