<svg xmlns="http://www.w3.org/2000/svg" viewBox="0 0 714.205 688.099"><g fill-rule="evenodd"><path d="m 244.586,80.7281 c 134.713,0 244.586,52.0539 244.586,115.8789 0,63.823 -109.873,115.879 -244.586,115.879 C 109.873,312.486 0,260.43 0,196.607 0,132.782 109.873,80.7281 244.586,80.7281" fill="#f3f3f3" transform="matrix(1.33333 0 0 -1.33333 0 795.736)"/><path d="M 130.836,447.932 H 343.78 L 316.414,249.526 c -9.698,-70.314 -148.513,-70.316 -158.21,0 l -27.368,198.406" fill="#87b027" transform="matrix(1.33333 0 0 -1.33333 0 795.736)"/><path d="m 334.226,378.661 -13.86,-100.485 c -7.566,-54.852 -158.549,-54.853 -166.116,0 l -13.86,100.485 c 7.594,-43.665 186.096,-44.043 193.836,0" fill="#c6e445" transform="matrix(1.33333 0 0 -1.33333 0 795.736)"/><path d="m 237.309,527.894 c 32.042,0 61.273,-6.608 83.432,-17.473 h 23.476 l 14.677,-34.573 h -0.009 c 2.457,-5.377 3.767,-11.003 3.767,-16.798 0,-38.021 -56.118,-68.843 -125.343,-68.843 -69.226,0 -125.344,30.822 -125.344,68.843 0,5.826 1.324,11.483 3.805,16.886 h -0.006 l 14.635,34.485 h 23.476 c 22.162,10.865 51.389,17.473 83.434,17.473" fill="#c8d49a" transform="matrix(1.33333 0 0 -1.33333 0 795.736)"/><path d="m 237.309,436.387 c 60.461,0 109.773,27.084 109.773,60.292 0,33.208 -49.312,60.292 -109.773,60.292 -60.462,0 -109.772,-27.084 -109.772,-60.292 0,-33.208 49.31,-60.292 109.772,-60.292" fill="#e7eecd" transform="matrix(1.33333 0 0 -1.33333 0 795.736)"/><path d="m 237.309,447.932 c 51.814,0 94.072,21.898 94.072,48.747 0,26.849 -42.258,48.747 -94.072,48.747 -51.814,0 -94.074,-21.898 -94.074,-48.747 0,-26.849 42.26,-48.747 94.074,-48.747" fill="#b9c68a" transform="matrix(1.33333 0 0 -1.33333 0 795.736)"/><path d="m 331.091,492.83 c -3.787,-25.122 -44.327,-44.898 -93.782,-44.898 -49.456,0 -89.996,19.776 -93.782,44.898 3.786,25.124 44.326,44.899 93.782,44.899 49.455,0 89.995,-19.775 93.782,-44.899" fill="#c8d49a" transform="matrix(1.33333 0 0 -1.33333 0 795.736)"/><path d="m 237.309,524.095 c 32.237,0 59.179,-11.738 65.791,-27.416 h 1.556 v -7.483 c 0,-19.274 -30.152,-34.898 -67.347,-34.898 -37.196,0 -67.35,15.624 -67.35,34.898 v 7.483 h 1.558 c 6.61,15.678 33.553,27.416 65.792,27.416" fill="#b9c68a" transform="matrix(1.33333 0 0 -1.33333 0 795.736)"/><path d="m 237.309,461.781 c 37.094,0 67.349,15.676 67.349,34.898 0,19.222 -30.255,34.899 -67.349,34.899 -37.095,0 -67.35,-15.677 -67.35,-34.899 0,-19.222 30.255,-34.898 67.35,-34.898" fill="#e7eecd" transform="matrix(1.33333 0 0 -1.33333 0 795.736)"/><path d="m 283.978,241.52 c -13.285,1.202 -23.077,12.947 -21.874,26.229 1.202,13.284 12.946,23.078 26.23,21.875 85.339,-0.175 210.458,-35.756 245.041,-124.332 5.649,-12.082 0.433,-26.454 -11.648,-32.101 -12.08,-5.649 -26.453,-0.435 -32.102,11.647 -29.302,62.519 -143.428,90.952 -205.647,96.682" fill="#df8c16" transform="matrix(1.33333 0 0 -1.33333 0 795.736)"/><path d="m 271.189,236.069 c 80.66,-3.157 150.71,-25.986 192.353,-59.25 l 32.994,-5.971 V 137.494 L 251.938,105.825 v 33.354 l 5.797,5.852 13.454,91.038" fill="#f9de1b" transform="matrix(1.33333 0 0 -1.33333 0 795.736)"/><path d="m 271.189,269.421 c 109.544,-4.286 199.526,-44.855 225.347,-98.573 l -244.598,-31.669 19.251,130.242" fill="#fab40a" transform="matrix(1.33333 0 0 -1.33333 0 795.736)"/><path d="m 307.634,249.62 c 15.718,0 28.853,-5.72 32.074,-13.365 h 0.761 v -8.098 c 0,-9.395 -14.7,-17.012 -32.835,-17.012 -18.132,0 -32.832,7.617 -32.832,17.012 v 8.098 h 0.76 c 3.223,7.645 16.358,13.365 32.072,13.365" fill="#eb1c24" transform="matrix(1.33333 0 0 -1.33333 0 795.736)"/><path d="m 307.636,219.243 c 18.084,0 32.833,7.642 32.833,17.012 0,9.372 -14.749,17.016 -32.833,17.016 -18.084,0 -32.834,-7.644 -32.834,-17.016 0,-9.37 14.75,-17.012 32.834,-17.012" fill="#f1444b" transform="matrix(1.33333 0 0 -1.33333 0 795.736)"/><path d="m 389.789,218.421 c -4.133,0 -7.482,-1.736 -7.482,-3.877 0,-2.141 3.349,-3.878 7.482,-3.878 4.132,0 7.481,1.737 7.481,3.878 0,2.141 -3.349,3.877 -7.481,3.877 z m 0,3.113 c 5.616,0 10.311,-2.043 11.462,-4.775 h 0.272 v -2.894 c 0,-3.357 -5.254,-6.08 -11.734,-6.08 -6.481,0 -11.734,2.723 -11.734,6.08 v 2.894 h 0.272 c 1.15,2.732 5.845,4.775 11.462,4.775 v 0" fill="#1b1919" transform="matrix(1.33333 0 0 -1.33333 0 795.736)"/><path d="m 389.789,220.635 c -4.133,0 -7.482,-1.734 -7.482,-3.876 0,-2.141 3.349,-3.877 7.482,-3.877 4.132,0 7.481,1.736 7.481,3.877 0,2.142 -3.349,3.876 -7.481,3.876 z m 0,2.205 c 6.48,0 11.734,-2.723 11.734,-6.081 0,-3.359 -5.254,-6.081 -11.734,-6.081 -6.481,0 -11.734,2.722 -11.734,6.081 0,3.358 5.253,6.081 11.734,6.081 v 0" fill="#464648" transform="matrix(1.33333 0 0 -1.33333 0 795.736)"/><path d="m 322.066,203.426 c 15.718,0 28.851,-5.723 32.075,-13.365 h 0.759 v -8.099 c 0,-9.396 -14.7,-17.014 -32.834,-17.014 -18.132,0 -32.832,7.618 -32.832,17.014 v 8.099 h 0.76 c 3.221,7.642 16.357,13.365 32.072,13.365" fill="#eb1c24" transform="matrix(1.33333 0 0 -1.33333 0 795.736)"/><path d="m 322.068,173.047 c 18.084,0 32.832,7.643 32.832,17.014 0,9.37 -14.748,17.012 -32.832,17.012 -18.084,0 -32.834,-7.642 -32.834,-17.012 0,-9.371 14.75,-17.014 32.834,-17.014" fill="#f1444b" transform="matrix(1.33333 0 0 -1.33333 0 795.736)"/><path d="m 351.778,250.278 c -4.131,0 -7.482,-1.738 -7.482,-3.878 0,-2.141 3.351,-3.876 7.482,-3.876 4.133,0 7.483,1.735 7.483,3.876 0,2.14 -3.35,3.878 -7.483,3.878 z m 0,3.115 c 5.618,0 10.311,-2.046 11.464,-4.778 h 0.271 v -2.893 c 0,-3.358 -5.254,-6.081 -11.735,-6.081 -6.48,0 -11.734,2.723 -11.734,6.081 v 2.893 h 0.273 c 1.151,2.732 5.845,4.778 11.461,4.778 v 0" fill="#1b1919" transform="matrix(1.33333 0 0 -1.33333 0 795.736)"/><path d="m 351.778,252.493 c -4.131,0 -7.482,-1.737 -7.482,-3.878 0,-2.14 3.351,-3.876 7.482,-3.876 4.133,0 7.483,1.736 7.483,3.876 0,2.141 -3.35,3.878 -7.483,3.878 z m 0,2.203 c 6.481,0 11.735,-2.721 11.735,-6.081 0,-3.357 -5.254,-6.08 -11.735,-6.08 -6.48,0 -11.734,2.723 -11.734,6.08 0,3.36 5.254,6.081 11.734,6.081 v 0" fill="#464648" transform="matrix(1.33333 0 0 -1.33333 0 795.736)"/><path d="m 430.784,212.207 c 15.717,0 28.851,-5.722 32.074,-13.365 h 0.76 v -8.099 c 0,-9.396 -14.701,-17.012 -32.834,-17.012 -18.133,0 -32.833,7.616 -32.833,17.012 v 8.099 h 0.76 c 3.222,7.643 16.356,13.365 32.073,13.365" fill="#eb1c24" transform="matrix(1.33333 0 0 -1.33333 0 795.736)"/><path d="m 430.784,181.828 c 18.085,0 32.834,7.644 32.834,17.014 0,9.37 -14.749,17.014 -32.834,17.014 -18.084,0 -32.833,-7.644 -32.833,-17.014 0,-9.37 14.749,-17.014 32.833,-17.014" fill="#f1444b" transform="matrix(1.33333 0 0 -1.33333 0 795.736)"/><path d="m 373.753,175.874 c -4.131,0 -7.481,-1.736 -7.481,-3.877 0,-2.14 3.35,-3.876 7.481,-3.876 4.133,0 7.482,1.736 7.482,3.876 0,2.141 -3.349,3.877 -7.482,3.877 z m 0,3.115 c 5.618,0 10.312,-2.044 11.463,-4.776 h 0.272 v -2.894 c 0,-3.358 -5.253,-6.08 -11.735,-6.08 -6.48,0 -11.733,2.722 -11.733,6.08 v 2.894 h 0.272 c 1.151,2.732 5.845,4.776 11.461,4.776 v 0" fill="#1b1919" transform="matrix(1.33333 0 0 -1.33333 0 795.736)"/><path d="m 373.753,178.09 c -4.131,0 -7.481,-1.736 -7.481,-3.877 0,-2.141 3.35,-3.878 7.481,-3.878 4.133,0 7.482,1.737 7.482,3.878 0,2.141 -3.349,3.877 -7.482,3.877 z m 0,2.203 c 6.482,0 11.735,-2.72 11.735,-6.08 0,-3.358 -5.253,-6.081 -11.735,-6.081 -6.48,0 -11.733,2.723 -11.733,6.081 0,3.36 5.253,6.08 11.733,6.08 v 0" fill="#464648" transform="matrix(1.33333 0 0 -1.33333 0 795.736)"/><path d="m 276.528,201.552 c -4.133,0 -7.483,-1.737 -7.483,-3.878 0,-2.141 3.35,-3.876 7.483,-3.876 4.132,0 7.481,1.735 7.481,3.876 0,2.141 -3.349,3.878 -7.481,3.878 z m 0,3.114 c 5.616,0 10.311,-2.045 11.463,-4.776 h 0.271 v -2.895 c 0,-3.357 -5.253,-6.08 -11.734,-6.08 -6.481,0 -11.734,2.723 -11.734,6.08 v 2.895 h 0.272 c 1.15,2.731 5.846,4.776 11.462,4.776 v 0" fill="#1b1919" transform="matrix(1.33333 0 0 -1.33333 0 795.736)"/><path d="m 276.528,203.767 c -4.133,0 -7.483,-1.736 -7.483,-3.877 0,-2.142 3.35,-3.876 7.483,-3.876 4.132,0 7.481,1.734 7.481,3.876 0,2.141 -3.349,3.877 -7.481,3.877 z m 0,2.203 c 6.481,0 11.734,-2.721 11.734,-6.08 0,-3.359 -5.253,-6.081 -11.734,-6.081 -6.481,0 -11.734,2.722 -11.734,6.081 0,3.359 5.253,6.08 11.734,6.08 v 0" fill="#464648" transform="matrix(1.33333 0 0 -1.33333 0 795.736)"/><path d="m 449.833,199.49 c -4.132,0 -7.481,-1.735 -7.481,-3.876 0,-2.141 3.349,-3.876 7.481,-3.876 4.133,0 7.482,1.735 7.482,3.876 0,2.141 -3.349,3.876 -7.482,3.876 z m 0,3.116 c 5.617,0 10.312,-2.045 11.462,-4.776 h 0.272 v -2.895 c 0,-3.358 -5.253,-6.08 -11.734,-6.08 -6.48,0 -11.734,2.722 -11.734,6.08 v 2.895 h 0.272 c 1.151,2.731 5.846,4.776 11.462,4.776 v 0" fill="#1b1919" transform="matrix(1.33333 0 0 -1.33333 0 795.736)"/><path d="m 449.833,201.706 c -4.132,0 -7.481,-1.735 -7.481,-3.876 0,-2.14 3.349,-3.878 7.481,-3.878 4.133,0 7.482,1.738 7.482,3.878 0,2.141 -3.349,3.876 -7.482,3.876 z m 0,2.204 c 6.481,0 11.734,-2.721 11.734,-6.08 0,-3.359 -5.253,-6.081 -11.734,-6.081 -6.48,0 -11.734,2.722 -11.734,6.081 0,3.359 5.254,6.08 11.734,6.08 v 0" fill="#464648" transform="matrix(1.33333 0 0 -1.33333 0 795.736)"/><path d="m 248.183,489.203 c -0.387,-2.912 -5.253,-5.273 -10.874,-5.273 -5.62,0 -9.865,2.361 -9.48,5.273 l 13.528,102.326 h 20.352 L 248.183,489.203" fill="#4ba5ce" transform="matrix(1.33333 0 0 -1.33333 0 795.736)"/><path d="m 252.231,596.802 c 5.62,0 9.864,-2.361 9.478,-5.273 -0.383,-2.913 -5.252,-5.274 -10.873,-5.274 -5.621,0 -9.865,2.361 -9.479,5.274 0.384,2.912 5.253,5.273 10.874,5.273" fill="#6ccaec" transform="matrix(1.33333 0 0 -1.33333 0 795.736)"/><path d="m 106.198,216.691 c 39.802,0 74.293,-11.781 91.205,-28.979 h 11.094 v -24.031 c 0,-29.278 -45.8,-53.012 -102.299,-53.012 -56.5003,0 -102.30152,23.734 -102.30152,53.012 v 24.031 H 14.9918 c 16.9109,17.198 51.4023,28.979 91.2062,28.979" fill="#f3cb3f" transform="matrix(1.33333 0 0 -1.33333 0 795.736)"/><path d="m 106.198,134.702 c 56.344,0 102.299,23.813 102.299,53.01 0,29.197 -45.955,53.012 -102.299,53.012 -56.3457,0 -102.30152,-23.815 -102.30152,-53.012 0,-29.197 45.95582,-53.01 102.30152,-53.01" fill="#eedb92" transform="matrix(1.33333 0 0 -1.33333 0 795.736)"/><path d="m 140.426,137.746 -34.228,-20.647 -34.2292,20.647 c 10.7023,-1.969 22.2226,-3.044 34.2292,-3.044 12.006,0 23.525,1.075 34.228,3.044" fill="#df8c16" transform="matrix(1.33333 0 0 -1.33333 0 795.736)"/><path d="m 5.72422,197.717 66.24608,39.961 c 10.7016,1.97 22.2215,3.046 34.2277,3.046 12.006,0 23.524,-1.076 34.226,-3.046 l 66.246,-39.961 c 1.195,-3.24 1.827,-6.585 1.827,-10.005 0,-3.42 -0.632,-6.764 -1.827,-10.005 l -66.244,-39.961 c -10.703,-1.969 -22.222,-3.044 -34.228,-3.044 -12.0066,0 -23.5269,1.075 -34.2292,3.044 L 5.72422,177.707 c -1.19492,3.241 -1.82774,6.585 -1.82774,10.005 0,3.42 0.63282,6.765 1.82774,10.005" fill="#fab40a" transform="matrix(1.33333 0 0 -1.33333 0 795.736)"/><path d="m 158.9,184.967 c 15.718,0 28.851,-5.722 32.075,-13.365 h 0.759 v -8.098 c 0,-9.395 -14.7,-17.014 -32.834,-17.014 -18.133,0 -32.832,7.619 -32.832,17.014 v 8.098 h 0.759 c 3.222,7.643 16.358,13.365 32.073,13.365" fill="#eb1c24" transform="matrix(1.33333 0 0 -1.33333 0 795.736)"/><path d="m 158.901,154.59 c 18.084,0 32.833,7.643 32.833,17.014 0,9.37 -14.749,17.013 -32.833,17.013 -18.084,0 -32.833,-7.643 -32.833,-17.013 0,-9.371 14.749,-17.014 32.833,-17.014" fill="#f1444b" transform="matrix(1.33333 0 0 -1.33333 0 795.736)"/><path d="m 58.8422,183.257 c 15.716,0 28.8508,-5.723 32.0738,-13.365 h 0.7594 v -8.099 c 0,-9.395 -14.7004,-17.013 -32.8332,-17.013 -18.1332,0 -32.8332,7.618 -32.8332,17.013 v 8.099 h 0.759 c 3.223,7.642 16.3582,13.365 32.0742,13.365" fill="#eb1c24" transform="matrix(1.33333 0 0 -1.33333 0 795.736)"/><path d="m 58.843,152.879 c 18.084,0 32.8324,7.644 32.8324,17.014 0,9.37 -14.7484,17.013 -32.8324,17.013 -18.084,0 -32.8336,-7.643 -32.8336,-17.013 0,-9.37 14.7496,-17.014 32.8336,-17.014" fill="#f1444b" transform="matrix(1.33333 0 0 -1.33333 0 795.736)"/><path d="m 208.497,224.486 v -8.639 c 0,-29.277 -45.8,-53.01 -102.299,-53.01 -56.5003,0 -102.30152,23.733 -102.30152,53.01 v 8.639 c 0,85.625 204.60052,87.033 204.60052,0" fill="#f3cb3f" transform="matrix(1.33333 0 0 -1.33333 0 795.736)"/><path d="m 163.751,221.841 v -6.426 c 0,-21.773 -34.061,-39.423 -76.0787,-39.423 -42.0176,0 -76.0789,17.65 -76.0789,39.423 v 6.426 c 0,63.676 152.1576,64.724 152.1576,0" fill="#f9d85d" transform="matrix(1.33333 0 0 -1.33333 0 795.736)"/><path d="m 181.869,249.452 c -4.717,-6.565 -15.344,9.049 -1.369,1.658 0.697,-0.369 1.486,-0.858 1.369,-1.658 z m 9.202,-23.21 c -4.729,-7.127 -20.135,9.581 -3.166,2.948 1.274,-0.498 3.369,-1.435 3.166,-2.948 z m -6.649,-32.419 c -3.817,-9.927 -20.442,9.993 -4.045,4.27 2.067,-0.721 4.154,-2.068 4.045,-4.27 z m -90.7013,43.754 c -5.4062,-11.261 -25.6371,1.518 -5.009,2.52 1.9098,0.094 5.2672,-0.155 5.009,-2.52 z m 15.3623,22.74 c -5.518,-10.624 -26.39,3.714 -5.206,2.922 1.931,-0.072 5.456,-0.59 5.206,-2.922 z M 92.4441,280.64 c -4.6007,-9.493 -20.6461,3.321 -3.2347,2.075 1.4019,-0.101 3.3824,-0.487 3.2347,-2.075 z M 54.827,248.415 c -4.8465,-12.259 -24.1977,-0.624 -4.7301,2.182 1.9621,0.282 4.9265,0.234 4.7301,-2.182 z M 37.0605,208.113 c -4.2875,-13.185 -22.1789,-0.287 -4.3457,2.495 2.2383,0.348 4.504,-0.047 4.3457,-2.495 z m 78.2585,-16.039 c -4.027,-11.551 -22.0764,4.088 -5.338,3.964 2.68,-0.019 5.527,-1.178 5.338,-3.964 z m 21.067,39.828 c -3.834,-10.309 -17.916,8.465 -2.84,3.249 1.629,-0.565 2.949,-1.563 2.84,-3.249 z m 18.911,-38.251 c -4.201,-10.734 -22.079,9.034 -4.342,4.203 2.143,-0.585 4.529,-1.914 4.342,-4.203 z m -87.4657,74.786 c -3.9911,-11.893 -19.1875,3.254 -3.0829,2.458 1.7606,-0.086 3.1711,-0.707 3.0829,-2.458 z m 84.5867,-18.791 c -3.763,-8.82 -20.495,7.948 -4.058,3.599 1.818,-0.478 4.221,-1.6 4.058,-3.599 z m -79.2641,-47.49 c -4.2203,-12.772 -21.5289,1.549 -4.218,2.866 2.2832,0.175 4.3762,-0.501 4.218,-2.866 z m 73.5691,70.579 c -4.32,-8.095 -19.543,7.379 -3.09,2.685 1.356,-0.387 3.235,-1.169 3.09,-2.685 v 0" fill="#fcf89e" transform="matrix(1.33333 0 0 -1.33333 0 795.736)"/></g></svg>