<svg xmlns="http://www.w3.org/2000/svg" xmlns:xlink="http://www.w3.org/1999/xlink" viewBox="0 0 1200 1200"><defs><linearGradient id="aj" x1="461.49" x2="474.35" y1="453.25" y2="472.36" gradientTransform="matrix(5.7628 1.5441 -1.3795 5.1484 -1648.7 -2940.86)" gradientUnits="userSpaceOnUse"><stop stop-color="#ff0" offset="0"/><stop stop-color="#ff0" stop-opacity="0" offset="1"/></linearGradient><linearGradient id="af" x1="383.96" x2="449.86" y1="526.78" y2="526.78" gradientTransform="matrix(-1.3795 5.1484 -5.7628 -1.5441 4379 -1246.56)" gradientUnits="userSpaceOnUse"><stop stop-color="#fff" offset="0"/><stop stop-color="#fff" stop-opacity="0" offset="1"/></linearGradient><linearGradient id="a" x1="614.2" x2="658.54" y1="602.45" y2="596.89" gradientTransform="translate(75.036 71.368) scale(.88334)" gradientUnits="userSpaceOnUse"><stop stop-color="#fff7f7" stop-opacity=".5" offset="0"/><stop stop-color="#fff" stop-opacity="0" offset="1"/></linearGradient><linearGradient xlink:href="#a" id="ah" gradientUnits="userSpaceOnUse" gradientTransform="translate(75.036 71.368) scale(.88334)" x1="614.2" y1="602.45" x2="658.54" y2="596.89"/><linearGradient xlink:href="#a" id="ai" gradientUnits="userSpaceOnUse" gradientTransform="translate(75.036 71.368) scale(.88334)" x1="614.2" y1="602.45" x2="658.54" y2="596.89"/><linearGradient xlink:href="#a" id="ak" gradientUnits="userSpaceOnUse" gradientTransform="translate(75.036 71.368) scale(.88334)" x1="614.2" y1="602.45" x2="658.54" y2="596.89"/><linearGradient xlink:href="#a" id="al" gradientUnits="userSpaceOnUse" gradientTransform="translate(75.036 71.368) scale(.88334)" x1="614.2" y1="602.45" x2="658.54" y2="596.89"/><linearGradient xlink:href="#a" id="am" gradientUnits="userSpaceOnUse" gradientTransform="translate(75.036 71.368) scale(.88334)" x1="614.2" y1="602.45" x2="658.54" y2="596.89"/><linearGradient xlink:href="#a" id="an" gradientUnits="userSpaceOnUse" gradientTransform="translate(75.036 71.368) scale(.88334)" x1="614.2" y1="602.45" x2="658.54" y2="596.89"/><linearGradient xlink:href="#a" id="ao" gradientUnits="userSpaceOnUse" gradientTransform="translate(75.036 71.368) scale(.88334)" x1="614.2" y1="602.45" x2="658.54" y2="596.89"/><linearGradient xlink:href="#a" id="ap" gradientUnits="userSpaceOnUse" gradientTransform="translate(75.036 71.368) scale(.88334)" x1="614.2" y1="602.45" x2="658.54" y2="596.89"/><linearGradient xlink:href="#a" id="aq" gradientUnits="userSpaceOnUse" gradientTransform="translate(75.036 71.368) scale(.88334)" x1="614.2" y1="602.45" x2="658.54" y2="596.89"/><linearGradient xlink:href="#a" id="ar" gradientUnits="userSpaceOnUse" gradientTransform="translate(75.036 71.368) scale(.88334)" x1="614.2" y1="602.45" x2="658.54" y2="596.89"/><linearGradient xlink:href="#a" id="as" gradientUnits="userSpaceOnUse" gradientTransform="translate(75.036 71.368) scale(.88334)" x1="614.2" y1="602.45" x2="658.54" y2="596.89"/><linearGradient xlink:href="#a" id="at" gradientUnits="userSpaceOnUse" gradientTransform="translate(75.036 71.368) scale(.88334)" x1="614.2" y1="602.45" x2="658.54" y2="596.89"/><linearGradient xlink:href="#a" id="au" gradientUnits="userSpaceOnUse" gradientTransform="translate(75.036 71.368) scale(.88334)" x1="614.2" y1="602.45" x2="658.54" y2="596.89"/><linearGradient xlink:href="#a" id="av" gradientUnits="userSpaceOnUse" gradientTransform="translate(75.036 71.368) scale(.88334)" x1="614.2" y1="602.45" x2="658.54" y2="596.89"/><linearGradient xlink:href="#a" id="aw" gradientUnits="userSpaceOnUse" gradientTransform="translate(75.036 71.368) scale(.88334)" x1="614.2" y1="602.45" x2="658.54" y2="596.89"/><linearGradient xlink:href="#a" id="ax" gradientUnits="userSpaceOnUse" gradientTransform="translate(75.036 71.368) scale(.88334)" x1="614.2" y1="602.45" x2="658.54" y2="596.89"/><linearGradient xlink:href="#a" id="ay" gradientUnits="userSpaceOnUse" gradientTransform="translate(75.036 71.368) scale(.88334)" x1="614.2" y1="602.45" x2="658.54" y2="596.89"/><linearGradient xlink:href="#a" id="az" gradientUnits="userSpaceOnUse" gradientTransform="translate(75.036 71.368) scale(.88334)" x1="614.2" y1="602.45" x2="658.54" y2="596.89"/><linearGradient xlink:href="#a" id="aA" gradientUnits="userSpaceOnUse" gradientTransform="translate(75.036 71.368) scale(.88334)" x1="614.2" y1="602.45" x2="658.54" y2="596.89"/><linearGradient xlink:href="#a" id="aB" gradientUnits="userSpaceOnUse" gradientTransform="translate(75.036 71.368) scale(.88334)" x1="614.2" y1="602.45" x2="658.54" y2="596.89"/><linearGradient xlink:href="#a" id="aC" gradientUnits="userSpaceOnUse" gradientTransform="translate(75.036 71.368) scale(.88334)" x1="614.2" y1="602.45" x2="658.54" y2="596.89"/><linearGradient xlink:href="#a" id="aD" gradientUnits="userSpaceOnUse" gradientTransform="translate(75.036 71.368) scale(.88334)" x1="614.2" y1="602.45" x2="658.54" y2="596.89"/><linearGradient xlink:href="#a" id="aE" gradientUnits="userSpaceOnUse" gradientTransform="translate(75.036 71.368) scale(.88334)" x1="614.2" y1="602.45" x2="658.54" y2="596.89"/><linearGradient xlink:href="#a" id="aF" gradientUnits="userSpaceOnUse" gradientTransform="translate(75.036 71.368) scale(.88334)" x1="614.2" y1="602.45" x2="658.54" y2="596.89"/><linearGradient xlink:href="#a" id="aG" gradientUnits="userSpaceOnUse" gradientTransform="translate(75.036 71.368) scale(.88334)" x1="614.2" y1="602.45" x2="658.54" y2="596.89"/><linearGradient xlink:href="#a" id="aH" gradientUnits="userSpaceOnUse" gradientTransform="translate(75.036 71.368) scale(.88334)" x1="614.2" y1="602.45" x2="658.54" y2="596.89"/><linearGradient xlink:href="#a" id="aI" gradientUnits="userSpaceOnUse" gradientTransform="translate(75.036 71.368) scale(.88334)" x1="614.2" y1="602.45" x2="658.54" y2="596.89"/><linearGradient xlink:href="#a" id="aJ" gradientUnits="userSpaceOnUse" gradientTransform="translate(75.036 71.368) scale(.88334)" x1="614.2" y1="602.45" x2="658.54" y2="596.89"/><linearGradient xlink:href="#a" id="aK" gradientUnits="userSpaceOnUse" gradientTransform="translate(75.036 71.368) scale(.88334)" x1="614.2" y1="602.45" x2="658.54" y2="596.89"/><linearGradient xlink:href="#a" id="aL" gradientUnits="userSpaceOnUse" gradientTransform="translate(75.036 71.368) scale(.88334)" x1="614.2" y1="602.45" x2="658.54" y2="596.89"/><linearGradient xlink:href="#a" id="aM" gradientUnits="userSpaceOnUse" gradientTransform="translate(75.036 71.368) scale(.88334)" x1="614.2" y1="602.45" x2="658.54" y2="596.89"/><linearGradient xlink:href="#a" id="aN" gradientUnits="userSpaceOnUse" gradientTransform="translate(75.036 71.368) scale(.88334)" x1="614.2" y1="602.45" x2="658.54" y2="596.89"/><linearGradient xlink:href="#a" id="aO" gradientUnits="userSpaceOnUse" gradientTransform="translate(75.036 71.368) scale(.88334)" x1="614.2" y1="602.45" x2="658.54" y2="596.89"/><linearGradient xlink:href="#a" id="aP" gradientUnits="userSpaceOnUse" gradientTransform="translate(75.036 71.368) scale(.88334)" x1="614.2" y1="602.45" x2="658.54" y2="596.89"/><linearGradient xlink:href="#a" id="aQ" gradientUnits="userSpaceOnUse" gradientTransform="translate(75.036 71.368) scale(.88334)" x1="614.2" y1="602.45" x2="658.54" y2="596.89"/><linearGradient xlink:href="#a" id="aR" gradientUnits="userSpaceOnUse" gradientTransform="translate(75.036 71.368) scale(.88334)" x1="614.2" y1="602.45" x2="658.54" y2="596.89"/><linearGradient xlink:href="#a" id="aS" gradientUnits="userSpaceOnUse" gradientTransform="translate(75.036 71.368) scale(.88334)" x1="614.2" y1="602.45" x2="658.54" y2="596.89"/><linearGradient xlink:href="#a" id="aT" gradientUnits="userSpaceOnUse" gradientTransform="translate(75.036 71.368) scale(.88334)" x1="614.2" y1="602.45" x2="658.54" y2="596.89"/><linearGradient xlink:href="#a" id="aU" gradientUnits="userSpaceOnUse" gradientTransform="translate(75.036 71.368) scale(.88334)" x1="614.2" y1="602.45" x2="658.54" y2="596.89"/><linearGradient xlink:href="#a" id="aV" gradientUnits="userSpaceOnUse" gradientTransform="translate(75.036 71.368) scale(.88334)" x1="614.2" y1="602.45" x2="658.54" y2="596.89"/><linearGradient xlink:href="#a" id="aW" gradientUnits="userSpaceOnUse" gradientTransform="translate(75.036 71.368) scale(.88334)" x1="614.2" y1="602.45" x2="658.54" y2="596.89"/><linearGradient xlink:href="#a" id="aX" gradientUnits="userSpaceOnUse" gradientTransform="translate(75.036 71.368) scale(.88334)" x1="614.2" y1="602.45" x2="658.54" y2="596.89"/><linearGradient xlink:href="#a" id="aY" gradientUnits="userSpaceOnUse" gradientTransform="translate(75.036 71.368) scale(.88334)" x1="614.2" y1="602.45" x2="658.54" y2="596.89"/><linearGradient xlink:href="#a" id="aZ" gradientUnits="userSpaceOnUse" gradientTransform="translate(75.036 71.368) scale(.88334)" x1="614.2" y1="602.45" x2="658.54" y2="596.89"/><linearGradient xlink:href="#a" id="ba" gradientUnits="userSpaceOnUse" gradientTransform="translate(75.036 71.368) scale(.88334)" x1="614.2" y1="602.45" x2="658.54" y2="596.89"/><linearGradient xlink:href="#a" id="bb" gradientUnits="userSpaceOnUse" gradientTransform="translate(75.036 71.368) scale(.88334)" x1="614.2" y1="602.45" x2="658.54" y2="596.89"/><linearGradient xlink:href="#a" id="bc" gradientUnits="userSpaceOnUse" gradientTransform="translate(75.036 71.368) scale(.88334)" x1="614.2" y1="602.45" x2="658.54" y2="596.89"/><linearGradient xlink:href="#a" id="bd" gradientUnits="userSpaceOnUse" gradientTransform="translate(75.036 71.368) scale(.88334)" x1="614.2" y1="602.45" x2="658.54" y2="596.89"/><linearGradient xlink:href="#a" id="be" gradientUnits="userSpaceOnUse" gradientTransform="translate(75.036 71.368) scale(.88334)" x1="614.2" y1="602.45" x2="658.54" y2="596.89"/><linearGradient xlink:href="#a" id="bf" gradientUnits="userSpaceOnUse" gradientTransform="translate(75.036 71.368) scale(.88334)" x1="614.2" y1="602.45" x2="658.54" y2="596.89"/><linearGradient xlink:href="#a" id="bg" gradientUnits="userSpaceOnUse" gradientTransform="translate(75.036 71.368) scale(.88334)" x1="614.2" y1="602.45" x2="658.54" y2="596.89"/><linearGradient xlink:href="#a" id="bh" gradientUnits="userSpaceOnUse" gradientTransform="translate(75.036 71.368) scale(.88334)" x1="614.2" y1="602.45" x2="658.54" y2="596.89"/><linearGradient xlink:href="#a" id="bi" gradientUnits="userSpaceOnUse" gradientTransform="translate(75.036 71.368) scale(.88334)" x1="614.2" y1="602.45" x2="658.54" y2="596.89"/><linearGradient xlink:href="#a" id="bj" gradientUnits="userSpaceOnUse" gradientTransform="translate(75.036 71.368) scale(.88334)" x1="614.2" y1="602.45" x2="658.54" y2="596.89"/><linearGradient xlink:href="#a" id="bk" gradientUnits="userSpaceOnUse" gradientTransform="translate(75.036 71.368) scale(.88334)" x1="614.2" y1="602.45" x2="658.54" y2="596.89"/><linearGradient xlink:href="#a" id="bl" gradientUnits="userSpaceOnUse" gradientTransform="translate(75.036 71.368) scale(.88334)" x1="614.2" y1="602.45" x2="658.54" y2="596.89"/><linearGradient xlink:href="#a" id="bm" gradientUnits="userSpaceOnUse" gradientTransform="translate(75.036 71.368) scale(.88334)" x1="614.2" y1="602.45" x2="658.54" y2="596.89"/><linearGradient xlink:href="#a" id="bn" gradientUnits="userSpaceOnUse" gradientTransform="translate(75.036 71.368) scale(.88334)" x1="614.2" y1="602.45" x2="658.54" y2="596.89"/><linearGradient id="c"><stop offset="0" stop-color="#ff0"/><stop offset="1" stop-color="#fb8a00"/></linearGradient><linearGradient id="b"><stop offset="0" stop-color="#d40000"/><stop offset="1" stop-color="#970101"/></linearGradient><linearGradient x1="218.19" y1="608.91" x2="263.65" gradientUnits="userSpaceOnUse" y2="425.06" id="f"><stop offset="0" stop-color="#fdfdfd" stop-opacity=".402"/><stop offset="1" stop-color="#ededed"/></linearGradient><linearGradient x1="38.606" y1="484.51" x2="36.871" gradientUnits="userSpaceOnUse" xlink:href="#b" y2="460.58" id="ac"/><linearGradient x1="97.964" y1="189.41" gradientTransform="matrix(1.091 -.06492 .03293 .89716 11.166 147.36)" x2="84.249" gradientUnits="userSpaceOnUse" y2="-76.108" id="ae"><stop offset="0" stop-color="#c1d600"/><stop offset="1" stop-color="#8a9800"/></linearGradient><linearGradient xlink:href="#b" id="g" gradientUnits="userSpaceOnUse" x1="38.606" y1="484.51" x2="36.871" y2="460.58"/><linearGradient xlink:href="#b" id="i" gradientUnits="userSpaceOnUse" x1="38.606" y1="484.51" x2="36.871" y2="460.58"/><linearGradient xlink:href="#b" id="k" gradientUnits="userSpaceOnUse" x1="38.606" y1="484.51" x2="36.871" y2="460.58"/><linearGradient xlink:href="#b" id="m" gradientUnits="userSpaceOnUse" x1="38.606" y1="484.51" x2="36.871" y2="460.58"/><linearGradient xlink:href="#b" id="o" gradientUnits="userSpaceOnUse" x1="38.606" y1="484.51" x2="36.871" y2="460.58"/><linearGradient xlink:href="#b" id="q" gradientUnits="userSpaceOnUse" x1="38.606" y1="484.51" x2="36.871" y2="460.58"/><linearGradient xlink:href="#b" id="s" gradientUnits="userSpaceOnUse" x1="38.606" y1="484.51" x2="36.871" y2="460.58"/><linearGradient xlink:href="#b" id="u" gradientUnits="userSpaceOnUse" x1="38.606" y1="484.51" x2="36.871" y2="460.58"/><linearGradient xlink:href="#b" id="w" gradientUnits="userSpaceOnUse" x1="38.606" y1="484.51" x2="36.871" y2="460.58"/><linearGradient xlink:href="#b" id="y" gradientUnits="userSpaceOnUse" x1="38.606" y1="484.51" x2="36.871" y2="460.58"/><linearGradient xlink:href="#b" id="A" gradientUnits="userSpaceOnUse" x1="38.606" y1="484.51" x2="36.871" y2="460.58"/><linearGradient xlink:href="#b" id="C" gradientUnits="userSpaceOnUse" x1="38.606" y1="484.51" x2="36.871" y2="460.58"/><linearGradient xlink:href="#b" id="E" gradientUnits="userSpaceOnUse" x1="38.606" y1="484.51" x2="36.871" y2="460.58"/><linearGradient xlink:href="#b" id="G" gradientUnits="userSpaceOnUse" x1="38.606" y1="484.51" x2="36.871" y2="460.58"/><linearGradient xlink:href="#b" id="I" gradientUnits="userSpaceOnUse" x1="38.606" y1="484.51" x2="36.871" y2="460.58"/><linearGradient xlink:href="#b" id="K" gradientUnits="userSpaceOnUse" x1="38.606" y1="484.51" x2="36.871" y2="460.58"/><linearGradient xlink:href="#b" id="M" gradientUnits="userSpaceOnUse" x1="38.606" y1="484.51" x2="36.871" y2="460.58"/><linearGradient xlink:href="#b" id="O" gradientUnits="userSpaceOnUse" x1="38.606" y1="484.51" x2="36.871" y2="460.58"/><linearGradient xlink:href="#b" id="Q" gradientUnits="userSpaceOnUse" x1="38.606" y1="484.51" x2="36.871" y2="460.58"/><linearGradient xlink:href="#b" id="S" gradientUnits="userSpaceOnUse" x1="38.606" y1="484.51" x2="36.871" y2="460.58"/><linearGradient xlink:href="#b" id="U" gradientUnits="userSpaceOnUse" x1="38.606" y1="484.51" x2="36.871" y2="460.58"/><linearGradient xlink:href="#b" id="W" gradientUnits="userSpaceOnUse" x1="38.606" y1="484.51" x2="36.871" y2="460.58"/><linearGradient xlink:href="#b" id="Y" gradientUnits="userSpaceOnUse" x1="38.606" y1="484.51" x2="36.871" y2="460.58"/><linearGradient xlink:href="#b" id="aa" gradientUnits="userSpaceOnUse" x1="38.606" y1="484.51" x2="36.871" y2="460.58"/><radialGradient r="196.84" gradientTransform="matrix(-.01938 2.0885 -1.0792 -.01037 514.05 63.028)" cx="197.84" cy="355.55" gradientUnits="userSpaceOnUse" xlink:href="#b" id="e"/><radialGradient r="9.596" gradientTransform="matrix(-.10114 3.9175 -1.6601 -.06546 804.08 331.92)" cx="37.841" cy="459.27" gradientUnits="userSpaceOnUse" xlink:href="#c" id="ad"/><radialGradient xlink:href="#c" id="h" gradientUnits="userSpaceOnUse" gradientTransform="matrix(-.10114 3.9175 -1.6601 -.06546 804.08 331.92)" cx="37.841" cy="459.27" r="9.596"/><radialGradient xlink:href="#c" id="j" gradientUnits="userSpaceOnUse" gradientTransform="matrix(-.10114 3.9175 -1.6601 -.06546 804.08 331.92)" cx="37.841" cy="459.27" r="9.596"/><radialGradient xlink:href="#c" id="l" gradientUnits="userSpaceOnUse" gradientTransform="matrix(-.10114 3.9175 -1.6601 -.06546 804.08 331.92)" cx="37.841" cy="459.27" r="9.596"/><radialGradient xlink:href="#c" id="n" gradientUnits="userSpaceOnUse" gradientTransform="matrix(-.10114 3.9175 -1.6601 -.06546 804.08 331.92)" cx="37.841" cy="459.27" r="9.596"/><radialGradient xlink:href="#c" id="p" gradientUnits="userSpaceOnUse" gradientTransform="matrix(-.10114 3.9175 -1.6601 -.06546 804.08 331.92)" cx="37.841" cy="459.27" r="9.596"/><radialGradient xlink:href="#c" id="r" gradientUnits="userSpaceOnUse" gradientTransform="matrix(-.10114 3.9175 -1.6601 -.06546 804.08 331.92)" cx="37.841" cy="459.27" r="9.596"/><radialGradient xlink:href="#c" id="t" gradientUnits="userSpaceOnUse" gradientTransform="matrix(-.10114 3.9175 -1.6601 -.06546 804.08 331.92)" cx="37.841" cy="459.27" r="9.596"/><radialGradient xlink:href="#c" id="v" gradientUnits="userSpaceOnUse" gradientTransform="matrix(-.10114 3.9175 -1.6601 -.06546 804.08 331.92)" cx="37.841" cy="459.27" r="9.596"/><radialGradient xlink:href="#c" id="x" gradientUnits="userSpaceOnUse" gradientTransform="matrix(-.10114 3.9175 -1.6601 -.06546 804.08 331.92)" cx="37.841" cy="459.27" r="9.596"/><radialGradient xlink:href="#c" id="z" gradientUnits="userSpaceOnUse" gradientTransform="matrix(-.10114 3.9175 -1.6601 -.06546 804.08 331.92)" cx="37.841" cy="459.27" r="9.596"/><radialGradient xlink:href="#c" id="B" gradientUnits="userSpaceOnUse" gradientTransform="matrix(-.10114 3.9175 -1.6601 -.06546 804.08 331.92)" cx="37.841" cy="459.27" r="9.596"/><radialGradient xlink:href="#c" id="D" gradientUnits="userSpaceOnUse" gradientTransform="matrix(-.10114 3.9175 -1.6601 -.06546 804.08 331.92)" cx="37.841" cy="459.27" r="9.596"/><radialGradient xlink:href="#c" id="F" gradientUnits="userSpaceOnUse" gradientTransform="matrix(-.10114 3.9175 -1.6601 -.06546 804.08 331.92)" cx="37.841" cy="459.27" r="9.596"/><radialGradient xlink:href="#c" id="H" gradientUnits="userSpaceOnUse" gradientTransform="matrix(-.10114 3.9175 -1.6601 -.06546 804.08 331.92)" cx="37.841" cy="459.27" r="9.596"/><radialGradient xlink:href="#c" id="J" gradientUnits="userSpaceOnUse" gradientTransform="matrix(-.10114 3.9175 -1.6601 -.06546 804.08 331.92)" cx="37.841" cy="459.27" r="9.596"/><radialGradient xlink:href="#c" id="L" gradientUnits="userSpaceOnUse" gradientTransform="matrix(-.10114 3.9175 -1.6601 -.06546 804.08 331.92)" cx="37.841" cy="459.27" r="9.596"/><radialGradient xlink:href="#c" id="N" gradientUnits="userSpaceOnUse" gradientTransform="matrix(-.10114 3.9175 -1.6601 -.06546 804.08 331.92)" cx="37.841" cy="459.27" r="9.596"/><radialGradient xlink:href="#c" id="P" gradientUnits="userSpaceOnUse" gradientTransform="matrix(-.10114 3.9175 -1.6601 -.06546 804.08 331.92)" cx="37.841" cy="459.27" r="9.596"/><radialGradient xlink:href="#c" id="R" gradientUnits="userSpaceOnUse" gradientTransform="matrix(-.10114 3.9175 -1.6601 -.06546 804.08 331.92)" cx="37.841" cy="459.27" r="9.596"/><radialGradient xlink:href="#c" id="T" gradientUnits="userSpaceOnUse" gradientTransform="matrix(-.10114 3.9175 -1.6601 -.06546 804.08 331.92)" cx="37.841" cy="459.27" r="9.596"/><radialGradient xlink:href="#c" id="V" gradientUnits="userSpaceOnUse" gradientTransform="matrix(-.10114 3.9175 -1.6601 -.06546 804.08 331.92)" cx="37.841" cy="459.27" r="9.596"/><radialGradient xlink:href="#c" id="X" gradientUnits="userSpaceOnUse" gradientTransform="matrix(-.10114 3.9175 -1.6601 -.06546 804.08 331.92)" cx="37.841" cy="459.27" r="9.596"/><radialGradient xlink:href="#c" id="Z" gradientUnits="userSpaceOnUse" gradientTransform="matrix(-.10114 3.9175 -1.6601 -.06546 804.08 331.92)" cx="37.841" cy="459.27" r="9.596"/><radialGradient xlink:href="#c" id="ab" gradientUnits="userSpaceOnUse" gradientTransform="matrix(-.10114 3.9175 -1.6601 -.06546 804.08 331.92)" cx="37.841" cy="459.27" r="9.596"/><filter id="d" color-interpolation-filters="sRGB"><feGaussianBlur stdDeviation=".67"/></filter><filter id="ag" color-interpolation-filters="sRGB"><feGaussianBlur stdDeviation=".653"/></filter></defs><path d="m 515.04,442.1 c 34.573,-3.9826 77.163,34.187 77.886,91.228 0.67742,53.427 -45.362,88.585 -77.886,88.709 0.0901,-0.001 0.17836,0.002 0.26843,0 0.0789,-0.003 0.15612,0.003 0.23489,0 38.303,0.69439 85.32,-35.896 83.523,-89.704 -1.7401,-52.113 -44.586,-92.894 -83.523,-90.234 -0.0788,-10e-4 1.992,-0.0312 -0.23489,0 -0.0887,-0.003 -0.17968,0.003 -0.26843,0 z" transform="matrix(-1.3759 5.135 -5.7478 -1.5401 4367.3 -1228.56)" fill="#fff" filter="url(#d)"/><g><g><path d="m 125.78,310.85 c -97.107,-1.029 -195.01,15.218 -196.13,123.63 0,0 1.6705,304.16 193.59,308.12 182.26,2.96 202.16,-137 206.67,-286.32 0.35,-112.49 -83.04,-150.32 -204.13,-145.43 z" fill="url(#e)" transform="matrix(.80503 0 0 .80503 878.878 578.19)"/><path d="m 181.74,469.48 c 0,0 26.581,15.164 5.6464,47.79 -20.9346,32.626 -41.566,32.22 -22.396,57.129 19.171,24.909 25.858,63.619 51.756,45.533 25.898,-18.086 57.405,-38.041 45.171,-47.976 -12.234,-9.935 -34.504,-30.355 -17.314,-42.085 17.19,-11.729 46.926,-10.352 37.931,-29.918 -8.9948,-19.565 -29.828,-41.738 -15.286,-50.947 14.542,-9.2097 41.177,-3.3434 40.696,-14.827 -0.48142,-11.484 -7.0526,-32.584 -27.629,-42.288 -20.577,-9.7036 -58.375,-21.131 -68.294,-14.007 -9.9196,7.1246 -37.596,10.338 -41.512,22.923 -3.9152,12.584 -25.106,32.742 -15.521,45.197 9.5853,12.455 28.274,25.88 26.752,23.476 z" opacity=".477" fill="url(#f)" transform="matrix(.80503 0 0 .80503 878.878 578.19)"/><g transform="matrix(.80503 0 0 .80503 983.781 528.584)"><ellipse transform="matrix(1.1861 0 0 1 -5.075 0)" cx="36.871" cy="467.989" rx="9.596" ry="19.698" fill="url(#g)"/><ellipse transform="matrix(.83253 0 0 .67364 8.14 153.45)" cx="36.871" cy="467.989" rx="9.596" ry="19.698" fill="url(#h)"/></g><g transform="matrix(.80503 0 0 .80503 926.044 525.33)"><ellipse transform="matrix(1.1861 0 0 1 -5.075 0)" cx="36.871" cy="467.989" rx="9.596" ry="19.698" fill="url(#i)"/><ellipse transform="matrix(.83253 0 0 .67364 8.14 153.45)" cx="36.871" cy="467.989" rx="9.596" ry="19.698" fill="url(#j)"/></g><g transform="matrix(.80503 0 0 .80503 878.878 513.946)"><ellipse transform="matrix(1.1861 0 0 1 -5.075 0)" cx="36.871" cy="467.989" rx="9.596" ry="19.698" fill="url(#k)"/><ellipse transform="matrix(.83253 0 0 .67364 8.14 153.45)" cx="36.871" cy="467.989" rx="9.596" ry="19.698" fill="url(#l)"/></g><g transform="matrix(.77303 -.22472 .22472 .77303 725.342 557.125)"><ellipse transform="matrix(1.1861 0 0 1 -5.075 0)" cx="36.871" cy="467.989" rx="9.596" ry="19.698" fill="url(#m)"/><ellipse transform="matrix(.83253 0 0 .67364 8.14 153.45)" cx="36.871" cy="467.989" rx="9.596" ry="19.698" fill="url(#n)"/></g><g transform="matrix(.80503 0 0 .80503 888.636 648.125)"><ellipse transform="matrix(1.1861 0 0 1 -5.075 0)" cx="36.871" cy="467.989" rx="9.596" ry="19.698" fill="url(#o)"/><ellipse transform="matrix(.83253 0 0 .67364 8.14 153.45)" cx="36.871" cy="467.989" rx="9.596" ry="19.698" fill="url(#p)"/></g><g transform="matrix(.80503 0 .08256 .80503 833.731 587.135)"><ellipse transform="matrix(1.1861 0 0 1 -5.075 0)" cx="36.871" cy="467.989" rx="9.596" ry="19.698" fill="url(#q)"/><ellipse transform="matrix(.83253 0 0 .67364 8.14 153.45)" cx="36.871" cy="467.989" rx="9.596" ry="19.698" fill="url(#r)"/></g><g transform="matrix(.80503 0 0 .80503 927.67 585.508)"><ellipse transform="matrix(1.1861 0 0 1 -5.075 0)" cx="36.871" cy="467.989" rx="9.596" ry="19.698" fill="url(#s)"/><ellipse transform="matrix(.83253 0 0 .67364 8.14 153.45)" cx="36.871" cy="467.989" rx="9.596" ry="19.698" fill="url(#t)"/></g><g transform="matrix(.78438 -.18117 .18117 .78438 739.59 612.749)"><ellipse transform="matrix(1.1861 0 0 1 -5.075 0)" cx="36.871" cy="467.989" rx="9.596" ry="19.698" fill="url(#u)"/><ellipse transform="matrix(.83253 0 0 .67364 8.14 153.45)" cx="36.871" cy="467.989" rx="9.596" ry="19.698" fill="url(#v)"/></g><g transform="matrix(.80503 0 0 .80503 1034.2 591.2)"><ellipse transform="matrix(1.1861 0 0 1 -5.075 0)" cx="36.871" cy="467.989" rx="9.596" ry="19.698" fill="url(#w)"/><ellipse transform="matrix(.83253 0 0 .67364 8.14 153.45)" cx="36.871" cy="467.989" rx="9.596" ry="19.698" fill="url(#x)"/></g><g transform="matrix(.80503 0 0 .80503 985.408 579.816)"><ellipse transform="matrix(1.1861 0 0 1 -5.075 0)" cx="36.871" cy="467.989" rx="9.596" ry="19.698" fill="url(#y)"/><ellipse transform="matrix(.83253 0 0 .67364 8.14 153.45)" cx="36.871" cy="467.989" rx="9.596" ry="19.698" fill="url(#z)"/></g><g transform="scale(.80503) rotate(12.12 -2376.305 6905.54)"><ellipse transform="matrix(1.1861 0 0 1 -5.075 0)" cx="36.871" cy="467.989" rx="9.596" ry="19.698" fill="url(#A)"/><ellipse transform="matrix(.83253 0 0 .67364 8.14 153.45)" cx="36.871" cy="467.989" rx="9.596" ry="19.698" fill="url(#B)"/></g><g transform="rotate(-16.282 2750.154 -2267.574) scale(.80503)"><ellipse transform="matrix(1.1861 0 0 1 -5.075 0)" cx="36.871" cy="467.989" rx="9.596" ry="19.698" fill="url(#C)"/><ellipse transform="matrix(.83253 0 0 .67364 8.14 153.45)" cx="36.871" cy="467.989" rx="9.596" ry="19.698" fill="url(#D)"/></g><g transform="matrix(.80503 0 0 .80503 930.923 644.873)"><ellipse transform="matrix(1.1861 0 0 1 -5.075 0)" cx="36.871" cy="467.989" rx="9.596" ry="19.698" fill="url(#E)"/><ellipse transform="matrix(.83253 0 0 .67364 8.14 153.45)" cx="36.871" cy="467.989" rx="9.596" ry="19.698" fill="url(#F)"/></g><g transform="matrix(.80503 0 0 .80503 976.464 634.3)"><ellipse transform="matrix(1.1861 0 0 1 -5.075 0)" cx="36.871" cy="467.989" rx="9.596" ry="19.698" fill="url(#G)"/><ellipse transform="matrix(.83253 0 0 .67364 8.14 153.45)" cx="36.871" cy="467.989" rx="9.596" ry="19.698" fill="url(#H)"/></g><g transform="matrix(.80503 0 0 .80503 1022.004 650.565)"><ellipse transform="matrix(1.1861 0 0 1 -5.075 0)" cx="36.871" cy="467.989" rx="9.596" ry="19.698" fill="url(#I)"/><ellipse transform="matrix(.83253 0 0 .67364 8.14 153.45)" cx="36.871" cy="467.989" rx="9.596" ry="19.698" fill="url(#J)"/></g><g transform="matrix(.80503 0 0 .80503 1078.928 605.838)"><ellipse transform="matrix(1.1861 0 0 1 -5.075 0)" cx="36.871" cy="467.989" rx="9.596" ry="19.698" fill="url(#K)"/><ellipse transform="matrix(.83253 0 0 .67364 8.14 153.45)" cx="36.871" cy="467.989" rx="9.596" ry="19.698" fill="url(#L)"/></g><g transform="matrix(.78492 .17885 -.17885 .78492 1168.585 568.594)"><ellipse transform="matrix(1.1861 0 0 1 -5.075 0)" cx="36.871" cy="467.989" rx="9.596" ry="19.698" fill="url(#M)"/><ellipse transform="matrix(.83253 0 0 .67364 8.14 153.45)" cx="36.871" cy="467.989" rx="9.596" ry="19.698" fill="url(#N)"/></g><g transform="matrix(.80503 0 0 .80503 876.438 705.046)"><ellipse transform="matrix(1.1861 0 0 1 -5.075 0)" cx="36.871" cy="467.989" rx="9.596" ry="19.698" fill="url(#O)"/><ellipse transform="matrix(.83253 0 0 .67364 8.14 153.45)" cx="36.871" cy="467.989" rx="9.596" ry="19.698" fill="url(#P)"/></g><g transform="matrix(.80503 0 0 .80503 926.044 700.168)"><ellipse transform="matrix(1.1861 0 0 1 -5.075 0)" cx="36.871" cy="467.989" rx="9.596" ry="19.698" fill="url(#Q)"/><ellipse transform="matrix(.83253 0 0 .67364 8.14 153.45)" cx="36.871" cy="467.989" rx="9.596" ry="19.698" fill="url(#R)"/></g><g transform="matrix(.80503 0 0 .80503 974.838 699.355)"><ellipse transform="matrix(1.1861 0 0 1 -5.075 0)" cx="36.871" cy="467.989" rx="9.596" ry="19.698" fill="url(#S)"/><ellipse transform="matrix(.83253 0 0 .67364 8.14 153.45)" cx="36.871" cy="467.989" rx="9.596" ry="19.698" fill="url(#T)"/></g><g transform="matrix(.74416 .30708 -.30708 .74416 1193.275 728.98)"><ellipse transform="matrix(1.1861 0 0 1 -5.075 0)" cx="36.871" cy="467.989" rx="9.596" ry="19.698" fill="url(#U)"/><ellipse transform="matrix(.83253 0 0 .67364 8.14 153.45)" cx="36.871" cy="467.989" rx="9.596" ry="19.698" fill="url(#V)"/></g><g transform="rotate(11.344 -2768.827 6111.31) scale(.80503)"><ellipse transform="matrix(1.1861 0 0 1 -5.075 0)" cx="36.871" cy="467.989" rx="9.596" ry="19.698" fill="url(#W)"/><ellipse transform="matrix(.83253 0 0 .67364 8.14 153.45)" cx="36.871" cy="467.989" rx="9.596" ry="19.698" fill="url(#X)"/></g><g transform="matrix(.80503 0 0 .80503 1011.426 718.877)"><ellipse transform="matrix(1.1861 0 0 1 -5.075 0)" cx="36.871" cy="467.989" rx="9.596" ry="19.698" fill="url(#Y)"/><ellipse transform="matrix(.83253 0 0 .67364 8.14 153.45)" cx="36.871" cy="467.989" rx="9.596" ry="19.698" fill="url(#Z)"/></g><g transform="matrix(.80503 0 0 .80503 956.946 762.783)"><ellipse transform="matrix(1.1861 0 0 1 -5.075 0)" cx="36.871" cy="467.989" rx="9.596" ry="19.698" fill="url(#aa)"/><ellipse transform="matrix(.83253 0 0 .67364 8.14 153.45)" cx="36.871" cy="467.989" rx="9.596" ry="19.698" fill="url(#ab)"/></g><g transform="matrix(.74095 -.31476 .31476 .74095 755.192 791.12)"><ellipse transform="matrix(1.1861 0 0 1 -5.075 0)" cx="36.871" cy="467.989" rx="9.596" ry="19.698" fill="url(#ac)"/><ellipse transform="matrix(.83253 0 0 .67364 8.14 153.45)" cx="36.871" cy="467.989" rx="9.596" ry="19.698" fill="url(#ad)"/></g><g><path d="m -406.08,461.39 c 0,0 -4.1097,-91.922 57.579,-93.916 66.558,-2.1518 186.88,94.915 186.88,94.915 0,0 -106.07,87.922 -170.72,86.922 -17.17,-0.26536 -76.772,16.985 -73.741,-87.922 z" fill="#8a9800" transform="matrix(.8341 -.19474 .08603 .3685 1282.819 589.837)"/><path d="M-345.48 384.59c-2.2486-.008-4.4306.0891-6.5679.2567-32.474 2.5467-46.064 26.964-51.609 50.184 28.659-13.657 93.76-20.539 240.79 27.017-27.101-17.612-123.18-77.237-182.61-77.458zM-404.94 437c-3.482 19.049-1.8984 35.688-1.8984 35.688 1.739 98.56 61.249 79.484 78.626 78.906 61.958-2.0605 156.72-79.821 166.71-88.156-42.971 25.695-103.59 56.514-149.03 57.812-20.822.59486-92.109 20.207-94.193-81.25 0 0-.10803-1.1851-.22148-3z" fill="#c1d600" transform="matrix(.8341 -.19474 .08603 .3685 1282.819 589.837)"/></g><g><path d="m -406.08,461.39 c 0,0 -4.1097,-91.922 57.579,-93.916 66.558,-2.1518 186.88,94.915 186.88,94.915 0,0 -106.07,87.922 -170.72,86.922 -17.17,-0.26536 -76.772,16.985 -73.741,-87.922 z" fill="#8a9800" transform="matrix(.38236 -.4878 .23237 .16434 1040.995 561.703)"/><path d="M-345.48 384.59c-2.2486-.008-4.4306.0891-6.5679.2567-32.474 2.5467-46.064 26.964-51.609 50.184 28.659-13.657 93.76-20.539 240.79 27.017-27.101-17.612-123.18-77.237-182.61-77.458zM-404.94 437c-3.482 19.049-1.8984 35.688-1.8984 35.688 1.739 98.56 61.249 79.484 78.626 78.906 61.958-2.0605 156.72-79.821 166.71-88.156-42.971 25.695-103.59 56.514-149.03 57.812-20.822.59486-92.109 20.207-94.193-81.25 0 0-.10803-1.1851-.22148-3z" fill="#c1d600" transform="matrix(.38236 -.4878 .23237 .16434 1040.995 561.703)"/></g><g><path d="m -406.08,461.39 c 0,0 -4.1097,-91.922 57.579,-93.916 66.558,-2.1518 186.88,94.915 186.88,94.915 0,0 -106.07,87.922 -170.72,86.922 -17.17,-0.26536 -76.772,16.985 -73.741,-87.922 z" fill="#8a9800" transform="matrix(-.52476 -.52866 .3108 -.17422 628.706 713.942)"/><path d="M-345.48 384.59c-2.2486-.008-4.4306.0891-6.5679.2567-32.474 2.5467-46.064 26.964-51.609 50.184 28.659-13.657 93.76-20.539 240.79 27.017-27.101-17.612-123.18-77.237-182.61-77.458zM-404.94 437c-3.482 19.049-1.8984 35.688-1.8984 35.688 1.739 98.56 61.249 79.484 78.626 78.906 61.958-2.0605 156.72-79.821 166.71-88.156-42.971 25.695-103.59 56.514-149.03 57.812-20.822.59486-92.109 20.207-94.193-81.25 0 0-.10803-1.1851-.22148-3z" fill="#c1d600" transform="matrix(-.52476 -.52866 .3108 -.17422 628.706 713.942)"/></g><path d="m 26.695,102.32 c 0,0 115.8,48.341 100.77,149.42 -15.034,101.08 -12.764,77.827 -12.764,77.827 l 28.149,0.89391 c 0,0 102.76,-167.56 -62.26,-249.33 -50.913,-25.227 -52.336,21.1 -53.895,21.19 z" fill="url(#ae)" transform="matrix(.80503 0 0 .80503 878.878 578.19)"/><g><path d="m -406.08,461.39 c 0,0 -4.1097,-91.922 57.579,-93.916 66.558,-2.1518 186.88,94.915 186.88,94.915 0,0 -106.07,87.922 -170.72,86.922 -17.17,-0.26536 -76.772,16.985 -73.741,-87.922 z" fill="#8a9800" transform="matrix(-.80954 -.005 .21139 -.35879 534.5 1006.426)"/><path d="M-345.48 384.59c-2.2486-.008-4.4306.0891-6.5679.2567-32.474 2.5467-46.064 26.964-51.609 50.184 28.659-13.657 93.76-20.539 240.79 27.017-27.101-17.612-123.18-77.237-182.61-77.458zM-404.94 437c-3.482 19.049-1.8984 35.688-1.8984 35.688 1.739 98.56 61.249 79.484 78.626 78.906 61.958-2.0605 156.72-79.821 166.71-88.156-42.971 25.695-103.59 56.514-149.03 57.812-20.822.59486-92.109 20.207-94.193-81.25 0 0-.10803-1.1851-.22148-3z" fill="#c1d600" transform="matrix(-.80954 -.005 .21139 -.35879 534.5 1006.426)"/></g><g><path d="m -406.08,461.39 c 0,0 -4.1097,-91.922 57.579,-93.916 66.558,-2.1518 186.88,94.915 186.88,94.915 0,0 -106.07,87.922 -170.72,86.922 -17.17,-0.26536 -76.772,16.985 -73.741,-87.922 z" fill="#8a9800" transform="matrix(-.46489 .66272 -.17467 -.37803 877.057 1269.157)"/><path d="M-345.48 384.59c-2.2486-.008-4.4306.0891-6.5679.2567-32.474 2.5467-46.064 26.964-51.609 50.184 28.659-13.657 93.76-20.539 240.79 27.017-27.101-17.612-123.18-77.237-182.61-77.458zM-404.94 437c-3.482 19.049-1.8984 35.688-1.8984 35.688 1.739 98.56 61.249 79.484 78.626 78.906 61.958-2.0605 156.72-79.821 166.71-88.156-42.971 25.695-103.59 56.514-149.03 57.812-20.822.59486-92.109 20.207-94.193-81.25 0 0-.10803-1.1851-.22148-3z" fill="#c1d600" transform="matrix(-.46489 .66272 -.17467 -.37803 877.057 1269.157)"/></g><g><path d="m -406.08,461.39 c 0,0 -4.1097,-91.922 57.579,-93.916 66.558,-2.1518 186.88,94.915 186.88,94.915 0,0 -106.07,87.922 -170.72,86.922 -17.17,-0.26536 -76.772,16.985 -73.741,-87.922 z" fill="#8a9800" transform="matrix(.22657 .62446 -.47137 -.09354 1313.788 1126.038)"/><path d="M-345.48 384.59c-2.2486-.008-4.4306.0891-6.5679.2567-32.474 2.5467-46.064 26.964-51.609 50.184 28.659-13.657 93.76-20.539 240.79 27.017-27.101-17.612-123.18-77.237-182.61-77.458zM-404.94 437c-3.482 19.049-1.8984 35.688-1.8984 35.688 1.739 98.56 61.249 79.484 78.626 78.906 61.958-2.0605 156.72-79.821 166.71-88.156-42.971 25.695-103.59 56.514-149.03 57.812-20.822.59486-92.109 20.207-94.193-81.25 0 0-.10803-1.1851-.22148-3z" fill="#c1d600" transform="matrix(.22657 .62446 -.47137 -.09354 1313.788 1126.038)"/></g></g></g><g><path d="m 1092.2,721.68 c 23.462,8.7314 52.938,7.5367 63.059,38.283 -1.6326,4.2442 2.5704,4.8408 -8.2908,6.6123 -5.6338,-26.892 -30.603,-29.535 -53.879,-34.301 z" transform="matrix(.80489 0 0 .80489 271.088 -88.502)"/><path d="M 1117.5,735.3 C 1186.066,479.41 1009.45,209.73 723.01,132.98 436.56,56.227 148.77,201.469 80.21,457.36 l 1037.3,277.94 z" fill="green" transform="matrix(.80489 0 0 .80489 271.088 -88.502)"/><path d="M 1117.5,735.3 C 1158.752,581.34 959.99,394.32 673.54,317.57 387.09,240.817 121.45,303.403 80.2,457.36 Z" fill="red" transform="matrix(.80489 0 0 .80489 271.088 -88.502)"/><path d="M 1117.5,735.3 C 1048.934,991.19 761.14,1136.43 474.7,1059.68 188.25,982.927 11.64,713.25 80.21,457.36 l 1037.3,277.94 z" fill="green" transform="matrix(.80489 0 0 .80489 271.088 -88.502)"/><path d="M 1117.5,735.3 C 1076.247,889.26 810.61,951.84 524.16,875.09 237.71,798.337 38.95,611.31 80.2,457.36 Z" fill="#f55" transform="matrix(.80489 0 0 .80489 271.088 -88.502)"/><path d="M 1122.2,530.49 C 1083.282,348.67 932.66,189.15 723.01,132.97 513.42,76.809 303.03,139.5002 178.41,277.43 320.35,174.05 515.05,134.5 708.7,186.385 c 193.7,51.901 342.28,183.55 413.5,344.1 z" fill="url(#af)" transform="matrix(.80489 0 0 .80489 271.088 -88.502)"/><path transform="matrix(-.98084 3.66048 -4.63842 -1.24283 3728.973 -842.892)" d="m 515.04,442.1 c 38.102,1.2321 71.818,41.039 71.818,89.969 0,48.93 -33.717,88.737 -71.818,89.969 0.10932,-10e-4 0.21631,0.002 0.32556,0 0.0957,-0.003 0.18933,0.003 0.28487,0 44.766,-1.3933 78.814,-41.143 78.814,-89.969 0,-48.826 -34.048,-88.575 -78.814,-89.969 -0.0956,-0.001 -0.18929,10e-4 -0.28487,0 -0.10755,-0.003 -0.21792,0.003 -0.32556,0 z" fill="#fff" filter="url(#ag)"/><path transform="matrix(.98084 -3.66048 -4.63842 -1.24283 2717.468 2932.2)" d="m 515.04,442.1 c 38.102,1.2321 64.801,41.173 64.801,90.103 0,48.93 -26.699,88.603 -64.801,89.835 0.10932,-10e-4 0.21631,0.002 0.32556,0 0.0957,-0.003 0.18933,0.003 0.28487,0 42.904,-1.0644 69.777,-40.751 72.588,-90.218 2.5726,-45.271 -28.107,-87.067 -72.588,-89.719 -0.0956,-10e-4 -0.18929,10e-4 -0.28487,0 -0.10755,-0.003 -0.21792,0.003 -0.32556,0 z" fill="#fff" filter="url(#ag)"/><path transform="matrix(1.10745 -4.1331 -4.62634 -1.23961 2647.201 3173.828)" d="m 515.04,442.1 c 34.573,-3.9826 73.243,32.227 73.966,89.268 0.67742,53.427 -41.442,90.545 -73.966,90.669 0.0901,-0.001 0.17836,0.002 0.26843,0 0.0789,-0.003 0.15612,0.003 0.23489,0 38.303,0.69439 81.073,-37.203 79.276,-91.01 -1.7401,-52.113 -40.339,-91.587 -79.276,-88.927 -0.0788,-0.001 1.992,-0.0312 -0.23489,0 -0.0887,-0.003 -0.17968,0.003 -0.26843,0 z" fill="#fff" filter="url(#d)"/><g><path d="m 636.43,574.72 c 0,0 17.483,25.01 10.272,34.668 -4.0971,5.4871 -16.447,5.4871 -20.544,0 -7.2109,-9.6574 10.272,-34.668 10.272,-34.668 z" fill="#2b0000" transform="matrix(-.34088 -.09134 .0816 -.30454 1293.136 698.825)"/><path d="m 636.43,574.72 c 0,0 -17.492,24.999 -10.281,34.656 2.3368,3.1296 7.3564,4.4716 12,4.0312 -3.5098,-0.32664 -6.7969,-1.6667 -8.5625,-4.0312 -5.8423,-7.8245 4.3854,-25.517 8.5312,-32.031 -0.96866,-1.5217 -1.6875,-2.625 -1.6875,-2.625 z" transform="matrix(-.34088 -.09134 .0816 -.30454 1293.136 698.825)"/><path d="m 639.62,589.05 c 0,0 8.967,12.828 5.2685,17.781 -2.1014,2.8144 -8.4356,2.8144 -10.537,0 -3.6985,-4.9533 5.2685,-17.781 5.2685,-17.781 z" fill="url(#ah)" transform="matrix(-.34088 -.09134 .0816 -.30454 1293.136 698.825)"/></g><g><path d="m 636.43,574.72 c 0,0 17.483,25.01 10.272,34.668 -4.0971,5.4871 -16.447,5.4871 -20.544,0 -7.2109,-9.6574 10.272,-34.668 10.272,-34.668 z" fill="#2b0000" transform="matrix(-.34088 -.09134 .0816 -.30454 1257.56 683.62)"/><path d="m 636.43,574.72 c 0,0 -17.492,24.999 -10.281,34.656 2.3368,3.1296 7.3564,4.4716 12,4.0312 -3.5098,-0.32664 -6.7969,-1.6667 -8.5625,-4.0312 -5.8423,-7.8245 4.3854,-25.517 8.5312,-32.031 -0.96866,-1.5217 -1.6875,-2.625 -1.6875,-2.625 z" transform="matrix(-.34088 -.09134 .0816 -.30454 1257.56 683.62)"/><path d="m 639.62,589.05 c 0,0 8.967,12.828 5.2685,17.781 -2.1014,2.8144 -8.4356,2.8144 -10.537,0 -3.6985,-4.9533 5.2685,-17.781 5.2685,-17.781 z" fill="url(#ai)" transform="matrix(-.34088 -.09134 .0816 -.30454 1257.56 683.62)"/></g><path d="m 723.05,132.975 c 15.107,24.369 -183.11,57.422 -275.71,83.592 -86.83,24.539 -247.24,93.194 -262.34,68.825 -15.107,-24.369 151.25,-133.48 251.33,-151.73 158.98,-28.993 286.73,-0.68685 286.73,-0.68685 z" fill="url(#aj)" transform="matrix(.80489 0 0 .80489 271.088 -88.502)"/><path d="M 673.58,317.57 C 387.13,240.817 121.5,303.404 80.24,457.36 l 0.54343,0.14561 c 61.204,-147.17 317.61,-207.33 591.21,-134.02 273.6,73.311 465.59997,253.62 445.01997,411.68 l 0.5433,0.14559 c 41.253,-153.96 -157.52997,-340.98 -443.97997,-417.74 z" fill="#efa" transform="matrix(.80489 0 0 .80489 271.088 -88.502)"/><path d="M 524.2,875.09 C 237.75,798.337 39,611.32 80.25,457.36 l 0.54343,0.14561 c -20.579,158.05 171.39,338.36 444.99,411.67 273.6,73.311 530.02997,13.158 591.23997,-134.01 l 0.5433,0.14559 c -41.253,153.96 -306.91997,216.54 -593.36997,139.78 z" fill="#efa" transform="matrix(.80489 0 0 .80489 271.088 -88.502)"/><g><path d="m 636.43,574.72 c 0,0 17.483,25.01 10.272,34.668 -4.0971,5.4871 -16.447,5.4871 -20.544,0 -7.2109,-9.6574 10.272,-34.668 10.272,-34.668 z" fill="#2b0000" transform="matrix(-.34088 -.09134 .0816 -.30454 1213.533 648.874)"/><path d="m 636.43,574.72 c 0,0 -17.492,24.999 -10.281,34.656 2.3368,3.1296 7.3564,4.4716 12,4.0312 -3.5098,-0.32664 -6.7969,-1.6667 -8.5625,-4.0312 -5.8423,-7.8245 4.3854,-25.517 8.5312,-32.031 -0.96866,-1.5217 -1.6875,-2.625 -1.6875,-2.625 z" transform="matrix(-.34088 -.09134 .0816 -.30454 1213.533 648.874)"/><path d="m 639.62,589.05 c 0,0 8.967,12.828 5.2685,17.781 -2.1014,2.8144 -8.4356,2.8144 -10.537,0 -3.6985,-4.9533 5.2685,-17.781 5.2685,-17.781 z" fill="url(#ak)" transform="matrix(-.34088 -.09134 .0816 -.30454 1213.533 648.874)"/></g><g><path d="m 636.43,574.72 c 0,0 17.483,25.01 10.272,34.668 -4.0971,5.4871 -16.447,5.4871 -20.544,0 -7.2109,-9.6574 10.272,-34.668 10.272,-34.668 z" fill="#2b0000" transform="matrix(-.34088 -.09134 .0816 -.30454 1161.295 620.316)"/><path d="m 636.43,574.72 c 0,0 -17.492,24.999 -10.281,34.656 2.3368,3.1296 7.3564,4.4716 12,4.0312 -3.5098,-0.32664 -6.7969,-1.6667 -8.5625,-4.0312 -5.8423,-7.8245 4.3854,-25.517 8.5312,-32.031 -0.96866,-1.5217 -1.6875,-2.625 -1.6875,-2.625 z" transform="matrix(-.34088 -.09134 .0816 -.30454 1161.295 620.316)"/><path d="m 639.62,589.05 c 0,0 8.967,12.828 5.2685,17.781 -2.1014,2.8144 -8.4356,2.8144 -10.537,0 -3.6985,-4.9533 5.2685,-17.781 5.2685,-17.781 z" fill="url(#al)" transform="matrix(-.34088 -.09134 .0816 -.30454 1161.295 620.316)"/></g><g><path d="m 636.43,574.72 c 0,0 17.483,25.01 10.272,34.668 -4.0971,5.4871 -16.447,5.4871 -20.544,0 -7.2109,-9.6574 10.272,-34.668 10.272,-34.668 z" fill="#2b0000" transform="matrix(-.34088 -.09134 .0816 -.30454 1111.07 593.908)"/><path d="m 636.43,574.72 c 0,0 -17.492,24.999 -10.281,34.656 2.3368,3.1296 7.3564,4.4716 12,4.0312 -3.5098,-0.32664 -6.7969,-1.6667 -8.5625,-4.0312 -5.8423,-7.8245 4.3854,-25.517 8.5312,-32.031 -0.96866,-1.5217 -1.6875,-2.625 -1.6875,-2.625 z" transform="matrix(-.34088 -.09134 .0816 -.30454 1111.07 593.908)"/><path d="m 639.62,589.05 c 0,0 8.967,12.828 5.2685,17.781 -2.1014,2.8144 -8.4356,2.8144 -10.537,0 -3.6985,-4.9533 5.2685,-17.781 5.2685,-17.781 z" fill="url(#am)" transform="matrix(-.34088 -.09134 .0816 -.30454 1111.07 593.908)"/></g><g><path d="m 636.43,574.72 c 0,0 17.483,25.01 10.272,34.668 -4.0971,5.4871 -16.447,5.4871 -20.544,0 -7.2109,-9.6574 10.272,-34.668 10.272,-34.668 z" fill="#2b0000" transform="matrix(-.34088 -.09134 .0816 -.30454 1064.862 576.015)"/><path d="m 636.43,574.72 c 0,0 -17.492,24.999 -10.281,34.656 2.3368,3.1296 7.3564,4.4716 12,4.0312 -3.5098,-0.32664 -6.7969,-1.6667 -8.5625,-4.0312 -5.8423,-7.8245 4.3854,-25.517 8.5312,-32.031 -0.96866,-1.5217 -1.6875,-2.625 -1.6875,-2.625 z" transform="matrix(-.34088 -.09134 .0816 -.30454 1064.862 576.015)"/><path d="m 639.62,589.05 c 0,0 8.967,12.828 5.2685,17.781 -2.1014,2.8144 -8.4356,2.8144 -10.537,0 -3.6985,-4.9533 5.2685,-17.781 5.2685,-17.781 z" fill="url(#an)" transform="matrix(-.34088 -.09134 .0816 -.30454 1064.862 576.015)"/></g><g><path d="m 636.43,574.72 c 0,0 17.483,25.01 10.272,34.668 -4.0971,5.4871 -16.447,5.4871 -20.544,0 -7.2109,-9.6574 10.272,-34.668 10.272,-34.668 z" fill="#2b0000" transform="matrix(-.34088 -.09134 .0816 -.30454 1018.653 558.01)"/><path d="m 636.43,574.72 c 0,0 -17.492,24.999 -10.281,34.656 2.3368,3.1296 7.3564,4.4716 12,4.0312 -3.5098,-0.32664 -6.7969,-1.6667 -8.5625,-4.0312 -5.8423,-7.8245 4.3854,-25.517 8.5312,-32.031 -0.96866,-1.5217 -1.6875,-2.625 -1.6875,-2.625 z" transform="matrix(-.34088 -.09134 .0816 -.30454 1018.653 558.01)"/><path d="m 639.62,589.05 c 0,0 8.967,12.828 5.2685,17.781 -2.1014,2.8144 -8.4356,2.8144 -10.537,0 -3.6985,-4.9533 5.2685,-17.781 5.2685,-17.781 z" fill="url(#ao)" transform="matrix(-.34088 -.09134 .0816 -.30454 1018.653 558.01)"/></g><g><path d="m 636.43,574.72 c 0,0 17.483,25.01 10.272,34.668 -4.0971,5.4871 -16.447,5.4871 -20.544,0 -7.2109,-9.6574 10.272,-34.668 10.272,-34.668 z" fill="#2b0000" transform="matrix(-.34088 -.09134 .0816 -.30454 969.466 542.749)"/><path d="m 636.43,574.72 c 0,0 -17.492,24.999 -10.281,34.656 2.3368,3.1296 7.3564,4.4716 12,4.0312 -3.5098,-0.32664 -6.7969,-1.6667 -8.5625,-4.0312 -5.8423,-7.8245 4.3854,-25.517 8.5312,-32.031 -0.96866,-1.5217 -1.6875,-2.625 -1.6875,-2.625 z" transform="matrix(-.34088 -.09134 .0816 -.30454 969.466 542.749)"/><path d="m 639.62,589.05 c 0,0 8.967,12.828 5.2685,17.781 -2.1014,2.8144 -8.4356,2.8144 -10.537,0 -3.6985,-4.9533 5.2685,-17.781 5.2685,-17.781 z" fill="url(#ap)" transform="matrix(-.34088 -.09134 .0816 -.30454 969.466 542.749)"/></g><g><path d="m 636.43,574.72 c 0,0 17.483,25.01 10.272,34.668 -4.0971,5.4871 -16.447,5.4871 -20.544,0 -7.2109,-9.6574 10.272,-34.668 10.272,-34.668 z" fill="#2b0000" transform="matrix(-.34088 -.09134 .0816 -.30454 912.351 531.424)"/><path d="m 636.43,574.72 c 0,0 -17.492,24.999 -10.281,34.656 2.3368,3.1296 7.3564,4.4716 12,4.0312 -3.5098,-0.32664 -6.7969,-1.6667 -8.5625,-4.0312 -5.8423,-7.8245 4.3854,-25.517 8.5312,-32.031 -0.96866,-1.5217 -1.6875,-2.625 -1.6875,-2.625 z" transform="matrix(-.34088 -.09134 .0816 -.30454 912.351 531.424)"/><path d="m 639.62,589.05 c 0,0 8.967,12.828 5.2685,17.781 -2.1014,2.8144 -8.4356,2.8144 -10.537,0 -3.6985,-4.9533 5.2685,-17.781 5.2685,-17.781 z" fill="url(#aq)" transform="matrix(-.34088 -.09134 .0816 -.30454 912.351 531.424)"/></g><g><path d="m 636.43,574.72 c 0,0 17.483,25.01 10.272,34.668 -4.0971,5.4871 -16.447,5.4871 -20.544,0 -7.2109,-9.6574 10.272,-34.668 10.272,-34.668 z" fill="#2b0000" transform="matrix(-.34088 -.09134 .0816 -.30454 859.164 520.872)"/><path d="m 636.43,574.72 c 0,0 -17.492,24.999 -10.281,34.656 2.3368,3.1296 7.3564,4.4716 12,4.0312 -3.5098,-0.32664 -6.7969,-1.6667 -8.5625,-4.0312 -5.8423,-7.8245 4.3854,-25.517 8.5312,-32.031 -0.96866,-1.5217 -1.6875,-2.625 -1.6875,-2.625 z" transform="matrix(-.34088 -.09134 .0816 -.30454 859.164 520.872)"/><path d="m 639.62,589.05 c 0,0 8.967,12.828 5.2685,17.781 -2.1014,2.8144 -8.4356,2.8144 -10.537,0 -3.6985,-4.9533 5.2685,-17.781 5.2685,-17.781 z" fill="url(#ar)" transform="matrix(-.34088 -.09134 .0816 -.30454 859.164 520.872)"/></g><g><path d="m 636.43,574.72 c 0,0 17.483,25.01 10.272,34.668 -4.0971,5.4871 -16.447,5.4871 -20.544,0 -7.2109,-9.6574 10.272,-34.668 10.272,-34.668 z" fill="#2b0000" transform="matrix(-.34088 -.09134 .0816 -.30454 811.474 513.298)"/><path d="m 636.43,574.72 c 0,0 -17.492,24.999 -10.281,34.656 2.3368,3.1296 7.3564,4.4716 12,4.0312 -3.5098,-0.32664 -6.7969,-1.6667 -8.5625,-4.0312 -5.8423,-7.8245 4.3854,-25.517 8.5312,-32.031 -0.96866,-1.5217 -1.6875,-2.625 -1.6875,-2.625 z" transform="matrix(-.34088 -.09134 .0816 -.30454 811.474 513.298)"/><path d="m 639.62,589.05 c 0,0 8.967,12.828 5.2685,17.781 -2.1014,2.8144 -8.4356,2.8144 -10.537,0 -3.6985,-4.9533 5.2685,-17.781 5.2685,-17.781 z" fill="url(#as)" transform="matrix(-.34088 -.09134 .0816 -.30454 811.474 513.298)"/></g><g><path d="m 636.43,574.72 c 0,0 17.483,25.01 10.272,34.668 -4.0971,5.4871 -16.447,5.4871 -20.544,0 -7.2109,-9.6574 10.272,-34.668 10.272,-34.668 z" fill="#2b0000" transform="matrix(-.34088 -.09134 .0816 -.30454 756.323 509.306)"/><path d="m 636.43,574.72 c 0,0 -17.492,24.999 -10.281,34.656 2.3368,3.1296 7.3564,4.4716 12,4.0312 -3.5098,-0.32664 -6.7969,-1.6667 -8.5625,-4.0312 -5.8423,-7.8245 4.3854,-25.517 8.5312,-32.031 -0.96866,-1.5217 -1.6875,-2.625 -1.6875,-2.625 z" transform="matrix(-.34088 -.09134 .0816 -.30454 756.323 509.306)"/><path d="m 639.62,589.05 c 0,0 8.967,12.828 5.2685,17.781 -2.1014,2.8144 -8.4356,2.8144 -10.537,0 -3.6985,-4.9533 5.2685,-17.781 5.2685,-17.781 z" fill="url(#at)" transform="matrix(-.34088 -.09134 .0816 -.30454 756.323 509.306)"/></g><g><path d="m 636.43,574.72 c 0,0 17.483,25.01 10.272,34.668 -4.0971,5.4871 -16.447,5.4871 -20.544,0 -7.2109,-9.6574 10.272,-34.668 10.272,-34.668 z" fill="#2b0000" transform="matrix(-.34088 -.09134 .0816 -.30454 704.15 506.561)"/><path d="m 636.43,574.72 c 0,0 -17.492,24.999 -10.281,34.656 2.3368,3.1296 7.3564,4.4716 12,4.0312 -3.5098,-0.32664 -6.7969,-1.6667 -8.5625,-4.0312 -5.8423,-7.8245 4.3854,-25.517 8.5312,-32.031 -0.96866,-1.5217 -1.6875,-2.625 -1.6875,-2.625 z" transform="matrix(-.34088 -.09134 .0816 -.30454 704.15 506.561)"/><path d="m 639.62,589.05 c 0,0 8.967,12.828 5.2685,17.781 -2.1014,2.8144 -8.4356,2.8144 -10.537,0 -3.6985,-4.9533 5.2685,-17.781 5.2685,-17.781 z" fill="url(#au)" transform="matrix(-.34088 -.09134 .0816 -.30454 704.15 506.561)"/></g><g><path d="m 636.43,574.72 c 0,0 17.483,25.01 10.272,34.668 -4.0971,5.4871 -16.447,5.4871 -20.544,0 -7.2109,-9.6574 10.272,-34.668 10.272,-34.668 z" fill="#2b0000" transform="matrix(-.34088 -.09134 .0816 -.30454 643.043 512.284)"/><path d="m 636.43,574.72 c 0,0 -17.492,24.999 -10.281,34.656 2.3368,3.1296 7.3564,4.4716 12,4.0312 -3.5098,-0.32664 -6.7969,-1.6667 -8.5625,-4.0312 -5.8423,-7.8245 4.3854,-25.517 8.5312,-32.031 -0.96866,-1.5217 -1.6875,-2.625 -1.6875,-2.625 z" transform="matrix(-.34088 -.09134 .0816 -.30454 643.043 512.284)"/><path d="m 639.62,589.05 c 0,0 8.967,12.828 5.2685,17.781 -2.1014,2.8144 -8.4356,2.8144 -10.537,0 -3.6985,-4.9533 5.2685,-17.781 5.2685,-17.781 z" fill="url(#av)" transform="matrix(-.34088 -.09134 .0816 -.30454 643.043 512.284)"/></g><g><path d="m 636.43,574.72 c 0,0 17.483,25.01 10.272,34.668 -4.0971,5.4871 -16.447,5.4871 -20.544,0 -7.2109,-9.6574 10.272,-34.668 10.272,-34.668 z" fill="#2b0000" transform="matrix(-.34088 -.09134 .0816 -.30454 580.439 523.31)"/><path d="m 636.43,574.72 c 0,0 -17.492,24.999 -10.281,34.656 2.3368,3.1296 7.3564,4.4716 12,4.0312 -3.5098,-0.32664 -6.7969,-1.6667 -8.5625,-4.0312 -5.8423,-7.8245 4.3854,-25.517 8.5312,-32.031 -0.96866,-1.5217 -1.6875,-2.625 -1.6875,-2.625 z" transform="matrix(-.34088 -.09134 .0816 -.30454 580.439 523.31)"/><path d="m 639.62,589.05 c 0,0 8.967,12.828 5.2685,17.781 -2.1014,2.8144 -8.4356,2.8144 -10.537,0 -3.6985,-4.9533 5.2685,-17.781 5.2685,-17.781 z" fill="url(#aw)" transform="matrix(-.34088 -.09134 .0816 -.30454 580.439 523.31)"/></g><g><path d="m 636.43,574.72 c 0,0 17.483,25.01 10.272,34.668 -4.0971,5.4871 -16.447,5.4871 -20.544,0 -7.2109,-9.6574 10.272,-34.668 10.272,-34.668 z" fill="#2b0000" transform="matrix(-.34088 -.09134 .0816 -.30454 1270.84 632.68)"/><path d="m 636.43,574.72 c 0,0 -17.492,24.999 -10.281,34.656 2.3368,3.1296 7.3564,4.4716 12,4.0312 -3.5098,-0.32664 -6.7969,-1.6667 -8.5625,-4.0312 -5.8423,-7.8245 4.3854,-25.517 8.5312,-32.031 -0.96866,-1.5217 -1.6875,-2.625 -1.6875,-2.625 z" transform="matrix(-.34088 -.09134 .0816 -.30454 1270.84 632.68)"/><path d="m 639.62,589.05 c 0,0 8.967,12.828 5.2685,17.781 -2.1014,2.8144 -8.4356,2.8144 -10.537,0 -3.6985,-4.9533 5.2685,-17.781 5.2685,-17.781 z" fill="url(#ax)" transform="matrix(-.34088 -.09134 .0816 -.30454 1270.84 632.68)"/></g><g><path d="m 636.43,574.72 c 0,0 17.483,25.01 10.272,34.668 -4.0971,5.4871 -16.447,5.4871 -20.544,0 -7.2109,-9.6574 10.272,-34.668 10.272,-34.668 z" fill="#2b0000" transform="matrix(-.34088 -.09134 .0816 -.30454 1220.374 591.493)"/><path d="m 636.43,574.72 c 0,0 -17.492,24.999 -10.281,34.656 2.3368,3.1296 7.3564,4.4716 12,4.0312 -3.5098,-0.32664 -6.7969,-1.6667 -8.5625,-4.0312 -5.8423,-7.8245 4.3854,-25.517 8.5312,-32.031 -0.96866,-1.5217 -1.6875,-2.625 -1.6875,-2.625 z" transform="matrix(-.34088 -.09134 .0816 -.30454 1220.374 591.493)"/><path d="m 639.62,589.05 c 0,0 8.967,12.828 5.2685,17.781 -2.1014,2.8144 -8.4356,2.8144 -10.537,0 -3.6985,-4.9533 5.2685,-17.781 5.2685,-17.781 z" fill="url(#ay)" transform="matrix(-.34088 -.09134 .0816 -.30454 1220.374 591.493)"/></g><g><path d="m 636.43,574.72 c 0,0 17.483,25.01 10.272,34.668 -4.0971,5.4871 -16.447,5.4871 -20.544,0 -7.2109,-9.6574 10.272,-34.668 10.272,-34.668 z" fill="#2b0000" transform="matrix(-.34088 -.09134 .0816 -.30454 1174.576 561.326)"/><path d="m 636.43,574.72 c 0,0 -17.492,24.999 -10.281,34.656 2.3368,3.1296 7.3564,4.4716 12,4.0312 -3.5098,-0.32664 -6.7969,-1.6667 -8.5625,-4.0312 -5.8423,-7.8245 4.3854,-25.517 8.5312,-32.031 -0.96866,-1.5217 -1.6875,-2.625 -1.6875,-2.625 z" transform="matrix(-.34088 -.09134 .0816 -.30454 1174.576 561.326)"/><path d="m 639.62,589.05 c 0,0 8.967,12.828 5.2685,17.781 -2.1014,2.8144 -8.4356,2.8144 -10.537,0 -3.6985,-4.9533 5.2685,-17.781 5.2685,-17.781 z" fill="url(#az)" transform="matrix(-.34088 -.09134 .0816 -.30454 1174.576 561.326)"/></g><g><path d="m 636.43,574.72 c 0,0 17.483,25.01 10.272,34.668 -4.0971,5.4871 -16.447,5.4871 -20.544,0 -7.2109,-9.6574 10.272,-34.668 10.272,-34.668 z" fill="#2b0000" transform="matrix(-.34088 -.09134 .0816 -.30454 1124.35 536.527)"/><path d="m 636.43,574.72 c 0,0 -17.492,24.999 -10.281,34.656 2.3368,3.1296 7.3564,4.4716 12,4.0312 -3.5098,-0.32664 -6.7969,-1.6667 -8.5625,-4.0312 -5.8423,-7.8245 4.3854,-25.517 8.5312,-32.031 -0.96866,-1.5217 -1.6875,-2.625 -1.6875,-2.625 z" transform="matrix(-.34088 -.09134 .0816 -.30454 1124.35 536.527)"/><path d="m 639.62,589.05 c 0,0 8.967,12.828 5.2685,17.781 -2.1014,2.8144 -8.4356,2.8144 -10.537,0 -3.6985,-4.9533 5.2685,-17.781 5.2685,-17.781 z" fill="url(#aA)" transform="matrix(-.34088 -.09134 .0816 -.30454 1124.35 536.527)"/></g><g><path d="m 636.43,574.72 c 0,0 17.483,25.01 10.272,34.668 -4.0971,5.4871 -16.447,5.4871 -20.544,0 -7.2109,-9.6574 10.272,-34.668 10.272,-34.668 z" fill="#2b0000" transform="matrix(-.34088 -.09134 .0816 -.30454 1082.98 510.586)"/><path d="m 636.43,574.72 c 0,0 -17.492,24.999 -10.281,34.656 2.3368,3.1296 7.3564,4.4716 12,4.0312 -3.5098,-0.32664 -6.7969,-1.6667 -8.5625,-4.0312 -5.8423,-7.8245 4.3854,-25.517 8.5312,-32.031 -0.96866,-1.5217 -1.6875,-2.625 -1.6875,-2.625 z" transform="matrix(-.34088 -.09134 .0816 -.30454 1082.98 510.586)"/><path d="m 639.62,589.05 c 0,0 8.967,12.828 5.2685,17.781 -2.1014,2.8144 -8.4356,2.8144 -10.537,0 -3.6985,-4.9533 5.2685,-17.781 5.2685,-17.781 z" fill="url(#aB)" transform="matrix(-.34088 -.09134 .0816 -.30454 1082.98 510.586)"/></g><g><path d="m 636.43,574.72 c 0,0 17.483,25.01 10.272,34.668 -4.0971,5.4871 -16.447,5.4871 -20.544,0 -7.2109,-9.6574 10.272,-34.668 10.272,-34.668 z" fill="#2b0000" transform="matrix(-.34088 -.09134 .0816 -.30454 1038.389 490.97)"/><path d="m 636.43,574.72 c 0,0 -17.492,24.999 -10.281,34.656 2.3368,3.1296 7.3564,4.4716 12,4.0312 -3.5098,-0.32664 -6.7969,-1.6667 -8.5625,-4.0312 -5.8423,-7.8245 4.3854,-25.517 8.5312,-32.031 -0.96866,-1.5217 -1.6875,-2.625 -1.6875,-2.625 z" transform="matrix(-.34088 -.09134 .0816 -.30454 1038.389 490.97)"/><path d="m 639.62,589.05 c 0,0 8.967,12.828 5.2685,17.781 -2.1014,2.8144 -8.4356,2.8144 -10.537,0 -3.6985,-4.9533 5.2685,-17.781 5.2685,-17.781 z" fill="url(#aC)" transform="matrix(-.34088 -.09134 .0816 -.30454 1038.389 490.97)"/></g><g><path d="m 636.43,574.72 c 0,0 17.483,25.01 10.272,34.668 -4.0971,5.4871 -16.447,5.4871 -20.544,0 -7.2109,-9.6574 10.272,-34.668 10.272,-34.668 z" fill="#2b0000" transform="matrix(-.34088 -.09134 .0816 -.30454 987.592 475.71)"/><path d="m 636.43,574.72 c 0,0 -17.492,24.999 -10.281,34.656 2.3368,3.1296 7.3564,4.4716 12,4.0312 -3.5098,-0.32664 -6.7969,-1.6667 -8.5625,-4.0312 -5.8423,-7.8245 4.3854,-25.517 8.5312,-32.031 -0.96866,-1.5217 -1.6875,-2.625 -1.6875,-2.625 z" transform="matrix(-.34088 -.09134 .0816 -.30454 987.592 475.71)"/><path d="m 639.62,589.05 c 0,0 8.967,12.828 5.2685,17.781 -2.1014,2.8144 -8.4356,2.8144 -10.537,0 -3.6985,-4.9533 5.2685,-17.781 5.2685,-17.781 z" fill="url(#aD)" transform="matrix(-.34088 -.09134 .0816 -.30454 987.592 475.71)"/></g><g><path d="m 636.43,574.72 c 0,0 17.483,25.01 10.272,34.668 -4.0971,5.4871 -16.447,5.4871 -20.544,0 -7.2109,-9.6574 10.272,-34.668 10.272,-34.668 z" fill="#2b0000" transform="matrix(-.34088 -.09134 .0816 -.30454 933.689 464.385)"/><path d="m 636.43,574.72 c 0,0 -17.492,24.999 -10.281,34.656 2.3368,3.1296 7.3564,4.4716 12,4.0312 -3.5098,-0.32664 -6.7969,-1.6667 -8.5625,-4.0312 -5.8423,-7.8245 4.3854,-25.517 8.5312,-32.031 -0.96866,-1.5217 -1.6875,-2.625 -1.6875,-2.625 z" transform="matrix(-.34088 -.09134 .0816 -.30454 933.689 464.385)"/><path d="m 639.62,589.05 c 0,0 8.967,12.828 5.2685,17.781 -2.1014,2.8144 -8.4356,2.8144 -10.537,0 -3.6985,-4.9533 5.2685,-17.781 5.2685,-17.781 z" fill="url(#aE)" transform="matrix(-.34088 -.09134 .0816 -.30454 933.689 464.385)"/></g><g><path d="m 636.43,574.72 c 0,0 17.483,25.01 10.272,34.668 -4.0971,5.4871 -16.447,5.4871 -20.544,0 -7.2109,-9.6574 10.272,-34.668 10.272,-34.668 z" fill="#2b0000" transform="matrix(-.34088 -.09134 .0816 -.30454 872.46 453.833)"/><path d="m 636.43,574.72 c 0,0 -17.492,24.999 -10.281,34.656 2.3368,3.1296 7.3564,4.4716 12,4.0312 -3.5098,-0.32664 -6.7969,-1.6667 -8.5625,-4.0312 -5.8423,-7.8245 4.3854,-25.517 8.5312,-32.031 -0.96866,-1.5217 -1.6875,-2.625 -1.6875,-2.625 z" transform="matrix(-.34088 -.09134 .0816 -.30454 872.46 453.833)"/><path d="m 639.62,589.05 c 0,0 8.967,12.828 5.2685,17.781 -2.1014,2.8144 -8.4356,2.8144 -10.537,0 -3.6985,-4.9533 5.2685,-17.781 5.2685,-17.781 z" fill="url(#aF)" transform="matrix(-.34088 -.09134 .0816 -.30454 872.46 453.833)"/></g><g><path d="m 636.43,574.72 c 0,0 17.483,25.01 10.272,34.668 -4.0971,5.4871 -16.447,5.4871 -20.544,0 -7.2109,-9.6574 10.272,-34.668 10.272,-34.668 z" fill="#2b0000" transform="matrix(-.34088 -.09134 .0816 -.30454 824.763 451.088)"/><path d="m 636.43,574.72 c 0,0 -17.492,24.999 -10.281,34.656 2.3368,3.1296 7.3564,4.4716 12,4.0312 -3.5098,-0.32664 -6.7969,-1.6667 -8.5625,-4.0312 -5.8423,-7.8245 4.3854,-25.517 8.5312,-32.031 -0.96866,-1.5217 -1.6875,-2.625 -1.6875,-2.625 z" transform="matrix(-.34088 -.09134 .0816 -.30454 824.763 451.088)"/><path d="m 639.62,589.05 c 0,0 8.967,12.828 5.2685,17.781 -2.1014,2.8144 -8.4356,2.8144 -10.537,0 -3.6985,-4.9533 5.2685,-17.781 5.2685,-17.781 z" fill="url(#aG)" transform="matrix(-.34088 -.09134 .0816 -.30454 824.763 451.088)"/></g><g><path d="m 636.43,574.72 c 0,0 17.483,25.01 10.272,34.668 -4.0971,5.4871 -16.447,5.4871 -20.544,0 -7.2109,-9.6574 10.272,-34.668 10.272,-34.668 z" fill="#2b0000" transform="matrix(-.34088 -.09134 .0816 -.30454 769.612 450.315)"/><path d="m 636.43,574.72 c 0,0 -17.492,24.999 -10.281,34.656 2.3368,3.1296 7.3564,4.4716 12,4.0312 -3.5098,-0.32664 -6.7969,-1.6667 -8.5625,-4.0312 -5.8423,-7.8245 4.3854,-25.517 8.5312,-32.031 -0.96866,-1.5217 -1.6875,-2.625 -1.6875,-2.625 z" transform="matrix(-.34088 -.09134 .0816 -.30454 769.612 450.315)"/><path d="m 639.62,589.05 c 0,0 8.967,12.828 5.2685,17.781 -2.1014,2.8144 -8.4356,2.8144 -10.537,0 -3.6985,-4.9533 5.2685,-17.781 5.2685,-17.781 z" fill="url(#aH)" transform="matrix(-.34088 -.09134 .0816 -.30454 769.612 450.315)"/></g><g><path d="m 636.43,574.72 c 0,0 17.483,25.01 10.272,34.668 -4.0971,5.4871 -16.447,5.4871 -20.544,0 -7.2109,-9.6574 10.272,-34.668 10.272,-34.668 z" fill="#2b0000" transform="matrix(-.34088 -.09134 .0816 -.30454 712.618 455.62)"/><path d="m 636.43,574.72 c 0,0 -17.492,24.999 -10.281,34.656 2.3368,3.1296 7.3564,4.4716 12,4.0312 -3.5098,-0.32664 -6.7969,-1.6667 -8.5625,-4.0312 -5.8423,-7.8245 4.3854,-25.517 8.5312,-32.031 -0.96866,-1.5217 -1.6875,-2.625 -1.6875,-2.625 z" transform="matrix(-.34088 -.09134 .0816 -.30454 712.618 455.62)"/><path d="m 639.62,589.05 c 0,0 8.967,12.828 5.2685,17.781 -2.1014,2.8144 -8.4356,2.8144 -10.537,0 -3.6985,-4.9533 5.2685,-17.781 5.2685,-17.781 z" fill="url(#aI)" transform="matrix(-.34088 -.09134 .0816 -.30454 712.618 455.62)"/></g><g><path d="m 636.43,574.72 c 0,0 17.483,25.01 10.272,34.668 -4.0971,5.4871 -16.447,5.4871 -20.544,0 -7.2109,-9.6574 10.272,-34.668 10.272,-34.668 z" fill="#2b0000" transform="matrix(-.34088 -.09134 .0816 -.30454 648.283 466.172)"/><path d="m 636.43,574.72 c 0,0 -17.492,24.999 -10.281,34.656 2.3368,3.1296 7.3564,4.4716 12,4.0312 -3.5098,-0.32664 -6.7969,-1.6667 -8.5625,-4.0312 -5.8423,-7.8245 4.3854,-25.517 8.5312,-32.031 -0.96866,-1.5217 -1.6875,-2.625 -1.6875,-2.625 z" transform="matrix(-.34088 -.09134 .0816 -.30454 648.283 466.172)"/><path d="m 639.62,589.05 c 0,0 8.967,12.828 5.2685,17.781 -2.1014,2.8144 -8.4356,2.8144 -10.537,0 -3.6985,-4.9533 5.2685,-17.781 5.2685,-17.781 z" fill="url(#aJ)" transform="matrix(-.34088 -.09134 .0816 -.30454 648.283 466.172)"/></g><g><path d="m 636.43,574.72 c 0,0 17.483,25.01 10.272,34.668 -4.0971,5.4871 -16.447,5.4871 -20.544,0 -7.2109,-9.6574 10.272,-34.668 10.272,-34.668 z" fill="#2b0000" transform="matrix(-.34088 -.09134 .0816 -.30454 587.288 482.028)"/><path d="m 636.43,574.72 c 0,0 -17.492,24.999 -10.281,34.656 2.3368,3.1296 7.3564,4.4716 12,4.0312 -3.5098,-0.32664 -6.7969,-1.6667 -8.5625,-4.0312 -5.8423,-7.8245 4.3854,-25.517 8.5312,-32.031 -0.96866,-1.5217 -1.6875,-2.625 -1.6875,-2.625 z" transform="matrix(-.34088 -.09134 .0816 -.30454 587.288 482.028)"/><path d="m 639.62,589.05 c 0,0 8.967,12.828 5.2685,17.781 -2.1014,2.8144 -8.4356,2.8144 -10.537,0 -3.6985,-4.9533 5.2685,-17.781 5.2685,-17.781 z" fill="url(#aK)" transform="matrix(-.34088 -.09134 .0816 -.30454 587.288 482.028)"/></g><g><path d="m 636.43,574.72 c 0,0 17.483,25.01 10.272,34.668 -4.0971,5.4871 -16.447,5.4871 -20.544,0 -7.2109,-9.6574 10.272,-34.668 10.272,-34.668 z" fill="#2b0000" transform="matrix(-.34088 -.09134 -.0816 .30454 1367.427 397.474)"/><path d="m 636.43,574.72 c 0,0 -17.492,24.999 -10.281,34.656 2.3368,3.1296 7.3564,4.4716 12,4.0312 -3.5098,-0.32664 -6.7969,-1.6667 -8.5625,-4.0312 -5.8423,-7.8245 4.3854,-25.517 8.5312,-32.031 -0.96866,-1.5217 -1.6875,-2.625 -1.6875,-2.625 z" transform="matrix(-.34088 -.09134 -.0816 .30454 1367.427 397.474)"/><path d="m 639.62,589.05 c 0,0 8.967,12.828 5.2685,17.781 -2.1014,2.8144 -8.4356,2.8144 -10.537,0 -3.6985,-4.9533 5.2685,-17.781 5.2685,-17.781 z" fill="url(#aL)" transform="matrix(-.34088 -.09134 -.0816 .30454 1367.427 397.474)"/></g><g><path d="m 636.43,574.72 c 0,0 17.483,25.01 10.272,34.668 -4.0971,5.4871 -16.447,5.4871 -20.544,0 -7.2109,-9.6574 10.272,-34.668 10.272,-34.668 z" fill="#2b0000" transform="matrix(-.34088 -.09134 -.0816 .30454 1324.124 391.55)"/><path d="m 636.43,574.72 c 0,0 -17.492,24.999 -10.281,34.656 2.3368,3.1296 7.3564,4.4716 12,4.0312 -3.5098,-0.32664 -6.7969,-1.6667 -8.5625,-4.0312 -5.8423,-7.8245 4.3854,-25.517 8.5312,-32.031 -0.96866,-1.5217 -1.6875,-2.625 -1.6875,-2.625 z" transform="matrix(-.34088 -.09134 -.0816 .30454 1324.124 391.55)"/><path d="m 639.62,589.05 c 0,0 8.967,12.828 5.2685,17.781 -2.1014,2.8144 -8.4356,2.8144 -10.537,0 -3.6985,-4.9533 5.2685,-17.781 5.2685,-17.781 z" fill="url(#aM)" transform="matrix(-.34088 -.09134 -.0816 .30454 1324.124 391.55)"/></g><g><path d="m 636.43,574.72 c 0,0 17.483,25.01 10.272,34.668 -4.0971,5.4871 -16.447,5.4871 -20.544,0 -7.2109,-9.6574 10.272,-34.668 10.272,-34.668 z" fill="#2b0000" transform="matrix(-.34088 -.09134 -.0816 .30454 1271.082 390.625)"/><path d="m 636.43,574.72 c 0,0 -17.492,24.999 -10.281,34.656 2.3368,3.1296 7.3564,4.4716 12,4.0312 -3.5098,-0.32664 -6.7969,-1.6667 -8.5625,-4.0312 -5.8423,-7.8245 4.3854,-25.517 8.5312,-32.031 -0.96866,-1.5217 -1.6875,-2.625 -1.6875,-2.625 z" transform="matrix(-.34088 -.09134 -.0816 .30454 1271.082 390.625)"/><path d="m 639.62,589.05 c 0,0 8.967,12.828 5.2685,17.781 -2.1014,2.8144 -8.4356,2.8144 -10.537,0 -3.6985,-4.9533 5.2685,-17.781 5.2685,-17.781 z" fill="url(#aN)" transform="matrix(-.34088 -.09134 -.0816 .30454 1271.082 390.625)"/></g><g><path d="m 636.43,574.72 c 0,0 17.483,25.01 10.272,34.668 -4.0971,5.4871 -16.447,5.4871 -20.544,0 -7.2109,-9.6574 10.272,-34.668 10.272,-34.668 z" fill="#2b0000" transform="matrix(-.34088 -.09134 -.0816 .30454 1210.716 388.999)"/><path d="m 636.43,574.72 c 0,0 -17.492,24.999 -10.281,34.656 2.3368,3.1296 7.3564,4.4716 12,4.0312 -3.5098,-0.32664 -6.7969,-1.6667 -8.5625,-4.0312 -5.8423,-7.8245 4.3854,-25.517 8.5312,-32.031 -0.96866,-1.5217 -1.6875,-2.625 -1.6875,-2.625 z" transform="matrix(-.34088 -.09134 -.0816 .30454 1210.716 388.999)"/><path d="m 639.62,589.05 c 0,0 8.967,12.828 5.2685,17.781 -2.1014,2.8144 -8.4356,2.8144 -10.537,0 -3.6985,-4.9533 5.2685,-17.781 5.2685,-17.781 z" fill="url(#aO)" transform="matrix(-.34088 -.09134 -.0816 .30454 1210.716 388.999)"/></g><g><path d="m 636.43,574.72 c 0,0 17.483,25.01 10.272,34.668 -4.0971,5.4871 -16.447,5.4871 -20.544,0 -7.2109,-9.6574 10.272,-34.668 10.272,-34.668 z" fill="#2b0000" transform="matrix(-.34088 -.09134 -.0816 .30454 1154.856 383.767)"/><path d="m 636.43,574.72 c 0,0 -17.492,24.999 -10.281,34.656 2.3368,3.1296 7.3564,4.4716 12,4.0312 -3.5098,-0.32664 -6.7969,-1.6667 -8.5625,-4.0312 -5.8423,-7.8245 4.3854,-25.517 8.5312,-32.031 -0.96866,-1.5217 -1.6875,-2.625 -1.6875,-2.625 z" transform="matrix(-.34088 -.09134 -.0816 .30454 1154.856 383.767)"/><path d="m 639.62,589.05 c 0,0 8.967,12.828 5.2685,17.781 -2.1014,2.8144 -8.4356,2.8144 -10.537,0 -3.6985,-4.9533 5.2685,-17.781 5.2685,-17.781 z" fill="url(#aP)" transform="matrix(-.34088 -.09134 -.0816 .30454 1154.856 383.767)"/></g><g><path d="m 636.43,574.72 c 0,0 17.483,25.01 10.272,34.668 -4.0971,5.4871 -16.447,5.4871 -20.544,0 -7.2109,-9.6574 10.272,-34.668 10.272,-34.668 z" fill="#2b0000" transform="matrix(-.34088 -.09134 -.0816 .30454 1105.034 377.545)"/><path d="m 636.43,574.72 c 0,0 -17.492,24.999 -10.281,34.656 2.3368,3.1296 7.3564,4.4716 12,4.0312 -3.5098,-0.32664 -6.7969,-1.6667 -8.5625,-4.0312 -5.8423,-7.8245 4.3854,-25.517 8.5312,-32.031 -0.96866,-1.5217 -1.6875,-2.625 -1.6875,-2.625 z" transform="matrix(-.34088 -.09134 -.0816 .30454 1105.034 377.545)"/><path d="m 639.62,589.05 c 0,0 8.967,12.828 5.2685,17.781 -2.1014,2.8144 -8.4356,2.8144 -10.537,0 -3.6985,-4.9533 5.2685,-17.781 5.2685,-17.781 z" fill="url(#aQ)" transform="matrix(-.34088 -.09134 -.0816 .30454 1105.034 377.545)"/></g><g><path d="m 636.43,574.72 c 0,0 17.483,25.01 10.272,34.668 -4.0971,5.4871 -16.447,5.4871 -20.544,0 -7.2109,-9.6574 10.272,-34.668 10.272,-34.668 z" fill="#2b0000" transform="matrix(-.34088 -.09134 -.0816 .30454 1055.235 373.046)"/><path d="m 636.43,574.72 c 0,0 -17.492,24.999 -10.281,34.656 2.3368,3.1296 7.3564,4.4716 12,4.0312 -3.5098,-0.32664 -6.7969,-1.6667 -8.5625,-4.0312 -5.8423,-7.8245 4.3854,-25.517 8.5312,-32.031 -0.96866,-1.5217 -1.6875,-2.625 -1.6875,-2.625 z" transform="matrix(-.34088 -.09134 -.0816 .30454 1055.235 373.046)"/><path d="m 639.62,589.05 c 0,0 8.967,12.828 5.2685,17.781 -2.1014,2.8144 -8.4356,2.8144 -10.537,0 -3.6985,-4.9533 5.2685,-17.781 5.2685,-17.781 z" fill="url(#aR)" transform="matrix(-.34088 -.09134 -.0816 .30454 1055.235 373.046)"/></g><g><path d="m 636.43,574.72 c 0,0 17.483,25.01 10.272,34.668 -4.0971,5.4871 -16.447,5.4871 -20.544,0 -7.2109,-9.6574 10.272,-34.668 10.272,-34.668 z" fill="#2b0000" transform="matrix(-.34088 -.09134 -.0816 .30454 1006.62 360.49)"/><path d="m 636.43,574.72 c 0,0 -17.492,24.999 -10.281,34.656 2.3368,3.1296 7.3564,4.4716 12,4.0312 -3.5098,-0.32664 -6.7969,-1.6667 -8.5625,-4.0312 -5.8423,-7.8245 4.3854,-25.517 8.5312,-32.031 -0.96866,-1.5217 -1.6875,-2.625 -1.6875,-2.625 z" transform="matrix(-.34088 -.09134 -.0816 .30454 1006.62 360.49)"/><path d="m 639.62,589.05 c 0,0 8.967,12.828 5.2685,17.781 -2.1014,2.8144 -8.4356,2.8144 -10.537,0 -3.6985,-4.9533 5.2685,-17.781 5.2685,-17.781 z" fill="url(#aS)" transform="matrix(-.34088 -.09134 -.0816 .30454 1006.62 360.49)"/></g><g><path d="m 636.43,574.72 c 0,0 17.483,25.01 10.272,34.668 -4.0971,5.4871 -16.447,5.4871 -20.544,0 -7.2109,-9.6574 10.272,-34.668 10.272,-34.668 z" fill="#2b0000" transform="matrix(-.34088 -.09134 -.0816 .30454 957.063 348.183)"/><path d="m 636.43,574.72 c 0,0 -17.492,24.999 -10.281,34.656 2.3368,3.1296 7.3564,4.4716 12,4.0312 -3.5098,-0.32664 -6.7969,-1.6667 -8.5625,-4.0312 -5.8423,-7.8245 4.3854,-25.517 8.5312,-32.031 -0.96866,-1.5217 -1.6875,-2.625 -1.6875,-2.625 z" transform="matrix(-.34088 -.09134 -.0816 .30454 957.063 348.183)"/><path d="m 639.62,589.05 c 0,0 8.967,12.828 5.2685,17.781 -2.1014,2.8144 -8.4356,2.8144 -10.537,0 -3.6985,-4.9533 5.2685,-17.781 5.2685,-17.781 z" fill="url(#aT)" transform="matrix(-.34088 -.09134 -.0816 .30454 957.063 348.183)"/></g><g><path d="m 636.43,574.72 c 0,0 17.483,25.01 10.272,34.668 -4.0971,5.4871 -16.447,5.4871 -20.544,0 -7.2109,-9.6574 10.272,-34.668 10.272,-34.668 z" fill="#2b0000" transform="matrix(-.34088 -.09134 -.0816 .30454 899.352 330.508)"/><path d="m 636.43,574.72 c 0,0 -17.492,24.999 -10.281,34.656 2.3368,3.1296 7.3564,4.4716 12,4.0312 -3.5098,-0.32664 -6.7969,-1.6667 -8.5625,-4.0312 -5.8423,-7.8245 4.3854,-25.517 8.5312,-32.031 -0.96866,-1.5217 -1.6875,-2.625 -1.6875,-2.625 z" transform="matrix(-.34088 -.09134 -.0816 .30454 899.352 330.508)"/><path d="m 639.62,589.05 c 0,0 8.967,12.828 5.2685,17.781 -2.1014,2.8144 -8.4356,2.8144 -10.537,0 -3.6985,-4.9533 5.2685,-17.781 5.2685,-17.781 z" fill="url(#aU)" transform="matrix(-.34088 -.09134 -.0816 .30454 899.352 330.508)"/></g><g><path d="m 636.43,574.72 c 0,0 17.483,25.01 10.272,34.668 -4.0971,5.4871 -16.447,5.4871 -20.544,0 -7.2109,-9.6574 10.272,-34.668 10.272,-34.668 z" fill="#2b0000" transform="matrix(-.34088 -.09134 -.0816 .30454 855.864 312.044)"/><path d="m 636.43,574.72 c 0,0 -17.492,24.999 -10.281,34.656 2.3368,3.1296 7.3564,4.4716 12,4.0312 -3.5098,-0.32664 -6.7969,-1.6667 -8.5625,-4.0312 -5.8423,-7.8245 4.3854,-25.517 8.5312,-32.031 -0.96866,-1.5217 -1.6875,-2.625 -1.6875,-2.625 z" transform="matrix(-.34088 -.09134 -.0816 .30454 855.864 312.044)"/><path d="m 639.62,589.05 c 0,0 8.967,12.828 5.2685,17.781 -2.1014,2.8144 -8.4356,2.8144 -10.537,0 -3.6985,-4.9533 5.2685,-17.781 5.2685,-17.781 z" fill="url(#aV)" transform="matrix(-.34088 -.09134 -.0816 .30454 855.864 312.044)"/></g><g><path d="m 636.43,574.72 c 0,0 17.483,25.01 10.272,34.668 -4.0971,5.4871 -16.447,5.4871 -20.544,0 -7.2109,-9.6574 10.272,-34.668 10.272,-34.668 z" fill="#2b0000" transform="matrix(-.34088 -.09134 -.0816 .30454 807.715 286.746)"/><path d="m 636.43,574.72 c 0,0 -17.492,24.999 -10.281,34.656 2.3368,3.1296 7.3564,4.4716 12,4.0312 -3.5098,-0.32664 -6.7969,-1.6667 -8.5625,-4.0312 -5.8423,-7.8245 4.3854,-25.517 8.5312,-32.031 -0.96866,-1.5217 -1.6875,-2.625 -1.6875,-2.625 z" transform="matrix(-.34088 -.09134 -.0816 .30454 807.715 286.746)"/><path d="m 639.62,589.05 c 0,0 8.967,12.828 5.2685,17.781 -2.1014,2.8144 -8.4356,2.8144 -10.537,0 -3.6985,-4.9533 5.2685,-17.781 5.2685,-17.781 z" fill="url(#aW)" transform="matrix(-.34088 -.09134 -.0816 .30454 807.715 286.746)"/></g><g><path d="m 636.43,574.72 c 0,0 17.483,25.01 10.272,34.668 -4.0971,5.4871 -16.447,5.4871 -20.544,0 -7.2109,-9.6574 10.272,-34.668 10.272,-34.668 z" fill="#2b0000" transform="matrix(-.34088 -.09134 -.0816 .30454 761.169 263.042)"/><path d="m 636.43,574.72 c 0,0 -17.492,24.999 -10.281,34.656 2.3368,3.1296 7.3564,4.4716 12,4.0312 -3.5098,-0.32664 -6.7969,-1.6667 -8.5625,-4.0312 -5.8423,-7.8245 4.3854,-25.517 8.5312,-32.031 -0.96866,-1.5217 -1.6875,-2.625 -1.6875,-2.625 z" transform="matrix(-.34088 -.09134 -.0816 .30454 761.169 263.042)"/><path d="m 639.62,589.05 c 0,0 8.967,12.828 5.2685,17.781 -2.1014,2.8144 -8.4356,2.8144 -10.537,0 -3.6985,-4.9533 5.2685,-17.781 5.2685,-17.781 z" fill="url(#aX)" transform="matrix(-.34088 -.09134 -.0816 .30454 761.169 263.042)"/></g><g><path d="m 636.43,574.72 c 0,0 17.483,25.01 10.272,34.668 -4.0971,5.4871 -16.447,5.4871 -20.544,0 -7.2109,-9.6574 10.272,-34.668 10.272,-34.668 z" fill="#2b0000" transform="matrix(-.34088 -.09134 -.0816 .30454 711.105 227.522)"/><path d="m 636.43,574.72 c 0,0 -17.492,24.999 -10.281,34.656 2.3368,3.1296 7.3564,4.4716 12,4.0312 -3.5098,-0.32664 -6.7969,-1.6667 -8.5625,-4.0312 -5.8423,-7.8245 4.3854,-25.517 8.5312,-32.031 -0.96866,-1.5217 -1.6875,-2.625 -1.6875,-2.625 z" transform="matrix(-.34088 -.09134 -.0816 .30454 711.105 227.522)"/><path d="m 639.62,589.05 c 0,0 8.967,12.828 5.2685,17.781 -2.1014,2.8144 -8.4356,2.8144 -10.537,0 -3.6985,-4.9533 5.2685,-17.781 5.2685,-17.781 z" fill="url(#aY)" transform="matrix(-.34088 -.09134 -.0816 .30454 711.105 227.522)"/></g><g><path d="m 636.43,574.72 c 0,0 17.483,25.01 10.272,34.668 -4.0971,5.4871 -16.447,5.4871 -20.544,0 -7.2109,-9.6574 10.272,-34.668 10.272,-34.668 z" fill="#2b0000" transform="matrix(-.34088 -.09134 -.0816 .30454 652.742 193.113)"/><path d="m 636.43,574.72 c 0,0 -17.492,24.999 -10.281,34.656 2.3368,3.1296 7.3564,4.4716 12,4.0312 -3.5098,-0.32664 -6.7969,-1.6667 -8.5625,-4.0312 -5.8423,-7.8245 4.3854,-25.517 8.5312,-32.031 -0.96866,-1.5217 -1.6875,-2.625 -1.6875,-2.625 z" transform="matrix(-.34088 -.09134 -.0816 .30454 652.742 193.113)"/><path d="m 639.62,589.05 c 0,0 8.967,12.828 5.2685,17.781 -2.1014,2.8144 -8.4356,2.8144 -10.537,0 -3.6985,-4.9533 5.2685,-17.781 5.2685,-17.781 z" fill="url(#aZ)" transform="matrix(-.34088 -.09134 -.0816 .30454 652.742 193.113)"/></g><g><path d="m 636.43,574.72 c 0,0 17.483,25.01 10.272,34.668 -4.0971,5.4871 -16.447,5.4871 -20.544,0 -7.2109,-9.6574 10.272,-34.668 10.272,-34.668 z" fill="#2b0000" transform="matrix(-.34088 -.09134 -.0816 .30454 1315.03 443.61)"/><path d="m 636.43,574.72 c 0,0 -17.492,24.999 -10.281,34.656 2.3368,3.1296 7.3564,4.4716 12,4.0312 -3.5098,-0.32664 -6.7969,-1.6667 -8.5625,-4.0312 -5.8423,-7.8245 4.3854,-25.517 8.5312,-32.031 -0.96866,-1.5217 -1.6875,-2.625 -1.6875,-2.625 z" transform="matrix(-.34088 -.09134 -.0816 .30454 1315.03 443.61)"/><path d="m 639.62,589.05 c 0,0 8.967,12.828 5.2685,17.781 -2.1014,2.8144 -8.4356,2.8144 -10.537,0 -3.6985,-4.9533 5.2685,-17.781 5.2685,-17.781 z" fill="url(#ba)" transform="matrix(-.34088 -.09134 -.0816 .30454 1315.03 443.61)"/></g><g><path d="m 636.43,574.72 c 0,0 17.483,25.01 10.272,34.668 -4.0971,5.4871 -16.447,5.4871 -20.544,0 -7.2109,-9.6574 10.272,-34.668 10.272,-34.668 z" fill="#2b0000" transform="matrix(-.34088 -.09134 -.0816 .30454 1250.719 454.05)"/><path d="m 636.43,574.72 c 0,0 -17.492,24.999 -10.281,34.656 2.3368,3.1296 7.3564,4.4716 12,4.0312 -3.5098,-0.32664 -6.7969,-1.6667 -8.5625,-4.0312 -5.8423,-7.8245 4.3854,-25.517 8.5312,-32.031 -0.96866,-1.5217 -1.6875,-2.625 -1.6875,-2.625 z" transform="matrix(-.34088 -.09134 -.0816 .30454 1250.719 454.05)"/><path d="m 639.62,589.05 c 0,0 8.967,12.828 5.2685,17.781 -2.1014,2.8144 -8.4356,2.8144 -10.537,0 -3.6985,-4.9533 5.2685,-17.781 5.2685,-17.781 z" fill="url(#bb)" transform="matrix(-.34088 -.09134 -.0816 .30454 1250.719 454.05)"/></g><g><path d="m 636.43,574.72 c 0,0 17.483,25.01 10.272,34.668 -4.0971,5.4871 -16.447,5.4871 -20.544,0 -7.2109,-9.6574 10.272,-34.668 10.272,-34.668 z" fill="#2b0000" transform="matrix(-.34088 -.09134 -.0816 .30454 1195.906 457.254)"/><path d="m 636.43,574.72 c 0,0 -17.492,24.999 -10.281,34.656 2.3368,3.1296 7.3564,4.4716 12,4.0312 -3.5098,-0.32664 -6.7969,-1.6667 -8.5625,-4.0312 -5.8423,-7.8245 4.3854,-25.517 8.5312,-32.031 -0.96866,-1.5217 -1.6875,-2.625 -1.6875,-2.625 z" transform="matrix(-.34088 -.09134 -.0816 .30454 1195.906 457.254)"/><path d="m 639.62,589.05 c 0,0 8.967,12.828 5.2685,17.781 -2.1014,2.8144 -8.4356,2.8144 -10.537,0 -3.6985,-4.9533 5.2685,-17.781 5.2685,-17.781 z" fill="url(#bc)" transform="matrix(-.34088 -.09134 -.0816 .30454 1195.906 457.254)"/></g><g><path d="m 636.43,574.72 c 0,0 17.483,25.01 10.272,34.668 -4.0971,5.4871 -16.447,5.4871 -20.544,0 -7.2109,-9.6574 10.272,-34.668 10.272,-34.668 z" fill="#2b0000" transform="matrix(-.34088 -.09134 -.0816 .30454 1140.046 453.632)"/><path d="m 636.43,574.72 c 0,0 -17.492,24.999 -10.281,34.656 2.3368,3.1296 7.3564,4.4716 12,4.0312 -3.5098,-0.32664 -6.7969,-1.6667 -8.5625,-4.0312 -5.8423,-7.8245 4.3854,-25.517 8.5312,-32.031 -0.96866,-1.5217 -1.6875,-2.625 -1.6875,-2.625 z" transform="matrix(-.34088 -.09134 -.0816 .30454 1140.046 453.632)"/><path d="m 639.62,589.05 c 0,0 8.967,12.828 5.2685,17.781 -2.1014,2.8144 -8.4356,2.8144 -10.537,0 -3.6985,-4.9533 5.2685,-17.781 5.2685,-17.781 z" fill="url(#bd)" transform="matrix(-.34088 -.09134 -.0816 .30454 1140.046 453.632)"/></g><g><path d="m 636.43,574.72 c 0,0 17.483,25.01 10.272,34.668 -4.0971,5.4871 -16.447,5.4871 -20.544,0 -7.2109,-9.6574 10.272,-34.668 10.272,-34.668 z" fill="#2b0000" transform="matrix(-.34088 -.09134 -.0816 .30454 1091.27 455.402)"/><path d="m 636.43,574.72 c 0,0 -17.492,24.999 -10.281,34.656 2.3368,3.1296 7.3564,4.4716 12,4.0312 -3.5098,-0.32664 -6.7969,-1.6667 -8.5625,-4.0312 -5.8423,-7.8245 4.3854,-25.517 8.5312,-32.031 -0.96866,-1.5217 -1.6875,-2.625 -1.6875,-2.625 z" transform="matrix(-.34088 -.09134 -.0816 .30454 1091.27 455.402)"/><path d="m 639.62,589.05 c 0,0 8.967,12.828 5.2685,17.781 -2.1014,2.8144 -8.4356,2.8144 -10.537,0 -3.6985,-4.9533 5.2685,-17.781 5.2685,-17.781 z" fill="url(#be)" transform="matrix(-.34088 -.09134 -.0816 .30454 1091.27 455.402)"/></g><g><path d="m 636.43,574.72 c 0,0 17.483,25.01 10.272,34.668 -4.0971,5.4871 -16.447,5.4871 -20.544,0 -7.2109,-9.6574 10.272,-34.668 10.272,-34.668 z" fill="#2b0000" transform="matrix(-.34088 -.09134 -.0816 .30454 1042.832 450.09)"/><path d="m 636.43,574.72 c 0,0 -17.492,24.999 -10.281,34.656 2.3368,3.1296 7.3564,4.4716 12,4.0312 -3.5098,-0.32664 -6.7969,-1.6667 -8.5625,-4.0312 -5.8423,-7.8245 4.3854,-25.517 8.5312,-32.031 -0.96866,-1.5217 -1.6875,-2.625 -1.6875,-2.625 z" transform="matrix(-.34088 -.09134 -.0816 .30454 1042.832 450.09)"/><path d="m 639.62,589.05 c 0,0 8.967,12.828 5.2685,17.781 -2.1014,2.8144 -8.4356,2.8144 -10.537,0 -3.6985,-4.9533 5.2685,-17.781 5.2685,-17.781 z" fill="url(#bf)" transform="matrix(-.34088 -.09134 -.0816 .30454 1042.832 450.09)"/></g><g><path d="m 636.43,574.72 c 0,0 17.483,25.01 10.272,34.668 -4.0971,5.4871 -16.447,5.4871 -20.544,0 -7.2109,-9.6574 10.272,-34.668 10.272,-34.668 z" fill="#2b0000" transform="matrix(-.34088 -.09134 -.0816 .30454 991.206 437.912)"/><path d="m 636.43,574.72 c 0,0 -17.492,24.999 -10.281,34.656 2.3368,3.1296 7.3564,4.4716 12,4.0312 -3.5098,-0.32664 -6.7969,-1.6667 -8.5625,-4.0312 -5.8423,-7.8245 4.3854,-25.517 8.5312,-32.031 -0.96866,-1.5217 -1.6875,-2.625 -1.6875,-2.625 z" transform="matrix(-.34088 -.09134 -.0816 .30454 991.206 437.912)"/><path d="m 639.62,589.05 c 0,0 8.967,12.828 5.2685,17.781 -2.1014,2.8144 -8.4356,2.8144 -10.537,0 -3.6985,-4.9533 5.2685,-17.781 5.2685,-17.781 z" fill="url(#bg)" transform="matrix(-.34088 -.09134 -.0816 .30454 991.206 437.912)"/></g><g><path d="m 636.43,574.72 c 0,0 17.483,25.01 10.272,34.668 -4.0971,5.4871 -16.447,5.4871 -20.544,0 -7.2109,-9.6574 10.272,-34.668 10.272,-34.668 z" fill="#2b0000" transform="matrix(-.34088 -.09134 -.0816 .30454 938.864 420.776)"/><path d="m 636.43,574.72 c 0,0 -17.492,24.999 -10.281,34.656 2.3368,3.1296 7.3564,4.4716 12,4.0312 -3.5098,-0.32664 -6.7969,-1.6667 -8.5625,-4.0312 -5.8423,-7.8245 4.3854,-25.517 8.5312,-32.031 -0.96866,-1.5217 -1.6875,-2.625 -1.6875,-2.625 z" transform="matrix(-.34088 -.09134 -.0816 .30454 938.864 420.776)"/><path d="m 639.62,589.05 c 0,0 8.967,12.828 5.2685,17.781 -2.1014,2.8144 -8.4356,2.8144 -10.537,0 -3.6985,-4.9533 5.2685,-17.781 5.2685,-17.781 z" fill="url(#bh)" transform="matrix(-.34088 -.09134 -.0816 .30454 938.864 420.776)"/></g><g><path d="m 636.43,574.72 c 0,0 17.483,25.01 10.272,34.668 -4.0971,5.4871 -16.447,5.4871 -20.544,0 -7.2109,-9.6574 10.272,-34.668 10.272,-34.668 z" fill="#2b0000" transform="matrix(-.34088 -.09134 -.0816 .30454 880.558 399.302)"/><path d="m 636.43,574.72 c 0,0 -17.492,24.999 -10.281,34.656 2.3368,3.1296 7.3564,4.4716 12,4.0312 -3.5098,-0.32664 -6.7969,-1.6667 -8.5625,-4.0312 -5.8423,-7.8245 4.3854,-25.517 8.5312,-32.031 -0.96866,-1.5217 -1.6875,-2.625 -1.6875,-2.625 z" transform="matrix(-.34088 -.09134 -.0816 .30454 880.558 399.302)"/><path d="m 639.62,589.05 c 0,0 8.967,12.828 5.2685,17.781 -2.1014,2.8144 -8.4356,2.8144 -10.537,0 -3.6985,-4.9533 5.2685,-17.781 5.2685,-17.781 z" fill="url(#bi)" transform="matrix(-.34088 -.09134 -.0816 .30454 880.558 399.302)"/></g><g><path d="m 636.43,574.72 c 0,0 17.483,25.01 10.272,34.668 -4.0971,5.4871 -16.447,5.4871 -20.544,0 -7.2109,-9.6574 10.272,-34.668 10.272,-34.668 z" fill="#2b0000" transform="matrix(-.34088 -.09134 -.0816 .30454 837.883 377.827)"/><path d="m 636.43,574.72 c 0,0 -17.492,24.999 -10.281,34.656 2.3368,3.1296 7.3564,4.4716 12,4.0312 -3.5098,-0.32664 -6.7969,-1.6667 -8.5625,-4.0312 -5.8423,-7.8245 4.3854,-25.517 8.5312,-32.031 -0.96866,-1.5217 -1.6875,-2.625 -1.6875,-2.625 z" transform="matrix(-.34088 -.09134 -.0816 .30454 837.883 377.827)"/><path d="m 639.62,589.05 c 0,0 8.967,12.828 5.2685,17.781 -2.1014,2.8144 -8.4356,2.8144 -10.537,0 -3.6985,-4.9533 5.2685,-17.781 5.2685,-17.781 z" fill="url(#bj)" transform="matrix(-.34088 -.09134 -.0816 .30454 837.883 377.827)"/></g><g><path d="m 636.43,574.72 c 0,0 17.483,25.01 10.272,34.668 -4.0971,5.4871 -16.447,5.4871 -20.544,0 -7.2109,-9.6574 10.272,-34.668 10.272,-34.668 z" fill="#2b0000" transform="matrix(-.34088 -.09134 -.0816 .30454 789.734 350.92)"/><path d="m 636.43,574.72 c 0,0 -17.492,24.999 -10.281,34.656 2.3368,3.1296 7.3564,4.4716 12,4.0312 -3.5098,-0.32664 -6.7969,-1.6667 -8.5625,-4.0312 -5.8423,-7.8245 4.3854,-25.517 8.5312,-32.031 -0.96866,-1.5217 -1.6875,-2.625 -1.6875,-2.625 z" transform="matrix(-.34088 -.09134 -.0816 .30454 789.734 350.92)"/><path d="m 639.62,589.05 c 0,0 8.967,12.828 5.2685,17.781 -2.1014,2.8144 -8.4356,2.8144 -10.537,0 -3.6985,-4.9533 5.2685,-17.781 5.2685,-17.781 z" fill="url(#bk)" transform="matrix(-.34088 -.09134 -.0816 .30454 789.734 350.92)"/></g><g><path d="m 636.43,574.72 c 0,0 17.483,25.01 10.272,34.668 -4.0971,5.4871 -16.447,5.4871 -20.544,0 -7.2109,-9.6574 10.272,-34.668 10.272,-34.668 z" fill="#2b0000" transform="matrix(-.34088 -.09134 -.0816 .30454 743.027 317.823)"/><path d="m 636.43,574.72 c 0,0 -17.492,24.999 -10.281,34.656 2.3368,3.1296 7.3564,4.4716 12,4.0312 -3.5098,-0.32664 -6.7969,-1.6667 -8.5625,-4.0312 -5.8423,-7.8245 4.3854,-25.517 8.5312,-32.031 -0.96866,-1.5217 -1.6875,-2.625 -1.6875,-2.625 z" transform="matrix(-.34088 -.09134 -.0816 .30454 743.027 317.823)"/><path d="m 639.62,589.05 c 0,0 8.967,12.828 5.2685,17.781 -2.1014,2.8144 -8.4356,2.8144 -10.537,0 -3.6985,-4.9533 5.2685,-17.781 5.2685,-17.781 z" fill="url(#bl)" transform="matrix(-.34088 -.09134 -.0816 .30454 743.027 317.823)"/></g><g><path d="m 636.43,574.72 c 0,0 17.483,25.01 10.272,34.668 -4.0971,5.4871 -16.447,5.4871 -20.544,0 -7.2109,-9.6574 10.272,-34.668 10.272,-34.668 z" fill="#2b0000" transform="matrix(-.34088 -.09134 -.0816 .30454 692.592 276.524)"/><path d="m 636.43,574.72 c 0,0 -17.492,24.999 -10.281,34.656 2.3368,3.1296 7.3564,4.4716 12,4.0312 -3.5098,-0.32664 -6.7969,-1.6667 -8.5625,-4.0312 -5.8423,-7.8245 4.3854,-25.517 8.5312,-32.031 -0.96866,-1.5217 -1.6875,-2.625 -1.6875,-2.625 z" transform="matrix(-.34088 -.09134 -.0816 .30454 692.592 276.524)"/><path d="m 639.62,589.05 c 0,0 8.967,12.828 5.2685,17.781 -2.1014,2.8144 -8.4356,2.8144 -10.537,0 -3.6985,-4.9533 5.2685,-17.781 5.2685,-17.781 z" fill="url(#bm)" transform="matrix(-.34088 -.09134 -.0816 .30454 692.592 276.524)"/></g><g><path d="m 636.43,574.72 c 0,0 17.483,25.01 10.272,34.668 -4.0971,5.4871 -16.447,5.4871 -20.544,0 -7.2109,-9.6574 10.272,-34.668 10.272,-34.668 z" fill="#2b0000" transform="matrix(-.34088 -.09134 -.0816 .30454 647.695 232.287)"/><path d="m 636.43,574.72 c 0,0 -17.492,24.999 -10.281,34.656 2.3368,3.1296 7.3564,4.4716 12,4.0312 -3.5098,-0.32664 -6.7969,-1.6667 -8.5625,-4.0312 -5.8423,-7.8245 4.3854,-25.517 8.5312,-32.031 -0.96866,-1.5217 -1.6875,-2.625 -1.6875,-2.625 z" transform="matrix(-.34088 -.09134 -.0816 .30454 647.695 232.287)"/><path d="m 639.62,589.05 c 0,0 8.967,12.828 5.2685,17.781 -2.1014,2.8144 -8.4356,2.8144 -10.537,0 -3.6985,-4.9533 5.2685,-17.781 5.2685,-17.781 z" fill="url(#bn)" transform="matrix(-.34088 -.09134 -.0816 .30454 647.695 232.287)"/></g></g><g><path d="M 200.117,68.765 C 195.705,44.061 174.53,24.647 148.059,24.647 121.587,24.647 100.413,44.061 96,68.765 Z" fill="#ffe37b" transform="matrix(1.76595 0 0 1.76595 -10.525 646.148)"/><path d="M 209.823,86.412 H 86.294 c -5.295,0 -8.822,-3.529 -8.822,-8.824 C 77.471,38.766 109.236,7 148.059,7 c 38.822,0 70.588,31.766 70.588,70.588 -0.001,5.295 -3.524,8.824 -8.824,8.824 M 96.001,68.765 H 200.117 C 195.705,44.061 174.53,24.647 148.059,24.647 c -26.471,0 -47.646,19.414 -52.058,44.118" fill="#004463" transform="matrix(1.76595 0 0 1.76595 -10.525 646.148)"/><path d="m 183.353,86.412 h -70.588 c -5.291,0 -8.823,-3.529 -8.823,-8.824 0,-24.704 19.413,-44.117 44.117,-44.117 24.709,0 44.118,19.413 44.118,44.117 0,5.295 -3.529,8.824 -8.824,8.824 M 123.354,68.765 h 50.296 c -3.533,-10.59 -13.235,-17.647 -24.708,-17.647 -11.469,0 -22.059,7.057 -25.588,17.647" fill="#004463" transform="matrix(1.76595 0 0 1.76595 -10.525 646.148)"/><path d="m 201,51.118 c 9.736,0 17.646,7.906 17.646,17.647 0,9.741 -7.91,17.647 -17.646,17.647 -9.741,0 -17.646,-7.906 -17.646,-17.647 -0.001,-9.741 7.905,-17.647 17.646,-17.647" fill="#f6b545" transform="matrix(1.76595 0 0 1.76595 -10.525 646.148)"/><path d="m 201,104.059 c -19.414,0 -35.294,-15.88 -35.294,-35.294 0,-19.413 15.88,-35.294 35.294,-35.294 19.414,0 35.294,15.881 35.294,35.294 0,19.413 -15.88,35.294 -35.294,35.294 m 0,-52.941 c -9.707,0 -17.646,7.94 -17.646,17.647 0,9.707 7.939,17.647 17.646,17.647 9.702,0 17.646,-7.94 17.646,-17.647 0,-9.707 -7.944,-17.647 -17.646,-17.647" fill="#004463" transform="matrix(1.76595 0 0 1.76595 -10.525 646.148)"/><path d="m 236.294,33.471 c 9.737,0 17.647,7.906 17.647,17.647 0,9.741 -7.91,17.647 -17.647,17.647 -9.736,0 -17.646,-7.906 -17.646,-17.647 -0.001,-9.741 7.909,-17.647 17.646,-17.647" fill="#df7f4e" transform="matrix(1.76595 0 0 1.76595 -10.525 646.148)"/><path d="M 236.294,86.412 C 216.881,86.412 201,70.531 201,51.118 c 0,-19.413 15.881,-35.294 35.294,-35.294 19.413,0 35.294,15.881 35.294,35.294 0,19.413 -15.881,35.294 -35.294,35.294 m 0,-52.941 c -9.702,0 -17.646,7.94 -17.646,17.647 0,9.707 7.944,17.647 17.646,17.647 9.702,0 17.647,-7.94 17.647,-17.647 0,-9.707 -7.945,-17.647 -17.647,-17.647" fill="#004463" transform="matrix(1.76595 0 0 1.76595 -10.525 646.148)"/><path d="m 77.471,95.235 c 9.74,0 17.646,7.906 17.646,17.647 0,9.741 -7.906,17.647 -17.646,17.647 -9.741,0 -17.647,-7.906 -17.647,-17.647 0,-9.741 7.905,-17.647 17.647,-17.647" fill="#f04d4e" transform="matrix(1.76595 0 0 1.76595 -10.525 646.148)"/><path d="m 77.471,148.177 c -19.414,0 -35.294,-15.881 -35.294,-35.294 0,-19.413 15.88,-35.294 35.294,-35.294 19.412,0 35.294,15.881 35.294,35.294 0,19.413 -15.881,35.294 -35.294,35.294 m 0,-52.942 c -9.707,0 -17.647,7.94 -17.647,17.647 0,9.707 7.94,17.647 17.647,17.647 9.707,0 17.646,-7.94 17.646,-17.647 0,-9.707 -7.94,-17.647 -17.646,-17.647" fill="#004463" transform="matrix(1.76595 0 0 1.76595 -10.525 646.148)"/><path d="m 90.441,53.941 c 9.741,0 17.646,7.905 17.646,17.646 0,9.741 -7.904,17.647 -17.646,17.647 -9.742,0 -17.647,-7.906 -17.647,-17.647 0,-9.741 7.906,-17.646 17.647,-17.646" fill="#5da500" transform="matrix(1.76595 0 0 1.76595 -10.525 646.148)"/><path d="m 90.441,106.882 c -19.414,0 -35.294,-15.88 -35.294,-35.294 0,-19.413 15.88,-35.294 35.294,-35.294 19.413,0 35.294,15.881 35.294,35.294 0,19.414 -15.881,35.294 -35.294,35.294 m 0,-52.941 c -9.707,0 -17.647,7.94 -17.647,17.646 0,9.707 7.94,17.647 17.647,17.647 9.707,0 17.646,-7.94 17.646,-17.647 10e-4,-9.705 -7.939,-17.646 -17.646,-17.646" fill="#004463" transform="matrix(1.76595 0 0 1.76595 -10.525 646.148)"/><path d="m 148.059,280.529 c 0,5.291 3.528,8.824 8.823,8.824 h 88.235 c 5.291,0 8.824,-3.533 8.824,-8.824 z" fill="#86a2bc" transform="matrix(1.76595 0 0 1.76595 -10.525 646.148)"/><path d="M 368.646,139.353 H 33.353 c -5.295,0 -8.824,3.529 -8.824,8.824 0,63.53 51.175,114.706 114.706,114.706 h 123.529 c 63.531,0 114.706,-51.176 114.706,-114.706 10e-4,-5.295 -3.532,-8.824 -8.824,-8.824" fill="#edf1f9" transform="matrix(1.76595 0 0 1.76595 -10.525 646.148)"/><path d="m 395.117,148.177 c 0,-15.002 -11.469,-26.471 -26.471,-26.471 H 33.353 c -15.002,0 -26.472,11.469 -26.472,26.471 0,69.709 54.708,127.061 123.53,131.473 v 0.879 c 0,15.002 11.469,26.472 26.47,26.472 h 88.235 c 15.002,0 26.471,-11.47 26.471,-26.472 v -0.879 c 68.823,-4.412 123.53,-61.763 123.53,-131.473 m -150,141.177 h -88.235 c -5.295,0 -8.823,-3.533 -8.823,-8.824 h 105.883 c -0.001,5.29 -3.534,8.824 -8.825,8.824 m 17.648,-26.471 h -123.53 c -63.531,0 -114.706,-51.176 -114.706,-114.706 0,-5.295 3.529,-8.824 8.824,-8.824 h 335.293 c 5.291,0 8.824,3.529 8.824,8.824 10e-4,63.53 -51.173,114.706 -114.705,114.706" fill="#004463" transform="matrix(1.76595 0 0 1.76595 -10.525 646.148)"/><path d="m 368.646,139.353 h -35.293 c 0,63.532 -51.176,114.706 -114.707,114.706 h -87.353 c -15.002,0 -30.882,-4.412 -43.233,-14.113 -27.354,-20.301 -45.885,-53.828 -45.885,-91.768 0,-5.295 3.528,-8.824 8.823,-8.824 H 33.353 c -5.295,0 -8.824,4.412 -8.824,8.824 0,63.53 51.175,114.706 114.706,114.706 h 17.646 105.883 c 63.531,0 114.706,-51.176 114.706,-114.706 10e-4,-4.413 -3.532,-8.825 -8.824,-8.825" fill="#97aabf" transform="matrix(1.76595 0 0 1.76595 -10.525 646.148)"/><path d="m 341.289,121.706 c -4.411,-34.411 -34.405,-61.765 -69.701,-61.765 -35.294,0 -65.297,27.354 -69.709,61.765 z" fill="#ffcf35" transform="matrix(1.76595 0 0 1.76595 -10.525 646.148)"/><path d="M 351,139.353 H 192.177 c -5.296,0 -8.824,-3.529 -8.824,-8.824 0,-48.529 39.706,-88.235 88.234,-88.235 48.529,0 88.235,39.706 88.235,88.235 10e-4,5.295 -3.531,8.824 -8.822,8.824 M 201.888,121.706 h 140.289 c -4.412,-34.411 -34.415,-61.765 -69.711,-61.765 -35.293,0 -66.167,27.354 -70.578,61.765" fill="#004463" transform="matrix(1.76595 0 0 1.76595 -10.525 646.148)"/><path d="M 324.529,139.353 H 218.646 c -5.29,0 -8.823,-3.529 -8.823,-8.824 0,-34.411 27.358,-61.765 61.765,-61.765 34.417,0 61.767,27.354 61.767,61.765 -0.001,5.295 -3.527,8.824 -8.826,8.824 m -96.171,-17.647 h 86.469 c -4.411,-20.292 -22.06,-35.294 -43.239,-35.294 -21.171,0 -38.818,15.002 -43.23,35.294" fill="#004463" transform="matrix(1.76595 0 0 1.76595 -10.525 646.148)"/><path d="m 298.059,139.353 h -52.941 c -5.299,0 -8.823,-3.529 -8.823,-8.824 0,-19.413 15.881,-35.294 35.294,-35.294 19.414,0 35.296,15.881 35.296,35.294 -10e-4,5.295 -3.535,8.824 -8.826,8.824 m -41.473,-17.647 h 30.884 c -2.646,-5.295 -8.823,-8.824 -15.003,-8.824 -6.178,0 -13.235,3.529 -15.881,8.824" fill="#004463" transform="matrix(1.76595 0 0 1.76595 -10.525 646.148)"/><path d="m 129.5,89.5 c -2.646,-0.883 -7.028,1.323 -7.912,2.207 -1.762,1.762 -2.645,7.057 -2.645,7.057 0,0 -5.295,19.414 -13.235,23.825 h 113.818 c -8.814,-4.412 -14.113,-14.118 -13.228,-23.825 0,-2.646 -0.887,-5.295 -2.652,-7.057 -0.879,-0.884 -2.646,-1.767 -5.291,-0.884 -10.59,4.412 -22.942,0 -29.12,-9.707 -2.646,-4.412 -7.94,-4.412 -10.586,0 -8.824,9.707 -17.857,10.264 -25.149,9.707" fill="#a7e564" transform="matrix(1.76595 0 0 1.76595 -10.525 646.148)"/><path d="m 236.294,139.353 h -150 c -2.646,0 -4.412,-0.883 -6.174,-2.646 -1.767,-1.766 -2.648,-3.533 -2.648,-6.178 0,-11.469 7.062,-21.176 17.646,-23.825 2.65,-0.879 5.295,-4.412 5.295,-7.94 C 99.53,89.941 103.942,82 111.003,76.705 118.06,72.293 126,71.41 133.94,74.06 c 2.648,0.883 6.178,0 7.943,-2.649 4.412,-7.057 12.354,-11.469 20.292,-11.469 7.94,0 15.881,4.412 20.292,11.469 1.768,2.649 4.412,3.533 7.944,2.649 7.94,-2.649 15.885,-1.767 22.942,2.646 7.058,5.295 10.581,13.235 10.581,22.059 0,3.529 1.767,7.062 5.3,7.94 10.59,2.649 17.646,12.356 17.646,23.825 0,2.646 -0.888,4.412 -2.646,6.178 -3.528,1.762 -5.295,2.645 -7.94,2.645 m -131.47,-17.647 c 0.676,6.461 113.822,0 113.822,0 -8.823,-4.412 -14.113,-14.119 -13.234,-23.825 0,-2.646 -0.879,-5.291 -2.646,-7.058 -0.879,-0.883 -2.65,-1.766 -5.295,-0.883 -10.591,4.412 -22.942,0 -29.116,-9.707 -2.649,-4.412 -7.944,-4.412 -10.59,0 -6.179,9.707 -18.53,14.119 -29.116,9.707 -2.649,-0.883 -4.412,0 -5.295,0.883 -1.768,1.767 -2.855,8.294 -5.188,13.236 -2.333,4.942 -5.5,15.608 -13.342,17.647" fill="#004463" transform="matrix(1.76595 0 0 1.76595 -10.525 646.148)"/><path d="M201 174.646c4.868 0 8.823 3.955 8.823 8.824 0 4.867-3.955 8.822-8.823 8.822-4.868 0-8.822-3.955-8.822-8.822-.001-4.868 3.954-8.824 8.822-8.824M245.117 174.646c4.869 0 8.824 3.955 8.824 8.824 0 4.867-3.955 8.822-8.824 8.822-4.868 0-8.823-3.955-8.823-8.822 0-4.868 3.955-8.824 8.823-8.824M289.235 174.646c4.868 0 8.823 3.955 8.823 8.824 0 4.867-3.955 8.822-8.823 8.822-4.868 0-8.823-3.955-8.823-8.822 0-4.868 3.955-8.824 8.823-8.824" fill="#4e9cd5" transform="matrix(1.76595 0 0 1.76595 -10.525 646.148)"/><path d="m 333.354,174.646 c 4.868,0 8.823,3.955 8.823,8.824 0,4.867 -3.955,8.822 -8.823,8.822 -4.869,0 -8.824,-3.955 -8.824,-8.822 -10e-4,-4.868 3.954,-8.824 8.824,-8.824" fill="#3689c9" transform="matrix(1.76595 0 0 1.76595 -10.525 646.148)"/><path d="M112.765 174.646c4.867 0 8.822 3.955 8.822 8.824 0 4.867-3.955 8.822-8.822 8.822-4.868 0-8.823-3.955-8.823-8.822-.001-4.868 3.954-8.824 8.823-8.824M156.882 174.646c4.869 0 8.824 3.955 8.824 8.824 0 4.867-3.955 8.822-8.824 8.822-4.868 0-8.823-3.955-8.823-8.822 0-4.868 3.955-8.824 8.823-8.824M68.647 174.646c4.869 0 8.824 3.955 8.824 8.824 0 4.867-3.955 8.822-8.824 8.822-4.869 0-8.824-3.955-8.824-8.822 0-4.868 3.955-8.824 8.824-8.824" fill="#4e9cd5" transform="matrix(1.76595 0 0 1.76595 -10.525 646.148)"/></g></svg>