<svg xmlns="http://www.w3.org/2000/svg" xmlns:xlink="http://www.w3.org/1999/xlink" version="1.1" viewBox="0 0 71.237 38.13" id="svg2"><defs id="defs4"><linearGradient id="a"><stop stop-color="#a5a5a5" offset="0" id="stop7"/><stop offset="1" id="stop9"/></linearGradient><linearGradient id="k" y2="1004.4" gradientUnits="userSpaceOnUse" y1="3433.4" x2="3130.1" x1="1224.6"><stop stop-color="#D9DADA" offset="0" id="stop14"/><stop stop-color="#EBECEC" offset="1" id="stop16"/></linearGradient><linearGradient id="l" x1="346.237" gradientUnits="userSpaceOnUse" y1="537.414" gradientTransform="translate(-22.132 165.488) scale(.32584)" x2="359.472" y2="537.414"><stop stop-color="#ffb142" offset="0" id="stop29"/><stop stop-color="#c87600" offset="1" id="stop31"/></linearGradient><linearGradient id="m" x1="1224.6" gradientUnits="userSpaceOnUse" y1="3433.4" gradientTransform="matrix(-.00803 .00146 .00146 .00803 -1242.927 39.26)" x2="3130.1" y2="1004.4"><stop stop-color="#c2c2c2" offset="0" id="stop34"/><stop stop-color="#d5d5d5" offset="1" id="stop36"/></linearGradient><linearGradient id="n" y2="382.947" gradientUnits="userSpaceOnUse" y1="365.109" x2="203.729" x1="177.54"><stop stop-color="#8c8c8e" offset="0" id="stop39"/><stop stop-color="#333334" offset="1" id="stop41"/></linearGradient><radialGradient id="p" gradientUnits="userSpaceOnUse" cy="-8.88" cx="414.682" gradientTransform="matrix(0 .27968 -.60927 0 101.726 -39.26)" r="123.545"><stop stop-color="#ffb142" offset="0" id="stop19"/><stop stop-color="#ffb141" offset=".887" id="stop21"/><stop stop-color="#c87600" offset="1" id="stop23"/></radialGradient><radialGradient id="q" xlink:href="#a" gradientUnits="userSpaceOnUse" cy="483.447" cx="610.457" gradientTransform="matrix(0 -.47856 .4319 0 -164.45 264.757)" r="167.564"/><radialGradient id="r" xlink:href="#a" gradientUnits="userSpaceOnUse" cy="622.487" cx="380.257" gradientTransform="matrix(0 -.7435 .66041 0 -364.7 582.134)" r="59.255"/><radialGradient id="s" xlink:href="#a" gradientUnits="userSpaceOnUse" cy="647.687" cx="371.454" gradientTransform="matrix(0 -.7435 -.66041 0 552.032 582.134)" r="59.255"/><style type="text/css" id="style11"></style></defs><g id="g113" transform="matrix(1 0 0 .99247 -163.11 -355.228)" color="#000" paint-order="markers fill stroke" color-rendering="auto" image-rendering="auto" shape-rendering="auto"><path d="m 182.31073,357.92233 c -0.5118,0.003 -1.02327,0.0264 -1.5332,0.0703 -9.92267,0.70326 -17.66797,7.65774 -17.66843,18.69691 -4.7e-4,11.03916 8.59642,19.63692 19.20163,19.63707 5.19869,-0.008 10.17197,0.42477 13.78321,-3.31494 h 5.24023 c 3.61783,3.74653 8.60237,3.31438 13.81055,3.31494 10.60521,-1.5e-4 19.2021,-8.59791 19.20163,-19.7589 -4.6e-4,-11.161 -8.1969,-18.26014 -18.52585,-18.61219 -0.22505,-0.015 -0.45034,-0.0261 -0.67578,-0.0332 -0.0221,6.1e-4 -0.0443,10e-4 -0.0664,0.002 -0.0184,-4e-5 -0.0362,-0.002 -0.0547,-0.002 h -32.59179 c -0.0224,0 -0.044,0.002 -0.0664,0.002 z" style="isolation:auto;mix-blend-mode:normal;solid-color:#000" id="o" fill="#636365"/><path id="path116" xlink:href="#o" d="m 215.29492,362.70117 a 4.7834854,4.7834854 0 0 1 -0.0762,0.002 h 0.0547 c -0.0585,0.002 -0.0504,10e-4 0.0215,-0.002 z m -32.97656,0.004 c -0.37798,0.003 -0.75489,0.0204 -1.13086,0.0527 a 4.7834854,4.7834854 0 0 1 -0.0723,0.006 c -7.87952,0.55846 -13.22229,5.12363 -13.22265,13.92578 -3.7e-4,8.55597 6.39771,14.85341 14.41797,14.85352 2.7305,-0.004 5.06978,0.0565 6.75976,-0.20313 1.69194,-0.25989 2.60266,-0.63617 3.58203,-1.65039 a 4.7834854,4.7834854 0 0 1 3.44141,-1.46093 h 5.24023 a 4.7834854,4.7834854 0 0 1 3.44141,1.46093 c 0.98254,1.01749 1.89611,1.39626 3.5918,1.65625 1.69568,0.26 4.04065,0.19697 6.77734,0.19727 8.02048,-1.1e-4 14.41834,-6.26971 14.41797,-14.97461 -3.6e-4,-8.81951 -5.67737,-13.55358 -13.9043,-13.83398 a 4.7834854,4.7834854 0 0 1 -0.15625,-0.008 c -0.14325,-0.01 -0.28552,-0.0143 -0.42773,-0.0195 -0.0169,-6.2e-4 -0.0339,-0.001 -0.0508,-0.002 h -32.5918 c 0.25519,0 0.23358,0.002 -0.0664,0.002 a 4.7834854,4.7834854 0 0 1 -0.0469,-0.002 z" style="isolation:auto;mix-blend-mode:normal;solid-color:#000" fill="#313132"/><path id="path118" d="m 215.29492,362.70117 c -0.0254,8.5e-4 -0.0508,0.002 -0.0762,0.002 h 0.0547 c -0.0585,0.002 -0.0504,10e-4 0.0215,-0.002 z m -32.97656,0.004 c -0.37798,0.003 -0.75489,0.0204 -1.13086,0.0527 l -0.0723,0.006 c -7.87952,0.55846 -13.22229,5.12363 -13.22265,13.92578 -3.7e-4,8.55597 6.39771,14.85341 14.41797,14.85352 1.64594,-0.002 3.12458,0.0105 4.42968,-0.0293 15.15406,-6.32554 4.38795,-21.35769 41.01563,-22.40625 -2.29584,-4.01845 -6.62588,-6.18655 -12.09766,-6.37304 -0.0521,-0.002 -0.10421,-0.004 -0.15625,-0.008 -0.14325,-0.01 -0.28552,-0.0143 -0.42773,-0.0195 -0.0169,-6.2e-4 -0.0339,-0.001 -0.0508,-0.002 h -32.5918 c 0.25519,0 0.23358,0.002 -0.0664,0.002 -0.0156,-5.7e-4 -0.0312,-0.001 -0.0469,-0.002 z" style="isolation:auto;mix-blend-mode:normal;solid-color:#000" fill="url(#n)"/><path id="path120" xlink:href="#path40440" d="m 182.30664,359.56055 c -0.46364,0.003 -0.92694,0.0247 -1.38867,0.0645 a 1.6383866,1.6383866 0 0 1 -0.0254,0.002 c -9.22288,0.65367 -16.14411,6.78953 -16.14453,17.0625 -4.5e-4,10.18865 7.84266,17.99791 17.5625,17.99805 2.64485,-0.004 5.11782,0.0874 7.23828,-0.23828 2.12103,-0.32581 3.84456,-0.99938 5.36719,-2.57617 a 1.6383866,1.6383866 0 0 1 1.17773,-0.5 h 5.24023 a 1.6383866,1.6383866 0 0 1 1.17774,0.5 c 1.52587,1.58015 3.25342,2.25613 5.3789,2.58203 2.12549,0.32589 4.6044,0.23214 7.25391,0.23242 9.71992,-1.4e-4 17.56294,-7.79938 17.5625,-18.11914 -4.3e-4,-10.35902 -7.33437,-16.64905 -16.94336,-16.97656 a 1.6383866,1.6383866 0 0 1 -0.0527,-0.002 c -0.18666,-0.0124 -0.37213,-0.0228 -0.5586,-0.0293 -0.005,-1.6e-4 -0.009,1.5e-4 -0.0137,0 a 1.6383866,1.6383866 0 0 1 -0.0644,0.002 c -0.13007,-2.8e-4 -0.1462,-0.002 -0.0508,-0.002 h -32.5918 c 0.0727,0 0.0511,0.002 -0.0664,0.002 a 1.6383866,1.6383866 0 0 1 -0.0449,-0.002 h -0.0137 z" style="isolation:auto;mix-blend-mode:normal;solid-color:#000" fill="none" stroke="#939393" stroke-width="1"/></g></svg>