<svg xmlns="http://www.w3.org/2000/svg" viewBox="0 0 123.664 293.377"><g><path d="m 330.47,798.42 v 131.82 h 27.802 V 798.42 Z" transform="translate(-266.066 -639.237)"/><path d="m 288.39,799.79 19.387,65.912 -19.387,65.912 h 30.028 l 19.387,-65.912 -19.387,-65.912 z" stroke="#fff" stroke-width="2" transform="translate(-266.066 -639.237)"/><path d="M287.16 724.79h-21.094v58.188h21.094v-56.719-1.4688zM289.88 725.75v76.125h68.812V725.75z" transform="translate(-266.066 -639.237)"/><path d="m 383.86,724.09 4.8036,28.644 -26.548,29.274 -10.258,0.0438 -10.258,0.0438 26.593,-29.659 -4.8204,-28.556 10.244,0.1048 z" stroke="#fff" stroke-width="2" transform="translate(-266.066 -639.237)"/><path d="m 289.68,725.95 h 68.812 v -0.3125 h 0.3125 v -0.0937 h 3.0938 v 0.0312 h 21.094 v -0.0312 -1.5 l -0.5625,-8.375 c -0.56038,-3.0028 -1.5904,-5.504 -3.0938,-7.5 -2.4355,-2.8013 -5.0682,-4.5206 -7.875,-5.125 l -9.5625,-0.90625 -37.344,0.3125 h -32.906 -1.9688 l -10.375,0.90625 c -3.1843,0.60442 -5.9403,2.24 -8.2812,4.9375 -2.341,2.698 -3.75,5.3931 -4.2188,8.0938 -0.40079,2.3087 -0.56352,5.6744 -0.625,9.375 h 20.562 v -0.125 h 2.9375 v 0.3125 z" transform="translate(-266.066 -639.237)"/><g><path d="m 431.14,318.87 a 57.165,61.298072 0 1 1 -114.33,0 57.165,61.298072 0 1 1 114.33,0 z" fill-rule="evenodd" transform="matrix(.54 0 0 .49554 -143.596 -127.637)"/><g fill="#fff" fill-rule="evenodd" stroke="#fff" stroke-width="1.933"><path d="m 133.61,424.93 a 7.576,7.576 0 1 1 -15.152,0 7.576,7.576 0 1 1 15.152,0 z" transform="matrix(.54 0 0 .49554 -18.635 -192.043)"/><path d="m 133.61,424.93 a 7.576,7.576 0 1 1 -15.152,0 7.576,7.576 0 1 1 15.152,0 z" transform="matrix(.54 0 0 .49554 -.782 -192.043)"/></g><path d="m 348.5,342.84 c 5.312,-3.9588 11.452,-6.8018 17.907,-8.2917 0.9101,-0.21006 1.831,-0.39417 2.7642,-0.43312 0.93322,-0.0389 1.8842,0.0719 2.7456,0.43312 1.3243,0.55531 2.3443,1.6581 3.1635,2.8376 0.81923,1.1794 1.4816,2.465 2.3463,3.6116 1.3786,1.828 3.2654,3.2685 5.392,4.1166 2.1266,0.84813 4.4869,1.1014 6.7451,0.72383 2.2582,-0.37759 4.4077,-1.385 6.1427,-2.8788 1.735,-1.4938 3.0506,-3.4698 3.7594,-5.6468" fill="none" stroke="#fff" stroke-width="5.799" transform="matrix(.54 0 0 .49554 -143.596 -127.637)"/></g></g></svg>