<svg xmlns="http://www.w3.org/2000/svg" viewBox="0 0 120 180"><g><path d="m358 264.36s20-10 40-10 40 10 40 10v10l-40 10-40-10z" fill="#333" transform="translate(-338 -254.36)"/><path d="m338 414.36c10-20 30-100 30-130l-10-10v-10s20 10 40 10 40-10 40-10v10l-10 10c0 30 20 110 30 130 0 0-21.24 20-60 20s-60-20-60-20z" fill="#222" transform="translate(-338 -254.36)"/><path d="m382.84 328.71-1.6224 1.0961c-7.691 5.2285-11.996 12.555-12.969 22.038l-0.247 2.321h10.347 10.337l0.226-1.2893c0.302-1.7277 1.5774-3.8862 3.0622-5.1899l1.2143-1.0643-4.3303-7.4893c-2.381-4.1194-4.7145-8.1443-5.1791-8.9506zm30.322 0.01-1.3431 2.3209c-0.74 1.2776-3.0761 5.3026-5.1791 8.9507l-3.8145 6.6403 1.2035 1.0643c1.4821 1.3013 2.7598 3.4526 3.0622 5.1791l0.226 1.2895h10.337 10.347l-0.237-2.1491c-1.0511-9.5488-5.3306-16.999-12.593-21.931zm-15.128 19.689c-0.881-0.05-2.546 0.239-3.7299 1.1848-1.7261 1.3794-2.4936 2.9567-2.4922 5.0868 0 2.1515 1.0926 4.0732 2.9549 5.2005 2.8612 1.732 6.92 0.732 8.596-2.1275 1.611-2.7489 0.914-6.0807-1.7299-8.2199-1.1492-0.93-2.4258-1.1247-3.5989-1.1247zm4.2866 14.352s-0.665 0.233-1.3432 0.515c-1.5982 0.668-5.1336 0.76-7.23-0.604-1.6587 2.6915-3.325 5.4309-4.8796 8.1359-2.0903 3.6126-4.2191 7.293-4.7385 8.1771l-0.945 1.601 2.1597 1.0315c1.9821 0.938 5.6884 2.3273 7.8439 2.5788 1.3621 0.159 3.6188 0.227 5.7392 0.164 2.4415-0.08 7.606-0.785 11.893-2.8281l1.9878-0.945-0.655-1.096c-0.361-0.598-1.8567-3.174-3.3202-5.7271-3.8783-6.7662-6.5114-11.003-6.5114-11.003z" fill="#fcd552" transform="translate(-338 -254.36)"/></g></svg>