<svg xmlns="http://www.w3.org/2000/svg" viewBox="0 0 800 800"><switch><g><g><g><g><path d="M589.325,366.305c81.84-125.351,53.558-213.771-19.324-261.354c-72.89-47.589-161.641-42.355-246.537,87.683 c-25.006,38.299-37.044,96.547-35.128,149.211c1.823,49.977-2.49,123.7-7.088,171.579c-4.762,8.383-9.949,20.752-10.446,23.575 c-0.559,3.191-2.929,1.529-6.483,6.693c-0.735,1.078,15.824,11.183,15.824,11.183s15.99,9.089,16.24,8.062 c0.604-2.48,0.053-5.724,1.646-7.389c1.432-1.499,12.211-9.57,15.301-17.108c39.119-24.452,102.742-60.364,149.35-78.337 C513.047,440.677,563.534,405.806,589.325,366.305z M361.279,425.159c-59.441-40.893-75.996-147.47-23.286-228.202 C414.304,80.076,496.879,74.341,562.392,117.11c65.516,42.774,90.693,124.956,17.13,237.633 C523.043,441.25,420.72,466.05,361.279,425.159z"/><linearGradient id="a" gradientUnits="userSpaceOnUse" x1="-1554.785" y1="2584.495" x2="-1554.785" y2="2052.551" gradientTransform="rotate(33.144 2777.383 4648.584)"><stop offset="0"/><stop offset="1" stop-color="#211c5b"/></linearGradient><path fill="url(#a)" d="M273.449,548.631c-4.282-2.797-6.179-4.229-7.01-4.939c1.266-1.573,2.302-2.16,3.166-2.651 c1.15-0.655,2.461-1.398,2.872-3.746c0.412-2.373,5.424-14.535,10.244-23.033c0.121-0.207,0.194-0.44,0.218-0.678 c4.82-50.194,8.888-122.784,7.098-171.801c-2.017-55.408,11.335-112.203,34.852-148.218 c39.455-60.438,82.117-97.361,126.799-109.738c38.593-10.7,78.083-3.109,117.382,22.547 C607.32,131.345,630.463,166.037,636,206.69c6.352,46.683-9.828,100.072-48.105,158.688 c-24.004,36.776-72.22,72.463-125.827,93.139c-46.39,17.886-109.605,53.456-149.641,78.482 c-0.302,0.188-0.534,0.468-0.672,0.796c-2.347,5.719-9.617,11.944-13.111,14.938c-0.912,0.774-1.509,1.29-1.84,1.635 c-1.466,1.529-1.628,3.724-1.771,5.663c-0.021,0.267-0.038,0.526-0.057,0.781c-2.764-1.227-8.706-4.414-13.997-7.42l0,0 c-0.015-0.012-3.753-2.297-7.523-4.759L273.449,548.631z M563.324,115.688c-35.601-23.243-73.481-30.214-109.541-20.163 c-41.858,11.671-81.3,45.489-117.215,100.505c-25.183,38.568-36.08,84.798-30.679,130.171 c5.181,43.552,25.016,80.132,54.425,100.361c0.674,0.461,1.352,0.916,2.035,1.367c29.813,19.46,70.268,23.478,110.995,11.013 c42.894-13.12,81.113-42.691,107.604-83.272C646.438,255.366,639.846,165.648,563.324,115.688L563.324,115.688z"/><linearGradient id="b" gradientUnits="userSpaceOnUse" x1="-1554.783" y1="2580.242" x2="-1554.783" y2="2056.806" gradientTransform="rotate(33.144 2777.383 4648.584)"><stop offset="0" stop-color="#231f20"/><stop offset="1" stop-color="#0a4b7f"/></linearGradient><path fill="url(#b)" d="M275.773,545.069c-0.858-0.56-1.615-1.062-2.28-1.51c1.29-1.028,2.681-2.698,3.174-5.534 c0.4-1.955,5.114-13.488,9.76-21.662c0.417-0.735,0.668-1.536,0.749-2.374c4.831-50.336,8.905-123.152,7.111-172.366 c-1.988-54.572,11.103-110.415,34.165-145.735c38.873-59.543,80.719-95.867,124.372-107.97 c37.363-10.352,75.688-2.951,113.918,22.016c37.187,24.279,59.681,57.935,65.042,97.333 c6.21,45.634-9.757,98.046-47.447,155.783c-23.547,36.072-70.987,71.129-123.797,91.495 c-46.672,17.998-110.168,53.72-150.366,78.844c-1.065,0.666-1.88,1.63-2.355,2.796c-1.955,4.769-8.95,10.758-11.939,13.313 c-1.042,0.892-1.669,1.429-2.152,1.933c-0.905,0.944-1.516,1.986-1.936,3.043c-2.541-1.333-5.588-3.007-8.639-4.743 c-0.922-0.562-4.168-2.562-7.376-4.659L275.773,545.069z M332.678,417.338c-10.313-6.729-19.322-4.356-26.771,7.053 c-2.984,4.57-6.352,31.258-7.429,42.739c-3.406,36.282,0.885,44.271,5.527,47.305c4.644,3.026,13.685,3.741,45.53-13.973 c10.073-5.602,33.16-19.422,36.14-23.989c7.454-11.413,6.006-20.613-4.311-27.35c-1.228-0.793-2.589-1.591-4.245-2.458 c-1.358-1.672-3.094-3.194-5.16-4.546c-1.896-1.231-3.925-2.234-6.053-2.988c-2.081-3.007-4.694-5.548-7.793-7.568 c-3.049-1.993-6.373-3.354-9.9-4.059c-1.496-1.564-3.168-2.952-4.981-4.139c-2.104-1.373-4.229-2.352-6.335-2.926 C335.321,419.175,333.964,418.182,332.678,417.338L332.678,417.338z M565.649,112.126 c-36.657-23.935-75.732-31.086-113.005-20.698c-42.884,11.957-83.139,46.367-119.64,102.278 c-25.725,39.402-36.857,86.636-31.343,132.995c5.33,44.771,25.83,82.44,56.242,103.362c0.702,0.484,1.407,0.957,2.123,1.428 c30.867,20.152,72.623,24.355,114.566,11.524c43.841-13.416,82.883-43.613,109.913-85.019 C651.454,255.461,644.402,163.546,565.649,112.126L565.649,112.126z"/><g fill="#D0D2D3"><g><path d="M598.164 149.674c-.364-.469-.724-.944-1.097-1.407L397.078 440.888c.592.141 1.179.287 1.771.423L598.164 149.674zM607.197 163.023c-.313-.535-.635-1.067-.957-1.6L410.454 443.327c.634.082 1.271.17 1.908.236L607.197 163.023zM616.535 182.809c-.235-.644-.475-1.284-.719-1.92L425.993 444.365c.696.012 1.395.007 2.093.006L616.535 182.809zM587.887 137.885c-.055-.05-.098-.104-.149-.155l-1.239-.829L384.709 437.163c.548.199 1.098.401 1.656.593L587.887 137.885zM366.035 428.225c.488.299.973.594 1.464.877L566.437 119.85c-.465-.325-.924-.65-1.394-.969L366.035 428.225zM622.961 248.228L455.46 441.647c.91-.175 1.814-.359 2.725-.55l164.347-189.773C622.683 250.288 622.828 249.259 622.961 248.228zM576.396 127.373c-.441-.355-.887-.719-1.329-1.075L375.587 433.366c.514.242 1.03.475 1.555.711L576.396 127.373zM438.427 443.942c.766-.063 1.535-.127 2.304-.198l182.147-235.749c-.11-.777-.225-1.557-.354-2.329L438.427 443.942zM513.249 95.727c-.586-.136-1.173-.258-1.757-.379L333.149 396.686c.353.515.707 1.022 1.074 1.534L513.249 95.727zM449.718 98.55c-.762.242-1.529.484-2.297.744L314.993 359.692c.247.758.509 1.502.764 2.249L449.718 98.55zM542.12 105.751c-.514-.242-1.028-.489-1.548-.729L349.304 415.49c.421.398.837.797 1.269 1.186L542.12 105.751zM554.534 112.279c-.491-.287-.981-.58-1.474-.858L357.775 422.625c.457.34.914.678 1.372 1.01L554.534 112.279zM527.827 99.897c-.547-.188-1.098-.375-1.646-.557L342.046 408.036c.394.444.785.89 1.187 1.335L527.827 99.897zM310.346 342.495c.199.926.398 1.856.611 2.776l103.782-229.926c-.89.575-1.778 1.171-2.667 1.766L310.346 342.495zM319.953 372.766c.279.655.571 1.308.863 1.957L476.563 93.142c-.681.062-1.367.124-2.05.197L319.953 372.766zM498.133 93.291c-.616-.058-1.237-.122-1.863-.173L326.787 386.56c.33.569.658 1.132.985 1.693L498.133 93.291z"/></g><g><path d="M325.795 218.627c-.252.522-.507 1.03-.751 1.545l238.688 155.841c.368-.438.737-.874 1.099-1.314L325.795 218.627zM340.596 193.079c-.316.468-.626.944-.941 1.418l241.533 157.695c.309-.476.616-.954.918-1.43L340.596 193.079zM349.843 179.814c-.334.462-.671.907-1.01 1.375l240.811 157.223c.286-.491.566-.985.852-1.476L349.843 179.814zM333.969 203.457c-.288.486-.583.969-.869 1.462l241.209 157.486c.334-.461.649-.93.978-1.392L333.969 203.457zM320.453 230.723c-.215.534-.44 1.068-.653 1.608l235.113 153.496c.399-.414.803-.827 1.2-1.249L320.453 230.723zM463.861 439.818c.739-.182 1.486-.382 2.227-.574L309.223 336.827c.142.773.286 1.547.439 2.316L463.861 439.818zM315.174 245.56c-.174.563-.352 1.131-.519 1.693L543.65 396.762c.434-.388.861-.792 1.295-1.184L315.174 245.56zM306.299 305.457c.008.691.023 1.373.038 2.051l187.031 122.117c.611-.271 1.221-.553 1.832-.842L306.299 305.457zM310.568 263.209c-.123.594-.259 1.189-.379 1.786l219.435 143.263c.479-.355.956-.72 1.438-1.092L310.568 263.209zM307.564 281.564c-.071.632-.133 1.269-.198 1.9l206.959 135.125c.535-.323 1.079-.644 1.615-.978L307.564 281.564zM356.674 170.728c-.354.453-.698.894-1.051 1.35l239.594 156.426c.273-.505.532-1.005.803-1.507L356.674 170.728zM440.176 101.996c-.627.256-1.263.53-1.89.792l185.971 121.424c-.019-.695-.039-1.391-.071-2.08L440.176 101.996zM421.273 111.324c-.539.317-1.082.647-1.625.971l203.684 132.98c.069-.637.122-1.272.187-1.909L421.273 111.324zM462.846 95.123L621.14 198.469c-.182-.807-.381-1.607-.574-2.402L465.239 94.649C464.438 94.798 463.646 94.961 462.846 95.123zM406.278 121.174c-.484.355-.972.716-1.457 1.081l215.59 140.754c.127-.602.245-1.194.366-1.793L406.278 121.174zM393.211 131.602c-.442.39-.887.772-1.335 1.163l224.306 146.445c.176-.564.342-1.129.515-1.698L393.211 131.602zM365.109 160.323c-.369.433-.739.866-1.106 1.31l237.334 154.954c.248-.516.5-1.029.744-1.544L365.109 160.323zM374.215 150.018c-.389.415-.773.851-1.164 1.271l234.019 152.789c.229-.535.443-1.066.667-1.596L374.215 150.018zM384.141 139.903c-.416.405-.832.81-1.247 1.22l229.391 149.765c.2-.546.4-1.098.596-1.641L384.141 139.903z"/></g></g><linearGradient id="c" gradientUnits="userSpaceOnUse" x1="-1571.815" y1="2680.057" x2="-1533.786" y2="2680.057" gradientTransform="rotate(33.144 2777.383 4648.584)"><stop offset="0" stop-color="#5d174f"/><stop offset=".035" stop-color="#621e56"/><stop offset=".088" stop-color="#72306b"/><stop offset=".152" stop-color="#8a4e8c"/><stop offset=".206" stop-color="#a36cae"/><stop offset=".215" stop-color="#9d61a5"/><stop offset=".238" stop-color="#914b94"/><stop offset=".266" stop-color="#873a86"/><stop offset=".3" stop-color="#812f7d"/><stop offset=".347" stop-color="#7d2877"/><stop offset=".479" stop-color="#7c2676"/><stop offset=".554" stop-color="#812a79"/><stop offset=".648" stop-color="#913483"/><stop offset=".752" stop-color="#aa4693"/><stop offset=".818" stop-color="#be54a0"/><stop offset="1" stop-color="#b1509e"/></linearGradient><path fill="url(#c)" d="M160.972,700.772c1.71,4.707,6.522,10.476,13.389,14.958c5.338,3.485,11.995,6.242,16.553,6.819 c0.722,0.093,5.332-6.608,10.747-14.535l95.573-146.385c0.254-0.392,0.144-0.92-0.247-1.175l-30.27-19.767 c-0.396-0.258-0.921-0.147-1.176,0.246l-96.134,147.246L160.972,700.772z"/><linearGradient id="d" gradientUnits="userSpaceOnUse" x1="-1551.869" y1="2558.729" x2="-1551.869" y2="2400.825" gradientTransform="rotate(33.144 2777.383 4648.584)"><stop offset="0" stop-color="#d0d2d3"/><stop offset="1" stop-color="#f1f1f2"/></linearGradient><path fill="url(#d)" d="M284.204,515.101c0.239-0.418,0.388-0.875,0.434-1.356c3.37-35.129,7.104-89.78,7.493-138.069 c6.106-8.777,11.978-15.526,17.864-20.547c9.1,31.359,26.558,57.155,49.353,72.834c0.685,0.473,1.376,0.934,2.067,1.385 c24.688,16.118,56.702,21.903,90.395,16.392c-1.521,5.595-4.033,11.722-7.487,18.255 c-44.374,19.301-97.646,49.589-132.793,71.563C304.312,540.018,278.664,524.896,284.204,515.101z"/><linearGradient id="e" gradientUnits="userSpaceOnUse" x1="-1571.646" y1="2584.715" x2="-1533.788" y2="2584.715" gradientTransform="rotate(33.144 2777.383 4648.584)"><stop offset="0"/><stop offset=".182" stop-color="#404041"/><stop offset=".521" stop-color="#231f20"/><stop offset=".794" stop-color="#404041"/><stop offset="1"/></linearGradient><path fill="url(#e)" d="M296.986,560.455l-30.27-19.767c-0.396-0.258-0.921-0.147-1.176,0.246l-3.025,4.629 l31.698,20.696l3.02-4.63C297.487,561.238,297.377,560.71,296.986,560.455z"/></g></g><g stroke-width="1.464" stroke-linecap="round" stroke-miterlimit="10"><path stroke="#000" d="M438.813,451.423 c-63.243,6.7-109.004-23.177-130.536-83.305l-13.218,16.326c-1.067,28.098-2.271,85.541-6.642,125.558l30.005,17.031 c0,0,67.768-39.111,115.39-63.049L438.813,451.423z M318.411,522.817l-26.1-14.813c3.412-32.698,4.842-76.442,5.796-105.626 c0.202-6.175,0.385-11.774,0.563-16.579l8.438-10.421c10.938,27.494,27.107,48.361,48.121,62.082 c21.74,14.193,47.949,20.284,77.985,18.135l-2.288,5.746C388.183,482.903,329.436,516.488,318.411,522.817z"/><path fill="#FFF" stroke="#FFF" d="M355.229,437.459c-21.014-13.721-37.183-34.588-48.121-62.082l-8.438,10.421c-0.178,4.805-0.36,10.404-0.563,16.579 c-0.954,29.184-2.384,72.928-5.796,105.626l26.1,14.813c11.024-6.329,69.771-39.914,112.516-61.478l2.288-5.746 C403.179,457.743,376.97,451.652,355.229,437.459z"/></g><g><g><path fill="#A7A9AC" d="M550.996,406.125c-6.23,0.084-12.662,0.975-19.137,2.566c-16.173,12.285-33.922,21.882-52.645,28.33 c-7.737,6.824-14.566,14.474-20.006,22.619c0.957-0.378,1.916-0.761,2.858-1.123 C495.271,445.711,526.4,427.142,550.996,406.125z"/><path fill="#8D59A4" d="M336.568,196.03c17.803-27.271,36.474-49.326,55.874-66.064c2.552-6.675,4.709-13.161,6.4-19.361 c-25.628,19.103-50.365,46.824-73.954,82.958c-14.086,21.573-24.52,50.603-30.193,82.323 c4.385-3.538,9.146-8.011,14.152-13.259C313.865,239.12,323.206,216.496,336.568,196.03z"/><path fill="#A7A9AC" d="M563.324,115.688c9.758,6.371,18.371,13.39,25.85,20.993c7.055,3,14.469,6.067,22.29,9.209 c-10.89-14.928-25.09-28.22-42.395-39.518c-28.444-18.569-56.988-27.668-85.221-27.224c4.999,4.08,10.872,8.367,17.724,12.869 C522.392,94.63,543.222,102.563,563.324,115.688z"/><path fill="#8D59A4" d="M592.969,335.951c-0.545,7.375-0.634,14.691-0.225,21.819c29.015-46.415,43.953-89.462,44.575-128.384 c-4.341,3.921-8.475,8.573-12.349,13.819C622.103,272.055,611.462,303.319,592.969,335.951z"/></g><g opacity=".5"><linearGradient id="f" gradientUnits="userSpaceOnUse" x1="483.582" y1="307.253" x2="531.181" y2="307.253" gradientTransform="rotate(33.144 295.142 366.248)"><stop offset=".018" stop-color="#a6a8ab"/><stop offset=".023" stop-color="#a7a9ac"/><stop offset=".24" stop-color="#d7d7d9"/><stop offset=".406" stop-color="#f4f4f5"/><stop offset=".5" stop-color="#fff"/><stop offset=".579" stop-color="#f6f6f7"/><stop offset=".706" stop-color="#dedfe0"/><stop offset=".865" stop-color="#b8b9bb"/><stop offset="1" stop-color="#929497"/></linearGradient><path fill="url(#f)" d="M550.996,406.125c-6.23,0.084-12.662,0.975-19.137,2.566 c-16.173,12.285-33.922,21.882-52.645,28.33c-7.737,6.824-14.566,14.474-20.006,22.619c0.957-0.378,1.916-0.761,2.858-1.123 C495.271,445.711,526.4,427.142,550.996,406.125z"/><linearGradient id="g" gradientUnits="userSpaceOnUse" x1="225.639" y1="193.161" x2="249.966" y2="193.161" gradientTransform="rotate(33.144 295.142 366.248)"><stop offset=".018" stop-color="#a6a8ab"/><stop offset=".023" stop-color="#a7a9ac"/><stop offset=".24" stop-color="#d7d7d9"/><stop offset=".406" stop-color="#f4f4f5"/><stop offset=".5" stop-color="#fff"/><stop offset=".579" stop-color="#f6f6f7"/><stop offset=".706" stop-color="#dedfe0"/><stop offset=".865" stop-color="#b8b9bb"/><stop offset="1" stop-color="#929497"/></linearGradient><path fill="url(#g)" d="M336.568,196.03c17.803-27.271,36.474-49.326,55.874-66.064 c2.552-6.675,4.709-13.161,6.4-19.361c-25.628,19.103-50.365,46.824-73.954,82.958c-14.086,21.573-24.52,50.603-30.193,82.323 c4.385-3.538,9.146-8.011,14.152-13.259C313.865,239.12,323.206,216.496,336.568,196.03z"/><linearGradient id="h" gradientUnits="userSpaceOnUse" x1="296.188" y1="11.321" x2="439.535" y2="11.321" gradientTransform="rotate(33.144 295.142 366.248)"><stop offset=".018" stop-color="#a6a8ab"/><stop offset=".023" stop-color="#a7a9ac"/><stop offset=".24" stop-color="#d7d7d9"/><stop offset=".406" stop-color="#f4f4f5"/><stop offset=".5" stop-color="#fff"/><stop offset=".579" stop-color="#f6f6f7"/><stop offset=".706" stop-color="#dedfe0"/><stop offset=".865" stop-color="#b8b9bb"/><stop offset="1" stop-color="#929497"/></linearGradient><path fill="url(#h)" d="M563.324,115.688c9.758,6.371,18.371,13.39,25.85,20.993c7.055,3,14.469,6.067,22.29,9.209 c-10.89-14.928-25.09-28.22-42.395-39.518c-28.444-18.569-56.988-27.668-85.221-27.224c4.999,4.08,10.872,8.367,17.724,12.869 C522.392,94.63,543.222,102.563,563.324,115.688z"/><linearGradient id="i" gradientUnits="userSpaceOnUse" x1="504.05" y1="130.507" x2="539.701" y2="130.507" gradientTransform="rotate(33.144 295.142 366.248)"><stop offset=".018" stop-color="#a6a8ab"/><stop offset=".023" stop-color="#a7a9ac"/><stop offset=".24" stop-color="#d7d7d9"/><stop offset=".406" stop-color="#f4f4f5"/><stop offset=".5" stop-color="#fff"/><stop offset=".579" stop-color="#f6f6f7"/><stop offset=".706" stop-color="#dedfe0"/><stop offset=".865" stop-color="#b8b9bb"/><stop offset="1" stop-color="#929497"/></linearGradient><path fill="url(#i)" d="M592.969,335.951c-0.545,7.375-0.634,14.691-0.225,21.819 c29.015-46.415,43.953-89.462,44.575-128.384c-4.341,3.921-8.475,8.573-12.349,13.819 C622.103,272.055,611.462,303.319,592.969,335.951z"/></g></g></g></g></switch></svg>