<svg xmlns="http://www.w3.org/2000/svg" viewBox="0 0 708.01 778.88"><path d="M 217.364,72.3 173.459,232.44 375.869,115.58 Z" stroke="#000" stroke-width="39.3" stroke-linecap="round" stroke-linejoin="round"/><path d="M 33.45,745.23 V 130.94 C 33.45,7.9 230.41,-2.39 230.41,121.2536" fill="none" stroke="#000" stroke-width="66.87" stroke-linecap="round" stroke-linejoin="round"/><g><path d="M95.259 195.66c25.325-17.623 55.487-26.119 84.743-26.119 31.179 0 60.604 9.143 84.773 26.058l10.615-18.387c-27.42-18.726-60.465-28.861-95.389-28.861-34.926 0-67.974 10.135-95.392 28.864l10.661 18.45zM67.257 147.16c33.894-22.816 73.917-33.794 112.74-33.794 38.828 0 78.849 10.978 112.74 33.794l10.632-18.415c-35.61-23.767-78.31-36.57-123.37-36.57-45.065 0-87.764 12.805-123.37 36.572l10.627 18.42z" transform="rotate(141.234 242.633 234.23)"/><g><path d="M 39.291,98.719 C 81.74,70.695 131.6,57.192 180.001,57.192 c 48.396,0 98.258,13.503 140.71,41.527 l 10.61,-18.377 C 287.521,51.525 235.201,36 180.001,36 124.797,36 72.471,51.525 28.681,80.343 l 10.611,18.376 z" transform="rotate(141.234 242.633 234.23)"/></g></g></svg>