<svg xmlns="http://www.w3.org/2000/svg" width="210mm" height="297mm"><g><g stroke="#000" stroke-width="2.561" stroke-linecap="round" stroke-linejoin="round"><path d="M 239.67749,967.56798 521.91961,960.06073 493.07088,118.62013 217.6264,65.286375 z" fill="#fff" transform="translate(11.97 9.533)"/><path d="M237.43346 94.47742l19.73102 3.669895 1.78938 66.355005-19.60993-3.17154zM234.0176 93.842081l-7.59559 4.336123 1.44257 52.142576 8.02979 10.45211zM259.82352 98.64188l9.49337 7.6797 1.5173 51.33925-9.07584 7.29508zM280.46991 102.31675l-7.08217 4.77767 1.45624 51.25134 7.57678 9.95192zM284.39667 103.21238l17.93407 3.45043 1.92826 65.16675-17.92423-2.89889zM306.4599 107.3416l8.7514 7.69276 1.51049 50.46487-8.44689 6.97977zM326.04605 110.95899l-6.91827 4.81885 1.53517 50.39465 7.42156 9.51037zM328.57636 111.47071l17.96541 3.30039 1.62893 64.16035-17.51956-2.83349zM350.07059 115.42743l9.3867 8.00675 1.43964 49.61099-9.21191 6.45461zM370.0884 119.15071l-7.48985 4.87988 1.58354 49.57575 7.93979 9.1987zM373.5981 119.80349l16.30605 3.03285 2.09737 63.18382-16.36138-2.64608zM394.04509 123.60652l8.42503 7.99347 1.57895 48.81643-7.93308 6.26921zM413.98427 127.31515l-7.77923 4.9939 1.64594 48.75675 8.18507 8.84152zM417.69377 128.00504l15.65647 2.91207 2.09066 62.12855-15.75268-2.54766zM437.25425 131.64323l7.57411 7.99819 1.66726 48.02566-7.1587 6.0087zM459.2766 135.7393l2.11469 61.50336 15.75396 2.54793-2.02872-61.10511zM455.47033 135.03137l-6.6401 5.36982 1.64603 47.9458 7.08678 8.27652zM478.24405 139.26715l7.39738 8.12241 1.72679 47.25927-6.97229 5.66747zM235.99356 164.31165l-7.54492 7.12226 1.37862 49.83318 8.0336 9.63619zM239.4446 164.85299l19.60162 3.07471 1.79559 66.58775-19.4941-3.06407zM261.85788 168.36873l9.57835 9.66272 1.4899 50.41385-9.12477 6.53536zM282.51866 171.60954l-7.09793 7.03343 1.43369 50.45659 7.63411 9.13265zM286.4319 172.22341l17.92187 2.8112 1.9715 66.63-17.92854-2.81806zM308.36358 175.66359l8.94408 9.40807 1.52702 51.01985-8.61499 6.18518zM328.18179 178.77228l-6.92463 6.90553 1.55598 51.0763 7.46802 8.67588zM330.74995 179.17509l17.49663 2.74456 1.69092 66.59997-17.04735-2.67954zM351.75986 182.47075l9.6826 9.37457 1.49717 51.59192-9.50166 5.63258zM372.21368 185.67908l-7.43267 6.67858 1.65008 51.66112 7.9126 8.33703zM375.73194 186.23098l16.36179 2.56646 2.21398 66.6963-16.43389-2.58306zM396.2065 189.44258l8.42667 9.03142 1.68795 52.18858-7.92508 5.47378zM416.12324 192.56668l-7.66484 6.4944 1.76391 52.25119 8.08734 7.95413zM419.77248 193.13916l15.75469 2.4713 2.24491 66.71509-15.87113-2.49466zM439.42241 196.22142l7.67468 8.76979 1.8318 52.76772-7.26653 5.1781zM457.6465 199.08005l-6.57792 6.52068 1.8133 52.8166 7.03171 7.38841zM461.4751 199.6806l15.74848 2.47032 2.2153 66.72385-15.66934-2.46289zM480.47862 202.66146l7.4967 8.60357 1.94835 53.32171-7.09235 4.82128zM237.96648 234.67323l-7.59239 6.35921 1.49138 53.90743 8.01207 7.8865zM241.45504 235.20596l19.48568 2.97595 1.82724 67.76154-19.36689-2.63726zM263.90801 238.63508l9.57416 8.62374 1.58753 53.71706-9.18548 5.39191zM284.5938 241.79432l-7.20737 6.02843 1.5255 53.68991 7.67447 7.67421zM288.50129 242.39114l17.92649 2.73778 1.98339 67.02996-17.92433-2.44082zM310.31576 245.72272l9.05155 8.16362 1.60138 53.50193-8.78748 5.28397zM330.38695 248.78806l-7.03436 5.67387 1.62943 53.48705 7.50398 7.48819zM332.99762 249.18677l17.02282 2.59983 1.68245 66.26747-16.56681-2.25604zM353.51994 252.32108l9.90759 7.92913 1.54631 53.28595-9.78567 4.99249zM374.44465 255.5168l-7.47877 5.24446 1.70219 53.29104 7.8824 7.38533zM377.97485 256.05594l16.43485 2.51001 2.17758 65.60015-16.49667-2.2464zM398.49634 259.19008l8.33773 7.32959 1.71762 53.10466-7.90408 5.09463zM418.40682 262.23093l-7.65203 4.85508 1.79246 53.09657 7.99679 7.24578zM421.99502 262.77897l15.87393 2.42431 2.18324 64.88157-15.97851-2.17586zM441.75837 265.79729l7.68841 6.87724 1.83706 52.91983-7.34932 5.01913zM460.008 268.58445l-6.61705 4.65976 1.81607 52.89821 6.99302 6.95838zM463.86453 269.17349l15.66369 2.39219 2.13097 64.18489-15.5785-2.12134zM482.92568 272.08458l7.50977 6.51025 1.92703 52.73851-7.17576 4.89761zM239.98845 306.77993l-7.60941 6.72637 1.36771 49.43789 8.10711 10.36241zM243.51367 307.24564l19.35839 2.55751 1.78645 66.24872-19.24475-2.31669zM265.99648 310.21592l9.61015 8.92845 1.45184 49.12236-9.12964 8.17883zM286.69773 312.95083l-7.27064 6.69184 1.39476 49.08657 7.82694 10.21066zM290.59739 313.46604l17.92248 2.36775 1.94496 65.73232-17.92269-2.15751zM312.28316 316.33103l9.21657 8.79904 1.45992 48.77744-8.84654 8.09784zM332.59871 319.01496l-7.0773 6.6396 1.48514 48.7503 7.65386 10.07398zM335.25063 319.36527l16.54104 2.18527 1.65512 65.18986-16.09536-1.93759zM355.27592 322.01089l10.20083 8.85494 1.40567 48.43938-9.96497 7.85295zM376.65908 324.83586l-7.43835 6.51834 1.54686 48.42848 7.96632 10.0018zM380.19926 325.30359l16.49817 2.17959 2.14845 64.72244-16.5616-1.99374zM400.75595 328.01933l8.34338 8.5361 1.5567 48.12915-7.77689 8.00659zM420.64953 330.64755l-7.5319 6.43196 1.62401 48.10711 8.02022 9.89806zM424.17593 331.11342l15.98194 2.11141 2.16074 64.21415-16.08768-1.93672zM444.03939 333.73769l7.81863 8.39464 1.66008 47.81956-7.32433 7.95357zM462.30363 336.15057l-6.53017 6.49247 1.64066 47.78764 7.06249 9.67568zM466.18499 336.66333l15.57277 2.05735 2.11561 63.72071-15.49085-1.86484zM485.29098 339.18748l7.66187 8.30474 1.7363 47.51916-7.15306 7.87093zM241.98223 377.88628l-7.62262 7.21012 1.41401 51.11154 8.10547 9.32626zM245.5444 378.30737l19.2363 2.27371 1.81392 67.26621-19.11858-1.94685zM268.06079 380.96878l9.63804 8.96554 1.50213 50.82662-9.17876 7.43538zM288.78116 383.41794l-7.34492 6.93359 1.44328 50.79506 7.87938 9.16124zM292.67396 383.87808l1.97083 66.82545 17.91972 1.82477-1.96859-66.53185zM314.23631 386.42672l9.35638 8.63067 1.51203 50.51611-9.01657 7.3136zM334.79834 388.85719l-7.14886 6.65306 1.53819 50.49132 7.69394 9.00288zM337.4918 389.17557l16.06498 1.89885 1.67057 65.79811-15.61318-1.58985zM357.02646 391.48452l10.4553 8.47216 1.45705 50.21241-10.2559 7.05527zM378.87069 394.06652l-7.44465 6.33042 1.60346 50.20106 7.93124 8.89494zM382.42158 394.48623l16.56503 1.95797 2.16109 65.10431-16.62633-1.69303zM403.01797 396.92075l8.29025 7.9282 1.61505 49.93142-7.77017 7.17597zM422.89905 399.27067l-7.47816 6.03735 1.68488 49.91094 7.91447 8.76042zM426.36424 399.68029l16.09381 1.90229 2.16679 64.3931-16.19741-1.64938zM446.3326 402.04052l7.86889 7.5965 1.7237 49.65173-7.43277 7.08073zM464.61575 404.20163l-6.52736 5.86926 1.70363 49.62328 6.99932 8.53866-2.17559-64.0312zM468.52309 404.66345l15.4848 1.83036 2.11515 63.70754-15.40048-1.56817zM487.67867 406.92768l7.71289 7.3073 1.80423 49.38062-7.27314 6.97263zM243.99671 449.72787l-7.67227 6.39092 1.43037 51.70364 8.15106 9.99055zM247.5953 450.07576l19.1092 1.84758 1.82673 67.7411-18.99174-1.55414zM270.1407 452.25555l9.63593 7.98487 1.51243 51.17554-9.17307 8.54183zM290.87577 454.26024l-7.44385 6.3269 1.4527 51.12558 7.9838 9.94326zM294.76071 454.63587l17.91748 1.7323 1.98451 67.0713-17.91608-1.46613zM316.19465 456.70813l9.47937 7.88579 1.5148 50.61083-9.12708 8.51284zM336.99861 458.71954l-7.23271 6.26255 1.5403 50.56251 7.79373 9.89454zM339.73298 458.98393l15.58622 1.50691 1.68622 66.41355-15.13164-1.23826zM358.77363 460.82485l10.70437 7.92406 1.45291 50.06646-10.48511 8.37054zM381.07215 462.98067l-7.45034 6.16126 1.59794 50.02754 7.9629 9.87701zM384.63283 463.32498l16.62722 1.60757 2.18334 65.77186-16.69002-1.36571zM405.26355 465.31958l8.2466 7.60593 1.60223 49.53686-7.69158 8.56755zM425.12715 467.24006l-7.41012 6.08448 1.67062 49.4907 7.88375 9.8391zM428.53087 467.56915l16.20032 1.56628 2.19148 65.12694-16.30585-1.33431zM448.59786 469.50924l7.94245 7.49779 1.70161 49.01546-7.45946 8.55576zM466.89478 471.27829l-6.4958 6.09477 1.68109 48.96623 7.01632 9.73761zM470.8265 471.65841l15.39434 1.48835 2.14162 64.50667-15.3099-1.2528zM490.02572 473.51465l7.8025 7.4087 1.77262 48.51303-7.30291 8.53912zM246.00612 521.39015l-7.64067 8.50521 1.37756 49.79265 8.19485 10.59207zM249.64165 521.68451l18.98554 1.53722 1.84685 68.48764-18.86551-1.19646zM272.21967 523.51267l9.71555 9.76647 1.45285 49.15966-9.17174 9.50791zM292.97303 525.19309l-7.46771 8.36324 1.39522 49.10388 8.08513 10.6037zM296.85086 525.50708l17.91599 1.4507 2.00279 67.68767-17.91332-1.13605zM318.1597 527.23247l9.67681 9.61144 1.45132 48.4878-9.24393 9.52143zM339.21013 528.93696l-7.24529 8.2276 1.47536 48.42877 7.88841 10.60974zM341.98597 529.16169l15.10782 1.22326 1.69916 66.9257-14.64891-.92904zM360.5334 530.66354l11.01917 9.57552 1.3884 47.84389-10.72279 9.44496zM383.2932 532.50635l-7.38964 8.07061 1.52642 47.78889 7.98738 10.63336zM386.86442 532.79553l16.69325 1.35167 2.19557 66.14175-16.75492-1.06264zM407.53372 534.46914l8.26478 9.20622 1.52682 47.20492-7.62252 9.65913zM427.38359 536.0764l-7.28042 7.93323 1.59153 47.14605 7.84328 10.64171zM430.72599 536.34704l16.31122 1.32073 2.19998 65.379-16.41574-1.04113zM450.89666 537.98026l8.07451 9.04799 1.61701 46.57869-7.49871 9.68414zM469.21151 539.46325l-6.41097 7.86237 1.59718 46.52143 7.02191 10.60657zM473.1689 539.78369l15.30545 1.23928 2.14634 64.64837-15.21958-.96521zM492.41658 541.34218l7.94445 8.90048 1.67995 45.9769-7.34778 9.71006zM248.05667 594.51748l-7.66689 8.54819 1.38092 49.91683 8.18108 9.12134zM251.72933 594.73921l18.85705 1.13835 1.81352 67.25059-18.74066-.85515zM274.33764 596.10399l9.73392 9.46212 1.46085 49.43092-9.23403 8.309zM295.10672 597.35778l-7.54968 8.40781 1.40336 49.38922 8.12428 9.09973zM298.97672 597.59139l17.91208 1.08128 1.96987 66.57546-17.91071-.81732zM320.15584 598.86991l9.81625 9.32353 1.46408 48.91664-9.42676 8.28184zM341.45309 600.15555l-7.31716 8.27626 1.48878 48.87109 7.91391 9.07138zM344.27063 600.32563l14.62129.88268 1.67417 65.94303-14.17084-.64667zM362.31612 601.41497l11.2809 9.27563 1.40526 48.42498-11.02582 8.19134zM385.53928 602.81695l-7.3879 8.13431 1.54534 48.38041 7.93721 9.0548-2.09465-65.56952zM389.1206 603.03314l16.75729 1.01157 2.16678 65.2731-16.81947-.76752zM409.82571 604.28302l8.22261 8.95197 1.55045 47.9335-7.63206 8.32831zM429.65868 605.4803l-7.21009 8.00659 1.61659 47.88718 7.72165 9.02713zM432.93861 605.67825l16.42051.99127 2.17483 64.63274-16.52502-.75403zM453.21067 606.90205l8.14496 8.81193 1.64737 47.45249-7.62426 8.31126zM471.54038 608.00856l-6.38448 7.92293 1.62766 47.40906 6.94169 8.97436zM475.52298 608.24898l15.21376.91837 2.12554 64.02081-15.13025-.69041zM494.81599 609.41361l8.02406 8.67498 1.71695 46.99079-7.48626 8.30079zM250.03543 665.08686l-7.67662 9.15365 1.46137 52.8248 8.16596 7.58984zM253.74464 665.26072l18.73646.87812 1.86447 69.14182-18.61489-.52075zM276.38634 666.32188l9.77025 9.79434 1.54159 52.16112-9.29654 7.11678zM297.17452 667.29621l-7.61443 8.9658 1.48063 52.10764 8.16453 7.60649zM301.03776 667.47724l17.91174.8395 2.01995 68.26826-17.90834-.50103zM322.095 668.46418l9.96888 9.6181 1.54035 51.46312-9.60878 7.12423zM343.63622 669.47374l-7.373 8.78835 1.56582 51.40003 7.94266 7.61667zM346.4949 669.60772l14.15039.66325 1.7131 67.47185-13.68831-.38268zM364.05515 670.43076l11.55164 9.5163 1.47417 50.79931-11.32726 7.09144zM387.73465 671.54059l-7.37293 8.61012 1.62042 50.73106 7.89199 7.63082zM391.32663 671.70897l16.82357.78847 2.21038 66.58826-16.88478-.47234zM412.07122 672.6812l8.19675 9.1786 1.62126 50.12431-7.63431 7.21055zM431.892 673.61018l-7.12877 8.4421 1.68984 50.05792 7.60695 7.63851zM435.11149 673.7611l16.53131.7748 2.213 65.76663-16.63551-.46515zM455.4875 674.71602l8.22908 9.00453 1.71724 49.46642-7.7407 7.22284zM473.83611 675.57605l-6.34729 8.30603 1.69625 49.40853 6.8713 7.63299zM477.84432 675.76391l15.12703.70895 2.15751 64.98428-15.04025-.42111zM497.18672 676.67045l8.11643 8.83113 1.78441 48.83595-7.61295 7.24113zM252.08445 738.16117l-7.68508 9.83848 1.40163 50.66431 8.23159 8.97355zM255.83083 738.26301l18.60881.50563 1.86232 69.05986-18.48774-.15882zM278.50333 738.8794l9.80837 10.15794 1.47436 49.8876-9.27 8.93997zM299.30776 739.44491l-7.67755 9.67087 1.41582 49.82851 8.29004 9.09941zM303.1633 739.54972l17.9083.48668 2.01777 68.19398-17.90507-.15368zM324.09161 740.11867l10.12849 10.0035 1.46891 49.07515-9.69885 9.05817zM345.87984 740.71094l-7.42441 9.51133 1.4927 49.00025 8.06495 9.22211zM348.78018 740.78979l13.66499.37192 1.71176 67.42195-13.20392-.11379zM365.83977 741.2536l11.83323 9.89541 1.40179 48.30563-11.53781 9.15766zM389.98269 741.9099l-7.34948 9.35632 1.54021 48.2187 7.94684 9.33849zM393.5848 742.0078l16.88803.45901 2.20858 66.53308-16.94934-.14549zM414.36577 742.57275l8.17759 9.63655 1.53683 47.5124-7.53246 9.31154zM434.17026 743.11111l-7.03503 9.20674 1.60122 47.43146 7.60034 9.45386zM437.32756 743.19698l16.64084.45235 2.21161 65.72423-16.74503-.14398zM457.80536 743.75363l8.32456 9.48568 1.62268 46.7415-7.74296 9.42569zM476.16948 744.25287l-6.29651 9.07492 1.60244 46.67504 6.91312 9.56151zM480.20296 744.36249l15.03593.40831 2.15659 64.95629-14.94951-.12865zM499.59131 744.88959l8.22293 9.33475 1.68088 46.00412-7.617 9.53756zM254.10149 810.09501l-7.7302 9.18318 1.44578 52.26251 8.24163 8.35319zM257.88466 810.13611l18.48493.2008 1.87257 69.44075-18.36459.0968zM280.58947 810.38231l9.81279 9.39176 1.52375 51.55704-9.31252 8.42323zM301.4119 810.60813l-7.77299 9.20243 1.4635 51.50543 8.35065 8.32877zM305.26016 810.64982l17.90656.19416 2.03237 68.68645-17.90472.0942zM326.06316 810.87545l10.25718 9.41584 1.52115 50.82159-9.86574 8.403zM348.09714 811.11438l-7.50567 9.22496 1.54609 50.7532 8.11023 8.30622zM351.03886 811.14628l13.18678.14291 1.72714 68.02687-12.72315.0671zM367.60537 811.326l12.08831 9.45376 1.4546 50.12739-11.83022 8.39136zM392.20874 811.59276l-7.35332 9.24515 1.59845 50.04398 7.91351 8.28497zM395.82132 811.63199l16.95353.18392 2.23217 67.24255-17.01692.0897zM416.64039 811.85775l8.13734 9.42979 1.59794 49.40469-7.52977 8.34594zM436.43085 812.07236l-6.96551 9.26794 1.6652 49.32934 7.49203 8.26458zM439.52678 812.10597l16.75128.18185 2.23913 66.54205-16.8581.0886zM460.10769 812.32912l8.40173 9.45093 1.69075 48.70388-7.86043 8.3256zM478.48925 812.52845l-6.26476 9.29346 1.67001 48.64451 6.84344 8.24639zM482.54818 812.57251l14.94715.16239 2.18722 65.87863-14.86094.0784zM501.98449 812.78327l8.31529 9.46749 1.7551 48.03431-7.75086 8.30382zM256.15179 883.21426l-7.78088 8.34413 1.42898 51.65396 8.26949 8.38953zM259.97224 883.18598l18.35818-.13579 1.83519 68.05684-18.24078.4083zM282.70872 883.01789l9.80223 8.10583 1.50669 50.98045-9.32527 8.90156zM303.54824 882.8638l-7.88384 8.22893 1.44716 50.93387 8.43759 8.51207zM307.38904 882.83542l17.9039-.13275 1.99281 67.34891-17.90256.40111zM328.06397 882.68251l10.36296 7.98911 1.50496 50.28183-9.99243 9.03901zM350.34593 882.51779l-7.61314 8.11146 1.52976 50.21565 8.19259 8.64332zM353.32951 882.49572l12.70159-.0938 1.69461 66.74445-12.24764.27458zM369.39562 882.37691l12.31387 7.86849 1.44011 49.62488-12.07341 9.20094zM394.46405 882.19157l-7.39338 8.00105 1.58237 49.53975 7.92924 8.76769zM398.08702 882.16477l17.01891-.12607 2.19081 65.99722-17.08151.38268zM418.9435 882.01057l8.05019 7.78892 1.58266 48.93226-7.46801 9.21908zM438.71864 881.86437l-6.9439 7.8881 1.64932 48.85778 7.44646 8.89802zM441.75238 881.84193l16.86193-.12501 2.19881 65.34447-16.96712.38011zM462.43641 881.68896l8.41934 7.67868 1.6755 48.26249-7.90285 9.34612zM480.83446 881.55295l-6.29227 7.77836 1.65501 48.20696 6.84611 9.02559zM484.9189 881.52273l14.85659-.11014 2.14895 64.72816-14.77237.33095zM504.40233 881.37866l8.33472 7.57658 1.7401 47.62362-7.79579 9.45565z" fill="#000030" transform="translate(11.97 9.533)"/><path d="m 223.08142,968.00943 16.59607,-0.44109 -22.05109,-902.281601 -19.38964,8.39276 z" fill="#c8c8c8" transform="translate(11.97 9.533)"/><path d="m 233.78077,85.394553 0.12698,4.527931 251.3598,47.232636 -0.15881,-4.34739 z" fill="#000030" transform="translate(11.97 9.533)"/></g></g></svg>