<svg xmlns="http://www.w3.org/2000/svg" viewBox="0 0 518.704 682.093"><g fill-rule="evenodd" stroke-width=".1"><path d="m 194.513,93.6 c 107.135,0 194.515,44.67 194.515,99.438 0,54.77 -87.38,99.44 -194.515,99.44 C 87.3793,292.478 0,247.808 0,193.038 0,138.27 87.3793,93.6 194.513,93.6" fill="#bfe253" transform="matrix(1.33333 0 0 -1.33333 0 806.893)"/><path d="m 194.513,292.478 c 105.744,0 191.78,-43.136 194.45,-96.866 -18.542,-42.343 -81.377,-73.508 -156.054,-73.508 -89.259,0 -161.6176,44.52 -161.6176,99.438 0,22.226 11.8547,42.747 31.8786,59.305 27.237,7.42 58.327,11.631 91.343,11.631" fill="#a1d74d" transform="matrix(1.33333 0 0 -1.33333 0 806.893)"/><path d="m 217.176,456.804 12.748,105.684 c 3.741,30.996 16.918,44.498 41.471,42.487 l 37.086,-3.038 c 23.283,-1.906 49.103,-38.615 51.707,-75.726 l 6.093,-86.795 c 3.843,-54.74 -14.016,-75.163 -52.486,-64.264 l -57.957,16.421 c -20.3,5.752 -41.608,40.798 -38.662,65.231" fill="#949595" transform="matrix(1.33333 0 0 -1.33333 0 806.893)"/><path d="m 322.552,206.099 c -1.966,-5.628 -7.324,-11.559 -16.193,-17.212 l -61.678,-39.325 c -37.105,-23.659 -80.118,-26.555 -120.059,-8.085 l -62.474,28.889 c -9.8847,4.571 -15.2449,10.63 -15.7316,16.587 h -4e-4 l -22.5683,59.124 322.7343,28.829 -24.025,-68.807 h -0.005" fill="#b1b1b0" transform="matrix(1.33333 0 0 -1.33333 0 806.893)"/><path d="m 322.552,206.099 c -1.966,-5.628 -7.324,-11.559 -16.193,-17.212 l -61.678,-39.325 c -30.743,-19.603 -65.541,-24.952 -99.288,-15.704 30.881,-5.299 58.777,-1.853 81.127,12.888 28.646,18.895 83.645,45.944 79.761,65.085 -1.401,10.932 -34.758,-4.744 -63.834,-16.362 11.82,24.384 18.225,48.389 27.712,72.61 l 62.756,5.607 12.113,-3.228 -22.471,-64.359 h -0.005" fill="#949595" transform="matrix(1.33333 0 0 -1.33333 0 806.893)"/><path d="m 346.258,282.173 c 2.729,-9.156 -3.567,-19.945 -19.32,-29.987 L 254.811,206.197 C 211.418,178.531 161.119,175.143 114.41,196.742 l -73.0592,33.783 c -11.2613,5.208 -17.4977,12.068 -18.3375,18.86 -0.2746,2.218 0.0262,4.36 0.8582,6.428 l 22.9121,82.09 276.5904,21.106 22.884,-76.836" fill="#cdccca" transform="matrix(1.33333 0 0 -1.33333 0 806.893)"/><path d="m 346.258,282.173 c 2.729,-9.156 -3.567,-19.945 -19.32,-29.987 L 254.811,206.197 C 216.106,181.52 171.908,176.16 129.662,190.617 l -0.51,10.978 c 32.799,-2.528 61.19,2.572 84.286,16.777 36.085,22.197 75.061,44.652 98.035,61.735 22.975,17.084 20.146,38.162 16.405,63.779 v 0 l 18.38,-61.713" fill="#bcbbb9" transform="matrix(1.33333 0 0 -1.33333 0 806.893)"/><path d="m 64.0152,351.623 101.4228,34.039 c 29.744,9.983 57.778,11.075 88.211,3.436 l 45.97,-11.539 c 28.859,-7.243 33.113,-27.595 6.74,-41.546 l -61.678,-32.624 c -38.899,-20.576 -78.592,-22.813 -120.059,-8.084 l -62.474,22.189 c -21.8839,7.772 -21.5804,26.259 1.8672,34.129" fill="#e8e8e7" transform="matrix(1.33333 0 0 -1.33333 0 806.893)"/><path d="M 91.3188,326.629 130.77,312.617 c 36.516,-12.969 70.956,-11.166 105.321,7.011 10.365,5.482 31.797,15.52 48.401,24.53 8.451,4.587 6.872,17.157 -2.451,19.509 -12.219,3.085 -26.706,9.14 -33.749,10.908 -26.954,6.766 -51.546,5.807 -77.894,-3.035 L 91.4488,341.452 c -3.1808,-1.213 -5.3164,-3.961 -5.3457,-7.365 -0.0304,-3.404 2.0078,-6.318 5.2157,-7.458" fill="#b1b1b0" transform="matrix(1.33333 0 0 -1.33333 0 806.893)"/><path d="M 91.3188,326.629 130.77,312.617 c 36.516,-12.969 70.956,-11.166 105.321,7.011 10.365,5.482 31.797,15.52 48.401,24.53 1.416,0.769 2.549,1.763 3.412,2.895 -1.343,1.801 -3.314,3.21 -5.863,3.852 -12.219,3.085 -26.706,9.14 -33.749,10.909 -26.954,6.765 -51.546,5.807 -77.894,-3.036 L 91.4488,328.69 c -0.7402,-0.283 -1.425,-0.648 -2.0371,-1.085 0.5742,-0.4 1.2129,-0.73 1.9071,-0.976" fill="#2e2d2d" transform="matrix(1.33333 0 0 -1.33333 0 806.893)"/><path d="m 341.053,299.647 c 1.693,-1.126 3.228,-2.313 4.602,-3.555 4.995,-4.514 7.958,-9.748 8.812,-15.405 0.861,-5.697 -0.447,-11.569 -4.002,-17.311 -3.834,-6.201 -10.392,-12.266 -19.758,-17.697 l -74.128,-42.991 c -21.126,-12.253 -46.91,-19.994 -73.415,-21.779 -24.912,-1.677 -50.566,1.906 -73.728,11.942 l -71.059,30.787 c -8.3543,3.619 -14.4868,8.274 -18.2778,13.378 -3.3664,4.533 -4.9781,9.442 -4.7879,14.42 0.191,5.011 2.1797,9.836 6.0114,14.152 1.8726,2.109 4.2054,4.103 6.9992,5.931 l 2.0355,-20.203 c -0.016,-0.136 -0.0269,-0.274 -0.032,-0.411 -0.059,-1.532 0.5625,-3.213 1.8441,-4.939 2.2801,-3.071 6.341,-6.031 12.1543,-8.551 l 71.0582,-30.787 c 20.828,-9.023 44.079,-12.232 66.78,-10.704 24.227,1.632 47.713,8.659 66.88,19.774 l 74.128,42.993 c 7.164,4.156 11.965,8.446 14.519,12.575 1.594,2.574 2.211,5.007 1.883,7.183 l 1.481,21.198" fill="#1b1919" transform="matrix(1.33333 0 0 -1.33333 0 806.893)"/><path d="m 306.359,336.013 -60.467,-34.524 c -43.14,-24.629 -76.186,-26.366 -122.216,-8.234 l -61.528,24.239 63.419,-20.14 c 47.142,-14.972 73.127,-13.944 117.904,7.934 l 62.888,30.725" fill="#fff" transform="matrix(1.33333 0 0 -1.33333 0 806.893)"/><path d="m 137.19,327.797 c -9.55,3.323 -14.912,7.547 -16.393,11.907 1.689,5.013 8.344,9.786 19.259,13.384 7.694,2.534 15.061,4.962 22.112,7.287 6.768,2.232 13.265,4.368 19.499,6.424 7.477,2.465 20.328,2.627 29.091,0.419 6.958,-1.753 14.057,-3.543 21.288,-5.367 7.365,-1.857 14.894,-3.755 22.571,-5.691 4.455,-1.122 7.656,-2.667 9.315,-4.326 -0.45,-0.404 -1.017,-0.795 -1.712,-1.167 -5.165,-2.774 -10.566,-5.67 -16.225,-8.711 -5.924,-3.182 -12.145,-6.519 -18.683,-10.03 -9.93,-5.333 -25.442,-8.676 -42.251,-9.543 -17.22,-0.889 -34.841,0.878 -47.871,5.414 z m -29.684,-15.741 v 0 c 19.986,-6.96 47.013,-9.668 73.425,-8.306 25.78,1.329 49.573,6.457 64.805,14.637 10.027,5.385 19.571,10.505 28.656,15.385 8.682,4.664 16.963,9.105 24.885,13.359 3.213,1.726 4.681,3.701 4.609,5.71 l 10e-4,10e-4 0.002,4.92 -0.002,-10e-4 c 0.003,3.937 -5.936,8.021 -16.271,10.626 -11.775,2.968 -23.323,5.881 -34.618,8.728 -11.092,2.796 -21.98,5.543 -32.653,8.231 -13.441,3.387 -33.153,3.137 -44.619,-0.642 -9.563,-3.152 -19.529,-6.43 -29.91,-9.853 -10.815,-3.565 -22.113,-7.29 -33.912,-11.178 -17.8048,-5.868 -28.2239,-13.774 -29.9427,-21.993 -0.0945,-0.451 -0.1621,-0.903 -0.2031,-1.355 l -0.0254,0.005 0.0137,-0.121 v -0.021 c -0.0469,-0.59 -0.0496,-1.181 -0.0067,-1.772 l -0.0175,-3.684 C 81.3395,326.534 89.65,318.27 107.506,312.056 v 0" fill="#fff" transform="matrix(1.33333 0 0 -1.33333 0 806.893)"/><path d="m 205.715,455.473 12.749,105.683 c 3.739,30.996 16.916,44.498 41.469,42.488 l 37.086,-3.039 c 23.283,-1.906 49.102,-38.615 51.707,-75.725 l 6.093,-86.796 c 3.843,-54.74 -14.016,-75.162 -52.486,-64.264 l -57.956,16.421 c -20.3,5.752 -41.609,40.798 -38.662,65.232" fill="#cdccca" transform="matrix(1.33333 0 0 -1.33333 0 806.893)"/><path d="m 241.397,385.13 c -6.115,3.457 -1.622,17.524 7.379,16.053 19.74,-4.52 39.481,-9.04 59.224,-13.56 l -0.853,-2.436 c -6.693,-0.118 -8.533,-10.361 -4.334,-14.912 l -0.696,-2.493 c -20.24,5.783 -40.481,11.566 -60.72,17.348" fill="#fff" transform="matrix(1.33333 0 0 -1.33333 0 806.893)"/></g></svg>