<svg xmlns="http://www.w3.org/2000/svg" viewBox="0 0 19.95 22.227"><defs><clipPath id="a"><path d="m12-0.21848h3v12h-3v-12z"/></clipPath><clipPath id="d"><path d="m12-0.21848h3v12h-3v-12z"/></clipPath><clipPath id="e"><path d="m12 0h3v12h-3v-12z"/></clipPath><clipPath id="b"><path d="m1 2.7815h12v9h-12v-9z"/></clipPath><clipPath id="g"><path d="m1 2.7815h12v9h-12v-9z"/></clipPath><clipPath id="h"><path d="m1 3h12v9h-12v-9z"/></clipPath><mask id="c"><g><g clip-path="url(#a)"><path d="m12-0.21848h3v12h-3v-12z" fill-opacity=".648"/></g></g></mask><mask id="f"><g><g clip-path="url(#b)"><path d="m1 2.7815h12v9h-12v-9z" fill-opacity=".559"/></g></g></mask></defs><path d="m 2.45125,6.802 15.85,1.1475 c -0.36625,5.76625 -0.78625,9.8825 -1.25,12.35375 -0.1325,0.63 -0.50375,1.1325 -1.09875,1.49875 -0.26875,0.46375 -2.65125,0.54625 -7.15375,0.24875 C 4.2675,21.74825 1.85,21.2995 1.5475,20.69825 1.1525,19.86825 1.45,15.2345 2.45125,6.802 Z" fill="#e4e4e4" fill-rule="evenodd" stroke-width="1.25"/><g><g mask="url(#c)" transform="matrix(1.25 0 0 -1.25 0 22.227)"><g><g clip-path="url(#d)"><g><g><g clip-path="url(#e)" transform="translate(0 -.218)"><g><path d="m 13.441,11.762 1.2,-0.121 C 14.105,5.188 13.812,1.855 13.762,1.641 13.625,1.32 13.398,0.988 13.078,0.641 12.652,0.188 12.375,0.16 12.238,0.559 c -0.183,0.586 0.215,4.32 1.203,11.203 z" fill="#4a4a4a" fill-rule="evenodd"/></g></g></g></g></g></g></g></g><path d="M 15.2,21.45075 15.80125,22.202 C 13.6325,22.202 11.435,22.14825 9.19875,22.05075 6.93375,21.982 4.385,21.53325 1.5475,20.69825 l -0.24875,-0.4975 c 2.9,0.6975 5.06875,1.1175 6.49875,1.25 3.2675,0.33125 5.7375,0.33125 7.4025,0 z" fill="#8f8f8f" fill-rule="evenodd" stroke-width="1.25"/><g><g mask="url(#f)" transform="matrix(1.25 0 0 -1.25 0 22.227)"><g><g clip-path="url(#g)"><g><g><g clip-path="url(#h)" transform="translate(0 -.218)"><g><path d="M 12.84,11.16 10,10.48 12,9.602 C 10.828,9.172 9.668,8.945 8.52,8.922 7.398,8.895 6.145,8.625 4.762,8.121 4.172,7.906 4.879,7.613 6.879,7.238 5.199,6.574 3.973,6.199 3.199,6.121 2.719,6.039 2.254,5.559 1.801,4.68 1.559,4.227 1.375,3.785 1.238,3.359 1.641,5.492 1.867,6.973 1.922,7.801 1.973,8.652 2.188,10 2.559,11.84 c 1.121,0 2.253,-0.028 3.402,-0.078 z" fill="#fff" fill-rule="evenodd"/></g></g></g></g></g></g></g></g><path d="M 0.0975,7.002 0.24875,0.09825 10.4975,0.80075 c 2.80375,0.235 5.7375,0.615 8.80375,1.1475 l 0.25,6.70375 z" fill="#d162ac" fill-rule="evenodd" stroke-width="1.25"/><path d="M9.7025 1.6995C10.26375 1.63575 10.58625 1.94825 10.65 2.652 10.68375 3.31575 10.44875 3.61825 9.95125 3.5495 9.41875 3.452 9.0675 3.1495 8.90125 2.652 8.735 2.1195 8.99875 1.802 9.7025 1.6995zM19.44875 8.652L19.0475 2.0995 19.7025 1.85075 19.95125 8.5495z" fill="#803c69" fill-rule="evenodd" stroke-width="1.25"/><path d="M19.0475 2.0995C16.25 1.66575 13.70125 1.402 11.40125 1.2995 9.13125 1.20075 5.415.80075.24875.09825L.7525-.0005c3.66625.3325 6.99625.60125 10 .80125 2.63125.16625 5.615.5175 8.95 1.05zM12.74875 5.352c-1.665.5325-2.88.9325-3.6475 1.19625-1.30375.4-2.33375.635-3.1.7025C4.765 7.3145 2.76875 7.18325 0 6.85075l.15125-2.1C4.0475 5.08325 6.5825 5.0345 7.74875 4.5995 10.65 3.59825 13.0325 3.067 14.9025 2.99825c1.73375-.0975 3.14875-.0975 4.2475 0L19.2475 5.2495C16.685 4.8195 14.51625 4.84825 12.74875 5.352z" fill="#ffbae8" fill-rule="evenodd" stroke-width="1.25"/><path d="m 19.2475,5.2495 v 1.80125 c 0,0.88875 0.045,1.41625 0.1275,1.5725 C 18.6275,8.472 13.2175,8.047 3.15,7.34825 4.64875,7.34825 5.9325,7.26575 7.0025,7.0995 7.63125,7.002 8.38375,6.802 9.2475,6.4995 10.7525,6.00075 11.91875,5.61575 12.74875,5.352 14.185,4.95075 15.69875,4.8145 17.3,4.95075 18.1,5.0145 18.75,5.117 19.2475,5.2495 Z" fill="#ab3a5c" fill-rule="evenodd" stroke-width="1.25"/><path d="M19.64875 6.34825c-2.1-.49875-3.765-.58125-5-.25L8.90125 7.7495 3.75 7.4995c2.5975-.165 4.565-.58 5.89875-1.25 1.00125-.4975 1.85-.83375 2.55375-1 .66375-.2 1.5625-.3325 2.7-.40125 1.49875-.0625 2.94875.06875 4.345.40125zM0 2.852l.24875-2.75375 7.4025 1C5.815 1.86575 4.4825 2.36825 3.6525 2.59825 2.8175 2.86575 1.60125 2.9495 0 2.852z" fill="#e62e65" fill-rule="evenodd" stroke-width="1.25"/><text style="line-height:1.25" x="10.912" y="11.725" transform="rotate(6.559)" font-weight="400" font-size="1.721" font-family="sans-serif" letter-spacing="0" word-spacing="0" stroke-width=".043"><tspan x="10.912" y="11.725" style="-inkscape-font-specification:'sans-serif, Normal';font-variant-ligatures:normal;font-variant-caps:normal;font-variant-numeric:normal;font-feature-settings:normal;text-align:center" text-anchor="middle">FREEZE DRIED</tspan><tspan x="10.912" y="13.877" style="-inkscape-font-specification:'sans-serif, Normal';font-variant-ligatures:normal;font-variant-caps:normal;font-variant-numeric:normal;font-feature-settings:normal;text-align:center" text-anchor="middle">WATER</tspan></text></svg>