<svg xmlns="http://www.w3.org/2000/svg" viewBox="0 0 315.26 481.28" version="1.0"><g><g color="#000" stroke="#000"><path d="m725.15 85.468v369.18c0 31.65-70.43 57.34-157.21 57.34-86.77 0-157.46-25.69-157.46-57.34v-369.18" stroke-width=".591" fill="none" transform="translate(-410.18 -31.01)"/><path d="m421.77 129.57c0 0.02-5.02-8.68 8.91-30.441 13.92-21.76 70.15-38.053 137.32-38.053 66.82 0 122.81 16.123 137.1 37.712 14.3 21.592 8.77 30.802 8.77 30.802v311.12c0 26.68-65.38 48.33-145.94 48.33-80.55 0-146.17-21.65-146.17-48.33 0 0 0-311.17 0.01-311.14z" stroke-width=".523" fill="#1be4e4" transform="translate(-410.18 -31.01)"/><path d="m422.42 129.79c45.15 64.57 251.81 75.81 291.68-0.16" stroke-width=".524" fill="none" transform="translate(-410.18 -31.01)"/><path d="m482.86 426.65a132.86 48.571 0 1 1 -265.72 0 132.86 48.571 0 1 1 265.72 0z" transform="matrix(1.0585 0 0 1 -212.67 -369.01)" stroke-width=".5" fill="none"/><path d="m482.86 426.65a132.86 48.571 0 1 1 -265.72 0 132.86 48.571 0 1 1 265.72 0z" transform="matrix(1.1833 0 0 1.1806 -256.38 -446.08)" stroke-width=".5" fill="none"/></g></g></svg>