<svg xmlns="http://www.w3.org/2000/svg" viewBox="0 0 260 380" version="1.0"><g fill-rule="evenodd"><path stroke="#000" d="M56.633 380.71l52.657-.51-8.61-24.81-5.06-25.31 6.08-18.23-5.573-17.72 26.833-2.03 30.89-9.11 19.24 26.83 20.76 15.7 24.81 10.63 49.11 14.18 3.55 10.13-13.67 12.15 1.01 6.58 17.72 1.52 11.65-8.1 17.21-13.17-12.66-18.73-13.67-3.55-26.33-13.16-10.12-10.13-25.83-4.05-12.66-26.83-8.6-13.17-6.59-19.74-8.1-12.66-8.1-4.05-5.57-16.21 5.07-26.83 3.03-22.28.51-15.7-5.57-25.82.51-14.18-6.59-16.198-8.6 13.168-3.55 18.22-.5 24.31-3.55-.51 1.52-31.39 5.57-17.72h-14.18l-11.14 7.09-2.53 12.65-3.54 15.19 4.56 9.12 3.03 5.06 7.09-1.01 2.03 5.06-13.67 5.57-9.12 10.13-1.52 13.16 1.02 18.74 6.07 18.23 6.58 15.69-1.51 9.12-17.22 6.58-17.215 9.11-15.19 10.63-5.063 3.55-2.026 19.24 3.545 13.16 5.063 26.84v25.82l-16.709 7.09-8.101 5.06 1.519 7.6zM126.16 111.28l3.79-7.57 4.55-3.28 6.82-1.52-1.52-12.374.51-13.131 1.01-4.041 6.81-2.777.51-10.101-5.81-5.051-3.28 1.01-3.54 3.788-1.26 4.293-3.79 2.02-.25 5.303-1.26 8.586v6.313l-1.01 6.818-2.78 9.091.5 12.623z" transform="translate(-48.614 -5.474)"/><path d="M168.08 100.93c-9.49-24.647 1.91-55.006 26.58-65.456 21.5-9.145 52.25-5.424 63.18 17.749 14.76 27.014 3.41 66.697-27.08 76.777-22.69 7.95-47.54-4.81-59.23-24.81l-1.71-2.14-1.74-2.12zM84.751 97.142c7.326 3.988 15.029 9.908 23.889 7.988 4.32-.29 9.05 1.4 13.02-.87 2.48-3.92.22-9.32 2.86-13.628 1.88-5.414 3.49-11.151 2.43-16.919-.41-6.773 1.77-13.735 6.3-18.833 1.58-6.282 10.36-10.325 15.38-5.354 5.93 5.082 5.19 15.509-1.28 19.809-4.94 5.441-2.56 13.196-3.4 19.773.66 7.031 6.33-.754 7.73-3.485 9.68-12.977 10.63-30.36 7.01-45.648-1.01-6.283-5.42-11.206-8.95-16.264-2.05-3.102-4.71-5.621-8.12-7.169-9.9-5.534-21.45-7.8647-32.73-6.8285-6.55-.0193-13.616.1734-19.058 4.3445-6.423 3.901-11.511 9.663-14.97 16.291-6.758 10.484-10.008 23.346-7.954 35.737.48 5.315 2.81 10.176 5.851 14.472 3.466 5.883 7.253 11.637 11.992 16.584z" transform="translate(-48.614 -5.474)"/><path stroke="#000" d="m127.73 62.413l38.89 6.131 5.17-6.131-45.4-6.323-3.26 4.79 6.13 1.916-1.53-0.383z" transform="translate(-48.614 -5.474)"/><path fill="#fff" transform="matrix(.17275 0 -.01885 .16751 169.156 44.961)" d="m36.962 151.65a41.013 41.772 0 1 1 -82.025 0 41.013 41.772 0 1 1 82.025 0z"/><path fill="#fff" transform="matrix(.24851 0 -.02711 .24098 69.036 13.258)" d="m36.962 151.65a41.013 41.772 0 1 1 -82.025 0 41.013 41.772 0 1 1 82.025 0z"/><path d="m76 49.273l-12.925-1.82c-2.757-0.388-4.067 5.559-1.637 5.907l12.658 1.813 1.904-5.9z"/></g></svg>